<?xml version="1.0" encoding="utf-8" standalone="no"?>
<!DOCTYPE svg PUBLIC "-//W3C//DTD SVG 1.1//EN"
  "http://www.w3.org/Graphics/SVG/1.1/DTD/svg11.dtd">
<svg xmlns:xlink="http://www.w3.org/1999/xlink" width="423.579375pt" height="207.051875pt" viewBox="0 0 423.579375 207.051875" xmlns="http://www.w3.org/2000/svg" version="1.1">
 <metadata>
  <rdf:RDF xmlns:dc="http://purl.org/dc/elements/1.1/" xmlns:cc="http://creativecommons.org/ns#" xmlns:rdf="http://www.w3.org/1999/02/22-rdf-syntax-ns#">
   <cc:Work>
    <dc:type rdf:resource="http://purl.org/dc/dcmitype/StillImage"/>
    <dc:date>2024-12-07T16:37:46.928680</dc:date>
    <dc:format>image/svg+xml</dc:format>
    <dc:creator>
     <cc:Agent>
      <dc:title>Matplotlib v3.9.0, https://matplotlib.org/</dc:title>
     </cc:Agent>
    </dc:creator>
   </cc:Work>
  </rdf:RDF>
 </metadata>
 <defs>
  <style type="text/css">*{stroke-linejoin: round; stroke-linecap: butt}</style>
 </defs>
 <g id="figure_1">
  <g id="patch_1">
   <path d="M 0 207.051875 
L 423.579375 207.051875 
L 423.579375 0 
L 0 0 
z
" style="fill: #ffffff"/>
  </g>
  <g id="axes_1">
   <g id="patch_2">
    <path d="M 52.079375 167.56 
L 183.32333 167.56 
L 183.32333 7.2 
L 52.079375 7.2 
z
" style="fill: #ffffff"/>
   </g>
   <g id="matplotlib.axis_1">
    <g id="xtick_1">
     <g id="line2d_1">
      <defs>
       <path id="mb7e0f01b09" d="M 0 0 
L 0 3.5 
" style="stroke: #000000; stroke-width: 0.8"/>
      </defs>
      <g>
       <use xlink:href="#mb7e0f01b09" x="58.045009" y="167.56" style="stroke: #000000; stroke-width: 0.8"/>
      </g>
     </g>
     <g id="text_1">
      <!-- 1 -->
      <g transform="translate(54.863759 182.158437) scale(0.1 -0.1)">
       <defs>
        <path id="DejaVuSans-31" d="M 794 531 
L 1825 531 
L 1825 4091 
L 703 3866 
L 703 4441 
L 1819 4666 
L 2450 4666 
L 2450 531 
L 3481 531 
L 3481 0 
L 794 0 
L 794 531 
z
" transform="scale(0.015625)"/>
       </defs>
       <use xlink:href="#DejaVuSans-31"/>
      </g>
     </g>
    </g>
    <g id="xtick_2">
     <g id="line2d_2">
      <g>
       <use xlink:href="#mb7e0f01b09" x="71.301974" y="167.56" style="stroke: #000000; stroke-width: 0.8"/>
      </g>
     </g>
     <g id="text_2">
      <!-- 2 -->
      <g transform="translate(68.120724 182.158437) scale(0.1 -0.1)">
       <defs>
        <path id="DejaVuSans-32" d="M 1228 531 
L 3431 531 
L 3431 0 
L 469 0 
L 469 531 
Q 828 903 1448 1529 
Q 2069 2156 2228 2338 
Q 2531 2678 2651 2914 
Q 2772 3150 2772 3378 
Q 2772 3750 2511 3984 
Q 2250 4219 1831 4219 
Q 1534 4219 1204 4116 
Q 875 4013 500 3803 
L 500 4441 
Q 881 4594 1212 4672 
Q 1544 4750 1819 4750 
Q 2544 4750 2975 4387 
Q 3406 4025 3406 3419 
Q 3406 3131 3298 2873 
Q 3191 2616 2906 2266 
Q 2828 2175 2409 1742 
Q 1991 1309 1228 531 
z
" transform="scale(0.015625)"/>
       </defs>
       <use xlink:href="#DejaVuSans-32"/>
      </g>
     </g>
    </g>
    <g id="xtick_3">
     <g id="line2d_3">
      <g>
       <use xlink:href="#mb7e0f01b09" x="84.55894" y="167.56" style="stroke: #000000; stroke-width: 0.8"/>
      </g>
     </g>
     <g id="text_3">
      <!-- 3 -->
      <g transform="translate(81.37769 182.158437) scale(0.1 -0.1)">
       <defs>
        <path id="DejaVuSans-33" d="M 2597 2516 
Q 3050 2419 3304 2112 
Q 3559 1806 3559 1356 
Q 3559 666 3084 287 
Q 2609 -91 1734 -91 
Q 1441 -91 1130 -33 
Q 819 25 488 141 
L 488 750 
Q 750 597 1062 519 
Q 1375 441 1716 441 
Q 2309 441 2620 675 
Q 2931 909 2931 1356 
Q 2931 1769 2642 2001 
Q 2353 2234 1838 2234 
L 1294 2234 
L 1294 2753 
L 1863 2753 
Q 2328 2753 2575 2939 
Q 2822 3125 2822 3475 
Q 2822 3834 2567 4026 
Q 2313 4219 1838 4219 
Q 1578 4219 1281 4162 
Q 984 4106 628 3988 
L 628 4550 
Q 988 4650 1302 4700 
Q 1616 4750 1894 4750 
Q 2613 4750 3031 4423 
Q 3450 4097 3450 3541 
Q 3450 3153 3228 2886 
Q 3006 2619 2597 2516 
z
" transform="scale(0.015625)"/>
       </defs>
       <use xlink:href="#DejaVuSans-33"/>
      </g>
     </g>
    </g>
    <g id="xtick_4">
     <g id="line2d_4">
      <g>
       <use xlink:href="#mb7e0f01b09" x="97.815905" y="167.56" style="stroke: #000000; stroke-width: 0.8"/>
      </g>
     </g>
     <g id="text_4">
      <!-- 4 -->
      <g transform="translate(94.634655 182.158437) scale(0.1 -0.1)">
       <defs>
        <path id="DejaVuSans-34" d="M 2419 4116 
L 825 1625 
L 2419 1625 
L 2419 4116 
z
M 2253 4666 
L 3047 4666 
L 3047 1625 
L 3713 1625 
L 3713 1100 
L 3047 1100 
L 3047 0 
L 2419 0 
L 2419 1100 
L 313 1100 
L 313 1709 
L 2253 4666 
z
" transform="scale(0.015625)"/>
       </defs>
       <use xlink:href="#DejaVuSans-34"/>
      </g>
     </g>
    </g>
    <g id="xtick_5">
     <g id="line2d_5">
      <g>
       <use xlink:href="#mb7e0f01b09" x="111.07287" y="167.56" style="stroke: #000000; stroke-width: 0.8"/>
      </g>
     </g>
     <g id="text_5">
      <!-- 5 -->
      <g transform="translate(107.89162 182.158437) scale(0.1 -0.1)">
       <defs>
        <path id="DejaVuSans-35" d="M 691 4666 
L 3169 4666 
L 3169 4134 
L 1269 4134 
L 1269 2991 
Q 1406 3038 1543 3061 
Q 1681 3084 1819 3084 
Q 2600 3084 3056 2656 
Q 3513 2228 3513 1497 
Q 3513 744 3044 326 
Q 2575 -91 1722 -91 
Q 1428 -91 1123 -41 
Q 819 9 494 109 
L 494 744 
Q 775 591 1075 516 
Q 1375 441 1709 441 
Q 2250 441 2565 725 
Q 2881 1009 2881 1497 
Q 2881 1984 2565 2268 
Q 2250 2553 1709 2553 
Q 1456 2553 1204 2497 
Q 953 2441 691 2322 
L 691 4666 
z
" transform="scale(0.015625)"/>
       </defs>
       <use xlink:href="#DejaVuSans-35"/>
      </g>
     </g>
    </g>
    <g id="xtick_6">
     <g id="line2d_6">
      <g>
       <use xlink:href="#mb7e0f01b09" x="124.329835" y="167.56" style="stroke: #000000; stroke-width: 0.8"/>
      </g>
     </g>
     <g id="text_6">
      <!-- 6 -->
      <g transform="translate(121.148585 182.158437) scale(0.1 -0.1)">
       <defs>
        <path id="DejaVuSans-36" d="M 2113 2584 
Q 1688 2584 1439 2293 
Q 1191 2003 1191 1497 
Q 1191 994 1439 701 
Q 1688 409 2113 409 
Q 2538 409 2786 701 
Q 3034 994 3034 1497 
Q 3034 2003 2786 2293 
Q 2538 2584 2113 2584 
z
M 3366 4563 
L 3366 3988 
Q 3128 4100 2886 4159 
Q 2644 4219 2406 4219 
Q 1781 4219 1451 3797 
Q 1122 3375 1075 2522 
Q 1259 2794 1537 2939 
Q 1816 3084 2150 3084 
Q 2853 3084 3261 2657 
Q 3669 2231 3669 1497 
Q 3669 778 3244 343 
Q 2819 -91 2113 -91 
Q 1303 -91 875 529 
Q 447 1150 447 2328 
Q 447 3434 972 4092 
Q 1497 4750 2381 4750 
Q 2619 4750 2861 4703 
Q 3103 4656 3366 4563 
z
" transform="scale(0.015625)"/>
       </defs>
       <use xlink:href="#DejaVuSans-36"/>
      </g>
     </g>
    </g>
    <g id="xtick_7">
     <g id="line2d_7">
      <g>
       <use xlink:href="#mb7e0f01b09" x="137.5868" y="167.56" style="stroke: #000000; stroke-width: 0.8"/>
      </g>
     </g>
     <g id="text_7">
      <!-- 7 -->
      <g transform="translate(134.40555 182.158437) scale(0.1 -0.1)">
       <defs>
        <path id="DejaVuSans-37" d="M 525 4666 
L 3525 4666 
L 3525 4397 
L 1831 0 
L 1172 0 
L 2766 4134 
L 525 4134 
L 525 4666 
z
" transform="scale(0.015625)"/>
       </defs>
       <use xlink:href="#DejaVuSans-37"/>
      </g>
     </g>
    </g>
    <g id="xtick_8">
     <g id="line2d_8">
      <g>
       <use xlink:href="#mb7e0f01b09" x="150.843765" y="167.56" style="stroke: #000000; stroke-width: 0.8"/>
      </g>
     </g>
     <g id="text_8">
      <!-- 8 -->
      <g transform="translate(147.662515 182.158437) scale(0.1 -0.1)">
       <defs>
        <path id="DejaVuSans-38" d="M 2034 2216 
Q 1584 2216 1326 1975 
Q 1069 1734 1069 1313 
Q 1069 891 1326 650 
Q 1584 409 2034 409 
Q 2484 409 2743 651 
Q 3003 894 3003 1313 
Q 3003 1734 2745 1975 
Q 2488 2216 2034 2216 
z
M 1403 2484 
Q 997 2584 770 2862 
Q 544 3141 544 3541 
Q 544 4100 942 4425 
Q 1341 4750 2034 4750 
Q 2731 4750 3128 4425 
Q 3525 4100 3525 3541 
Q 3525 3141 3298 2862 
Q 3072 2584 2669 2484 
Q 3125 2378 3379 2068 
Q 3634 1759 3634 1313 
Q 3634 634 3220 271 
Q 2806 -91 2034 -91 
Q 1263 -91 848 271 
Q 434 634 434 1313 
Q 434 1759 690 2068 
Q 947 2378 1403 2484 
z
M 1172 3481 
Q 1172 3119 1398 2916 
Q 1625 2713 2034 2713 
Q 2441 2713 2670 2916 
Q 2900 3119 2900 3481 
Q 2900 3844 2670 4047 
Q 2441 4250 2034 4250 
Q 1625 4250 1398 4047 
Q 1172 3844 1172 3481 
z
" transform="scale(0.015625)"/>
       </defs>
       <use xlink:href="#DejaVuSans-38"/>
      </g>
     </g>
    </g>
    <g id="xtick_9">
     <g id="line2d_9">
      <g>
       <use xlink:href="#mb7e0f01b09" x="164.10073" y="167.56" style="stroke: #000000; stroke-width: 0.8"/>
      </g>
     </g>
     <g id="text_9">
      <!-- 9 -->
      <g transform="translate(160.91948 182.158437) scale(0.1 -0.1)">
       <defs>
        <path id="DejaVuSans-39" d="M 703 97 
L 703 672 
Q 941 559 1184 500 
Q 1428 441 1663 441 
Q 2288 441 2617 861 
Q 2947 1281 2994 2138 
Q 2813 1869 2534 1725 
Q 2256 1581 1919 1581 
Q 1219 1581 811 2004 
Q 403 2428 403 3163 
Q 403 3881 828 4315 
Q 1253 4750 1959 4750 
Q 2769 4750 3195 4129 
Q 3622 3509 3622 2328 
Q 3622 1225 3098 567 
Q 2575 -91 1691 -91 
Q 1453 -91 1209 -44 
Q 966 3 703 97 
z
M 1959 2075 
Q 2384 2075 2632 2365 
Q 2881 2656 2881 3163 
Q 2881 3666 2632 3958 
Q 2384 4250 1959 4250 
Q 1534 4250 1286 3958 
Q 1038 3666 1038 3163 
Q 1038 2656 1286 2365 
Q 1534 2075 1959 2075 
z
" transform="scale(0.015625)"/>
       </defs>
       <use xlink:href="#DejaVuSans-39"/>
      </g>
     </g>
    </g>
    <g id="xtick_10">
     <g id="line2d_10">
      <g>
       <use xlink:href="#mb7e0f01b09" x="177.357695" y="167.56" style="stroke: #000000; stroke-width: 0.8"/>
      </g>
     </g>
     <g id="text_10">
      <!-- 10 -->
      <g transform="translate(170.995195 182.158437) scale(0.1 -0.1)">
       <defs>
        <path id="DejaVuSans-30" d="M 2034 4250 
Q 1547 4250 1301 3770 
Q 1056 3291 1056 2328 
Q 1056 1369 1301 889 
Q 1547 409 2034 409 
Q 2525 409 2770 889 
Q 3016 1369 3016 2328 
Q 3016 3291 2770 3770 
Q 2525 4250 2034 4250 
z
M 2034 4750 
Q 2819 4750 3233 4129 
Q 3647 3509 3647 2328 
Q 3647 1150 3233 529 
Q 2819 -91 2034 -91 
Q 1250 -91 836 529 
Q 422 1150 422 2328 
Q 422 3509 836 4129 
Q 1250 4750 2034 4750 
z
" transform="scale(0.015625)"/>
       </defs>
       <use xlink:href="#DejaVuSans-31"/>
       <use xlink:href="#DejaVuSans-30" x="63.623047"/>
      </g>
     </g>
    </g>
    <g id="text_11">
     <!-- k -->
     <g transform="translate(113.711352 197.35625) scale(0.12 -0.12)">
      <defs>
       <path id="DejaVuSans-BoldOblique-6b" d="M 1141 4863 
L 2266 4863 
L 1753 2228 
L 3263 3500 
L 4581 3500 
L 2547 1881 
L 4025 0 
L 2747 0 
L 1613 1509 
L 1319 0 
L 197 0 
L 1141 4863 
z
" transform="scale(0.015625)"/>
      </defs>
      <use xlink:href="#DejaVuSans-BoldOblique-6b"/>
     </g>
    </g>
   </g>
   <g id="matplotlib.axis_2">
    <g id="ytick_1">
     <g id="line2d_11">
      <defs>
       <path id="mdfd3476734" d="M 0 0 
L -3.5 0 
" style="stroke: #000000; stroke-width: 0.8"/>
      </defs>
      <g>
       <use xlink:href="#mdfd3476734" x="52.079375" y="167.014121" style="stroke: #000000; stroke-width: 0.8"/>
      </g>
     </g>
     <g id="text_12">
      <!-- 0.60 -->
      <g transform="translate(22.81375 170.81334) scale(0.1 -0.1)">
       <defs>
        <path id="DejaVuSans-2e" d="M 684 794 
L 1344 794 
L 1344 0 
L 684 0 
L 684 794 
z
" transform="scale(0.015625)"/>
       </defs>
       <use xlink:href="#DejaVuSans-30"/>
       <use xlink:href="#DejaVuSans-2e" x="63.623047"/>
       <use xlink:href="#DejaVuSans-36" x="95.410156"/>
       <use xlink:href="#DejaVuSans-30" x="159.033203"/>
      </g>
     </g>
    </g>
    <g id="ytick_2">
     <g id="line2d_12">
      <g>
       <use xlink:href="#mdfd3476734" x="52.079375" y="142.931221" style="stroke: #000000; stroke-width: 0.8"/>
      </g>
     </g>
     <g id="text_13">
      <!-- 0.65 -->
      <g transform="translate(22.81375 146.73044) scale(0.1 -0.1)">
       <use xlink:href="#DejaVuSans-30"/>
       <use xlink:href="#DejaVuSans-2e" x="63.623047"/>
       <use xlink:href="#DejaVuSans-36" x="95.410156"/>
       <use xlink:href="#DejaVuSans-35" x="159.033203"/>
      </g>
     </g>
    </g>
    <g id="ytick_3">
     <g id="line2d_13">
      <g>
       <use xlink:href="#mdfd3476734" x="52.079375" y="118.848322" style="stroke: #000000; stroke-width: 0.8"/>
      </g>
     </g>
     <g id="text_14">
      <!-- 0.70 -->
      <g transform="translate(22.81375 122.647541) scale(0.1 -0.1)">
       <use xlink:href="#DejaVuSans-30"/>
       <use xlink:href="#DejaVuSans-2e" x="63.623047"/>
       <use xlink:href="#DejaVuSans-37" x="95.410156"/>
       <use xlink:href="#DejaVuSans-30" x="159.033203"/>
      </g>
     </g>
    </g>
    <g id="ytick_4">
     <g id="line2d_14">
      <g>
       <use xlink:href="#mdfd3476734" x="52.079375" y="94.765423" style="stroke: #000000; stroke-width: 0.8"/>
      </g>
     </g>
     <g id="text_15">
      <!-- 0.75 -->
      <g transform="translate(22.81375 98.564641) scale(0.1 -0.1)">
       <use xlink:href="#DejaVuSans-30"/>
       <use xlink:href="#DejaVuSans-2e" x="63.623047"/>
       <use xlink:href="#DejaVuSans-37" x="95.410156"/>
       <use xlink:href="#DejaVuSans-35" x="159.033203"/>
      </g>
     </g>
    </g>
    <g id="ytick_5">
     <g id="line2d_15">
      <g>
       <use xlink:href="#mdfd3476734" x="52.079375" y="70.682523" style="stroke: #000000; stroke-width: 0.8"/>
      </g>
     </g>
     <g id="text_16">
      <!-- 0.80 -->
      <g transform="translate(22.81375 74.481742) scale(0.1 -0.1)">
       <use xlink:href="#DejaVuSans-30"/>
       <use xlink:href="#DejaVuSans-2e" x="63.623047"/>
       <use xlink:href="#DejaVuSans-38" x="95.410156"/>
       <use xlink:href="#DejaVuSans-30" x="159.033203"/>
      </g>
     </g>
    </g>
    <g id="ytick_6">
     <g id="line2d_16">
      <g>
       <use xlink:href="#mdfd3476734" x="52.079375" y="46.599624" style="stroke: #000000; stroke-width: 0.8"/>
      </g>
     </g>
     <g id="text_17">
      <!-- 0.85 -->
      <g transform="translate(22.81375 50.398842) scale(0.1 -0.1)">
       <use xlink:href="#DejaVuSans-30"/>
       <use xlink:href="#DejaVuSans-2e" x="63.623047"/>
       <use xlink:href="#DejaVuSans-38" x="95.410156"/>
       <use xlink:href="#DejaVuSans-35" x="159.033203"/>
      </g>
     </g>
    </g>
    <g id="ytick_7">
     <g id="line2d_17">
      <g>
       <use xlink:href="#mdfd3476734" x="52.079375" y="22.516724" style="stroke: #000000; stroke-width: 0.8"/>
      </g>
     </g>
     <g id="text_18">
      <!-- 0.90 -->
      <g transform="translate(22.81375 26.315943) scale(0.1 -0.1)">
       <use xlink:href="#DejaVuSans-30"/>
       <use xlink:href="#DejaVuSans-2e" x="63.623047"/>
       <use xlink:href="#DejaVuSans-39" x="95.410156"/>
       <use xlink:href="#DejaVuSans-30" x="159.033203"/>
      </g>
     </g>
    </g>
    <g id="text_19">
     <!-- Scores -->
     <g transform="translate(16.318125 109.979375) rotate(-90) scale(0.12 -0.12)">
      <defs>
       <path id="DejaVuSans-BoldOblique-53" d="M 4256 4519 
L 4063 3531 
Q 3709 3706 3365 3792 
Q 3022 3878 2694 3878 
Q 2244 3878 1992 3737 
Q 1741 3597 1741 3347 
Q 1741 3188 1852 3098 
Q 1963 3009 2309 2925 
L 2803 2803 
Q 3422 2647 3711 2351 
Q 4000 2056 4000 1588 
Q 4000 828 3423 368 
Q 2847 -91 1875 -91 
Q 1422 -91 973 -6 
Q 525 78 97 244 
L 288 1259 
Q 703 1019 1095 900 
Q 1488 781 1869 781 
Q 2281 781 2539 950 
Q 2797 1119 2797 1381 
Q 2797 1553 2681 1648 
Q 2566 1744 2175 1844 
L 1684 1966 
Q 1141 2100 875 2390 
Q 609 2681 609 3144 
Q 609 3872 1167 4311 
Q 1725 4750 2669 4750 
Q 3047 4750 3445 4692 
Q 3844 4634 4256 4519 
z
" transform="scale(0.015625)"/>
       <path id="DejaVuSans-BoldOblique-63" d="M 3719 3391 
L 3541 2478 
Q 3316 2628 3097 2706 
Q 2878 2784 2669 2784 
Q 2122 2784 1775 2417 
Q 1428 2050 1428 1478 
Q 1428 1113 1643 911 
Q 1859 709 2253 709 
Q 2516 709 2769 787 
Q 3022 866 3250 1019 
L 3078 103 
Q 2800 6 2519 -42 
Q 2238 -91 1953 -91 
Q 1128 -91 683 279 
Q 238 650 238 1331 
Q 238 1759 402 2162 
Q 566 2566 872 2888 
Q 1213 3241 1653 3412 
Q 2094 3584 2669 3584 
Q 2934 3584 3196 3536 
Q 3459 3488 3719 3391 
z
" transform="scale(0.015625)"/>
       <path id="DejaVuSans-BoldOblique-6f" d="M 2400 2784 
Q 1966 2784 1684 2390 
Q 1403 1997 1403 1388 
Q 1403 1056 1554 882 
Q 1706 709 1997 709 
Q 2431 709 2712 1104 
Q 2994 1500 2994 2113 
Q 2994 2441 2842 2612 
Q 2691 2784 2400 2784 
z
M 2491 3584 
Q 3272 3584 3719 3187 
Q 4166 2791 4166 2106 
Q 4166 1709 4025 1336 
Q 3884 963 3616 653 
Q 3297 284 2862 96 
Q 2428 -91 1894 -91 
Q 1122 -91 676 306 
Q 231 703 231 1388 
Q 231 1781 375 2157 
Q 519 2534 788 2847 
Q 1100 3209 1533 3396 
Q 1966 3584 2491 3584 
z
" transform="scale(0.015625)"/>
       <path id="DejaVuSans-BoldOblique-72" d="M 3291 2547 
Q 3175 2613 3034 2647 
Q 2894 2681 2731 2681 
Q 2303 2681 2020 2406 
Q 1738 2131 1638 1613 
L 1319 0 
L 197 0 
L 878 3500 
L 2003 3500 
L 1881 2900 
Q 2103 3231 2436 3407 
Q 2769 3584 3175 3584 
Q 3234 3584 3309 3578 
Q 3384 3572 3488 3559 
L 3291 2547 
z
" transform="scale(0.015625)"/>
       <path id="DejaVuSans-BoldOblique-65" d="M 4025 1619 
L 3988 1441 
L 1369 1441 
Q 1369 1422 1366 1386 
Q 1363 1350 1363 1331 
Q 1363 991 1567 822 
Q 1772 653 2181 653 
Q 2534 653 2926 759 
Q 3319 866 3750 1075 
L 3578 206 
Q 3169 56 2764 -17 
Q 2359 -91 1941 -91 
Q 1122 -91 676 287 
Q 231 666 231 1356 
Q 231 1756 373 2132 
Q 516 2509 788 2822 
Q 1109 3197 1557 3390 
Q 2006 3584 2553 3584 
Q 3263 3584 3680 3206 
Q 4097 2828 4097 2188 
Q 4097 2063 4080 1923 
Q 4063 1784 4025 1619 
z
M 2969 2131 
Q 2978 2172 2983 2214 
Q 2988 2256 2988 2297 
Q 2988 2547 2838 2694 
Q 2688 2841 2431 2841 
Q 2103 2841 1873 2661 
Q 1644 2481 1522 2131 
L 2969 2131 
z
" transform="scale(0.015625)"/>
       <path id="DejaVuSans-BoldOblique-73" d="M 3584 3391 
L 3419 2522 
Q 3091 2678 2766 2759 
Q 2441 2841 2150 2841 
Q 1819 2841 1639 2755 
Q 1459 2669 1459 2509 
Q 1459 2416 1559 2359 
Q 1659 2303 1953 2241 
L 2156 2203 
Q 2834 2059 3106 1832 
Q 3378 1606 3378 1203 
Q 3378 594 2900 251 
Q 2422 -91 1563 -91 
Q 1203 -91 828 -34 
Q 453 22 63 134 
L 231 1013 
Q 534 834 879 743 
Q 1225 653 1588 653 
Q 1941 653 2119 737 
Q 2297 822 2297 984 
Q 2297 1097 2197 1159 
Q 2097 1222 1784 1288 
L 1581 1325 
Q 981 1450 725 1694 
Q 469 1938 469 2369 
Q 469 2953 911 3268 
Q 1353 3584 2175 3584 
Q 2534 3584 2882 3536 
Q 3231 3488 3584 3391 
z
" transform="scale(0.015625)"/>
      </defs>
      <use xlink:href="#DejaVuSans-BoldOblique-53"/>
      <use xlink:href="#DejaVuSans-BoldOblique-63" x="72.021484"/>
      <use xlink:href="#DejaVuSans-BoldOblique-6f" x="131.298828"/>
      <use xlink:href="#DejaVuSans-BoldOblique-72" x="200"/>
      <use xlink:href="#DejaVuSans-BoldOblique-65" x="249.316406"/>
      <use xlink:href="#DejaVuSans-BoldOblique-73" x="317.138672"/>
     </g>
    </g>
   </g>
   <g id="line2d_18">
    <path d="M 58.045009 160.270909 
L 71.301974 160.270909 
L 84.55894 160.270909 
L 97.815905 160.270909 
L 111.07287 160.270909 
L 124.329835 160.270909 
L 137.5868 160.270909 
L 150.843765 160.270909 
L 164.10073 160.270909 
L 177.357695 160.270909 
" clip-path="url(#p246783cac4)" style="fill: none; stroke: #ff0000; stroke-width: 1.5; stroke-linecap: square"/>
    <defs>
     <path id="ma19d7b3324" d="M 0 -3 
L -3 3 
L 3 3 
z
" style="stroke: #ff0000; stroke-linejoin: miter"/>
    </defs>
    <g clip-path="url(#p246783cac4)">
     <use xlink:href="#ma19d7b3324" x="58.045009" y="160.270909" style="fill: #ff0000; stroke: #ff0000; stroke-linejoin: miter"/>
     <use xlink:href="#ma19d7b3324" x="71.301974" y="160.270909" style="fill: #ff0000; stroke: #ff0000; stroke-linejoin: miter"/>
     <use xlink:href="#ma19d7b3324" x="84.55894" y="160.270909" style="fill: #ff0000; stroke: #ff0000; stroke-linejoin: miter"/>
     <use xlink:href="#ma19d7b3324" x="97.815905" y="160.270909" style="fill: #ff0000; stroke: #ff0000; stroke-linejoin: miter"/>
     <use xlink:href="#ma19d7b3324" x="111.07287" y="160.270909" style="fill: #ff0000; stroke: #ff0000; stroke-linejoin: miter"/>
     <use xlink:href="#ma19d7b3324" x="124.329835" y="160.270909" style="fill: #ff0000; stroke: #ff0000; stroke-linejoin: miter"/>
     <use xlink:href="#ma19d7b3324" x="137.5868" y="160.270909" style="fill: #ff0000; stroke: #ff0000; stroke-linejoin: miter"/>
     <use xlink:href="#ma19d7b3324" x="150.843765" y="160.270909" style="fill: #ff0000; stroke: #ff0000; stroke-linejoin: miter"/>
     <use xlink:href="#ma19d7b3324" x="164.10073" y="160.270909" style="fill: #ff0000; stroke: #ff0000; stroke-linejoin: miter"/>
     <use xlink:href="#ma19d7b3324" x="177.357695" y="160.270909" style="fill: #ff0000; stroke: #ff0000; stroke-linejoin: miter"/>
    </g>
   </g>
   <g id="line2d_19">
    <path d="M 58.045009 54.787809 
L 71.301974 54.787809 
L 84.55894 54.787809 
L 97.815905 54.787809 
L 111.07287 54.787809 
L 124.329835 54.787809 
L 137.5868 54.787809 
L 150.843765 54.787809 
L 164.10073 54.787809 
L 177.357695 54.787809 
" clip-path="url(#p246783cac4)" style="fill: none; stroke: #000000; stroke-width: 1.5; stroke-linecap: square"/>
    <defs>
     <path id="m0b76d28405" d="M 0 -3 
L -2.85317 -0.927051 
L -1.763356 2.427051 
L 1.763356 2.427051 
L 2.85317 -0.927051 
z
" style="stroke: #000000; stroke-linejoin: miter"/>
    </defs>
    <g clip-path="url(#p246783cac4)">
     <use xlink:href="#m0b76d28405" x="58.045009" y="54.787809" style="stroke: #000000; stroke-linejoin: miter"/>
     <use xlink:href="#m0b76d28405" x="71.301974" y="54.787809" style="stroke: #000000; stroke-linejoin: miter"/>
     <use xlink:href="#m0b76d28405" x="84.55894" y="54.787809" style="stroke: #000000; stroke-linejoin: miter"/>
     <use xlink:href="#m0b76d28405" x="97.815905" y="54.787809" style="stroke: #000000; stroke-linejoin: miter"/>
     <use xlink:href="#m0b76d28405" x="111.07287" y="54.787809" style="stroke: #000000; stroke-linejoin: miter"/>
     <use xlink:href="#m0b76d28405" x="124.329835" y="54.787809" style="stroke: #000000; stroke-linejoin: miter"/>
     <use xlink:href="#m0b76d28405" x="137.5868" y="54.787809" style="stroke: #000000; stroke-linejoin: miter"/>
     <use xlink:href="#m0b76d28405" x="150.843765" y="54.787809" style="stroke: #000000; stroke-linejoin: miter"/>
     <use xlink:href="#m0b76d28405" x="164.10073" y="54.787809" style="stroke: #000000; stroke-linejoin: miter"/>
     <use xlink:href="#m0b76d28405" x="177.357695" y="54.787809" style="stroke: #000000; stroke-linejoin: miter"/>
    </g>
   </g>
   <g id="line2d_20">
    <path d="M 58.045009 14.489091 
L 71.301974 14.489091 
L 84.55894 14.489091 
L 97.815905 14.489091 
L 111.07287 14.489091 
L 124.329835 14.489091 
L 137.5868 14.489091 
L 150.843765 14.489091 
L 164.10073 14.489091 
L 177.357695 14.489091 
" clip-path="url(#p246783cac4)" style="fill: none; stroke: #008000; stroke-width: 1.5; stroke-linecap: square"/>
    <defs>
     <path id="ma0acd97d8a" d="M -3 3 
L 3 3 
L 3 -3 
L -3 -3 
z
" style="stroke: #008000; stroke-linejoin: miter"/>
    </defs>
    <g clip-path="url(#p246783cac4)">
     <use xlink:href="#ma0acd97d8a" x="58.045009" y="14.489091" style="fill: #008000; stroke: #008000; stroke-linejoin: miter"/>
     <use xlink:href="#ma0acd97d8a" x="71.301974" y="14.489091" style="fill: #008000; stroke: #008000; stroke-linejoin: miter"/>
     <use xlink:href="#ma0acd97d8a" x="84.55894" y="14.489091" style="fill: #008000; stroke: #008000; stroke-linejoin: miter"/>
     <use xlink:href="#ma0acd97d8a" x="97.815905" y="14.489091" style="fill: #008000; stroke: #008000; stroke-linejoin: miter"/>
     <use xlink:href="#ma0acd97d8a" x="111.07287" y="14.489091" style="fill: #008000; stroke: #008000; stroke-linejoin: miter"/>
     <use xlink:href="#ma0acd97d8a" x="124.329835" y="14.489091" style="fill: #008000; stroke: #008000; stroke-linejoin: miter"/>
     <use xlink:href="#ma0acd97d8a" x="137.5868" y="14.489091" style="fill: #008000; stroke: #008000; stroke-linejoin: miter"/>
     <use xlink:href="#ma0acd97d8a" x="150.843765" y="14.489091" style="fill: #008000; stroke: #008000; stroke-linejoin: miter"/>
     <use xlink:href="#ma0acd97d8a" x="164.10073" y="14.489091" style="fill: #008000; stroke: #008000; stroke-linejoin: miter"/>
     <use xlink:href="#ma0acd97d8a" x="177.357695" y="14.489091" style="fill: #008000; stroke: #008000; stroke-linejoin: miter"/>
    </g>
   </g>
   <g id="line2d_21">
    <path d="M 58.045009 134.903588 
L 71.301974 134.903588 
L 84.55894 134.903588 
L 97.815905 134.903588 
L 111.07287 134.903588 
L 124.329835 134.903588 
L 137.5868 134.903588 
L 150.843765 134.903588 
L 164.10073 134.903588 
L 177.357695 134.903588 
" clip-path="url(#p246783cac4)" style="fill: none; stroke: #bfbf00; stroke-width: 1.5; stroke-linecap: square"/>
    <defs>
     <path id="m149c597720" d="M 0 -3 
L -0.673542 -0.927051 
L -2.85317 -0.927051 
L -1.089814 0.354102 
L -1.763356 2.427051 
L -0 1.145898 
L 1.763356 2.427051 
L 1.089814 0.354102 
L 2.85317 -0.927051 
L 0.673542 -0.927051 
z
" style="stroke: #bfbf00; stroke-linejoin: bevel"/>
    </defs>
    <g clip-path="url(#p246783cac4)">
     <use xlink:href="#m149c597720" x="58.045009" y="134.903588" style="fill: #bfbf00; stroke: #bfbf00; stroke-linejoin: bevel"/>
     <use xlink:href="#m149c597720" x="71.301974" y="134.903588" style="fill: #bfbf00; stroke: #bfbf00; stroke-linejoin: bevel"/>
     <use xlink:href="#m149c597720" x="84.55894" y="134.903588" style="fill: #bfbf00; stroke: #bfbf00; stroke-linejoin: bevel"/>
     <use xlink:href="#m149c597720" x="97.815905" y="134.903588" style="fill: #bfbf00; stroke: #bfbf00; stroke-linejoin: bevel"/>
     <use xlink:href="#m149c597720" x="111.07287" y="134.903588" style="fill: #bfbf00; stroke: #bfbf00; stroke-linejoin: bevel"/>
     <use xlink:href="#m149c597720" x="124.329835" y="134.903588" style="fill: #bfbf00; stroke: #bfbf00; stroke-linejoin: bevel"/>
     <use xlink:href="#m149c597720" x="137.5868" y="134.903588" style="fill: #bfbf00; stroke: #bfbf00; stroke-linejoin: bevel"/>
     <use xlink:href="#m149c597720" x="150.843765" y="134.903588" style="fill: #bfbf00; stroke: #bfbf00; stroke-linejoin: bevel"/>
     <use xlink:href="#m149c597720" x="164.10073" y="134.903588" style="fill: #bfbf00; stroke: #bfbf00; stroke-linejoin: bevel"/>
     <use xlink:href="#m149c597720" x="177.357695" y="134.903588" style="fill: #bfbf00; stroke: #bfbf00; stroke-linejoin: bevel"/>
    </g>
   </g>
   <g id="line2d_22">
    <path d="M 58.045009 74.69634 
L 71.301974 74.69634 
L 84.55894 74.69634 
L 97.815905 74.69634 
L 111.07287 74.69634 
L 124.329835 74.69634 
L 137.5868 74.69634 
L 150.843765 74.69634 
L 164.10073 74.69634 
L 177.357695 74.69634 
" clip-path="url(#p246783cac4)" style="fill: none; stroke: #bf00bf; stroke-width: 1.5; stroke-linecap: square"/>
    <defs>
     <path id="mc9e363c5a1" d="M -0 4.242641 
L 2.545584 0 
L 0 -4.242641 
L -2.545584 -0 
z
" style="stroke: #bf00bf; stroke-linejoin: miter"/>
    </defs>
    <g clip-path="url(#p246783cac4)">
     <use xlink:href="#mc9e363c5a1" x="58.045009" y="74.69634" style="fill: #bf00bf; stroke: #bf00bf; stroke-linejoin: miter"/>
     <use xlink:href="#mc9e363c5a1" x="71.301974" y="74.69634" style="fill: #bf00bf; stroke: #bf00bf; stroke-linejoin: miter"/>
     <use xlink:href="#mc9e363c5a1" x="84.55894" y="74.69634" style="fill: #bf00bf; stroke: #bf00bf; stroke-linejoin: miter"/>
     <use xlink:href="#mc9e363c5a1" x="97.815905" y="74.69634" style="fill: #bf00bf; stroke: #bf00bf; stroke-linejoin: miter"/>
     <use xlink:href="#mc9e363c5a1" x="111.07287" y="74.69634" style="fill: #bf00bf; stroke: #bf00bf; stroke-linejoin: miter"/>
     <use xlink:href="#mc9e363c5a1" x="124.329835" y="74.69634" style="fill: #bf00bf; stroke: #bf00bf; stroke-linejoin: miter"/>
     <use xlink:href="#mc9e363c5a1" x="137.5868" y="74.69634" style="fill: #bf00bf; stroke: #bf00bf; stroke-linejoin: miter"/>
     <use xlink:href="#mc9e363c5a1" x="150.843765" y="74.69634" style="fill: #bf00bf; stroke: #bf00bf; stroke-linejoin: miter"/>
     <use xlink:href="#mc9e363c5a1" x="164.10073" y="74.69634" style="fill: #bf00bf; stroke: #bf00bf; stroke-linejoin: miter"/>
     <use xlink:href="#mc9e363c5a1" x="177.357695" y="74.69634" style="fill: #bf00bf; stroke: #bf00bf; stroke-linejoin: miter"/>
    </g>
   </g>
   <g id="line2d_23">
    <path d="M 58.045009 56.714441 
L 71.301974 56.714441 
L 84.55894 56.714441 
L 97.815905 56.714441 
L 111.07287 56.714441 
L 124.329835 56.714441 
L 137.5868 56.714441 
L 150.843765 56.714441 
L 164.10073 56.714441 
L 177.357695 56.714441 
" clip-path="url(#p246783cac4)" style="fill: none; stroke: #00bfbf; stroke-width: 1.5; stroke-linecap: square"/>
    <defs>
     <path id="m52c38d532b" d="M -1.5 3 
L 0 1.5 
L 1.5 3 
L 3 1.5 
L 1.5 0 
L 3 -1.5 
L 1.5 -3 
L 0 -1.5 
L -1.5 -3 
L -3 -1.5 
L -1.5 0 
L -3 1.5 
z
" style="stroke: #00bfbf; stroke-linejoin: miter"/>
    </defs>
    <g clip-path="url(#p246783cac4)">
     <use xlink:href="#m52c38d532b" x="58.045009" y="56.714441" style="fill: #00bfbf; stroke: #00bfbf; stroke-linejoin: miter"/>
     <use xlink:href="#m52c38d532b" x="71.301974" y="56.714441" style="fill: #00bfbf; stroke: #00bfbf; stroke-linejoin: miter"/>
     <use xlink:href="#m52c38d532b" x="84.55894" y="56.714441" style="fill: #00bfbf; stroke: #00bfbf; stroke-linejoin: miter"/>
     <use xlink:href="#m52c38d532b" x="97.815905" y="56.714441" style="fill: #00bfbf; stroke: #00bfbf; stroke-linejoin: miter"/>
     <use xlink:href="#m52c38d532b" x="111.07287" y="56.714441" style="fill: #00bfbf; stroke: #00bfbf; stroke-linejoin: miter"/>
     <use xlink:href="#m52c38d532b" x="124.329835" y="56.714441" style="fill: #00bfbf; stroke: #00bfbf; stroke-linejoin: miter"/>
     <use xlink:href="#m52c38d532b" x="137.5868" y="56.714441" style="fill: #00bfbf; stroke: #00bfbf; stroke-linejoin: miter"/>
     <use xlink:href="#m52c38d532b" x="150.843765" y="56.714441" style="fill: #00bfbf; stroke: #00bfbf; stroke-linejoin: miter"/>
     <use xlink:href="#m52c38d532b" x="164.10073" y="56.714441" style="fill: #00bfbf; stroke: #00bfbf; stroke-linejoin: miter"/>
     <use xlink:href="#m52c38d532b" x="177.357695" y="56.714441" style="fill: #00bfbf; stroke: #00bfbf; stroke-linejoin: miter"/>
    </g>
   </g>
   <g id="line2d_24">
    <path d="M 58.045009 74.535787 
L 71.301974 74.535787 
L 84.55894 74.535787 
L 97.815905 74.535787 
L 111.07287 74.535787 
L 124.329835 74.535787 
L 137.5868 74.535787 
L 150.843765 74.535787 
L 164.10073 74.535787 
L 177.357695 74.535787 
" clip-path="url(#p246783cac4)" style="fill: none; stroke: #0000ff; stroke-width: 1.5; stroke-linecap: square"/>
    <defs>
     <path id="m3345c87cbf" d="M 0 3 
C 0.795609 3 1.55874 2.683901 2.12132 2.12132 
C 2.683901 1.55874 3 0.795609 3 0 
C 3 -0.795609 2.683901 -1.55874 2.12132 -2.12132 
C 1.55874 -2.683901 0.795609 -3 0 -3 
C -0.795609 -3 -1.55874 -2.683901 -2.12132 -2.12132 
C -2.683901 -1.55874 -3 -0.795609 -3 0 
C -3 0.795609 -2.683901 1.55874 -2.12132 2.12132 
C -1.55874 2.683901 -0.795609 3 0 3 
z
" style="stroke: #0000ff"/>
    </defs>
    <g clip-path="url(#p246783cac4)">
     <use xlink:href="#m3345c87cbf" x="58.045009" y="74.535787" style="fill: #0000ff; stroke: #0000ff"/>
     <use xlink:href="#m3345c87cbf" x="71.301974" y="74.535787" style="fill: #0000ff; stroke: #0000ff"/>
     <use xlink:href="#m3345c87cbf" x="84.55894" y="74.535787" style="fill: #0000ff; stroke: #0000ff"/>
     <use xlink:href="#m3345c87cbf" x="97.815905" y="74.535787" style="fill: #0000ff; stroke: #0000ff"/>
     <use xlink:href="#m3345c87cbf" x="111.07287" y="74.535787" style="fill: #0000ff; stroke: #0000ff"/>
     <use xlink:href="#m3345c87cbf" x="124.329835" y="74.535787" style="fill: #0000ff; stroke: #0000ff"/>
     <use xlink:href="#m3345c87cbf" x="137.5868" y="74.535787" style="fill: #0000ff; stroke: #0000ff"/>
     <use xlink:href="#m3345c87cbf" x="150.843765" y="74.535787" style="fill: #0000ff; stroke: #0000ff"/>
     <use xlink:href="#m3345c87cbf" x="164.10073" y="74.535787" style="fill: #0000ff; stroke: #0000ff"/>
     <use xlink:href="#m3345c87cbf" x="177.357695" y="74.535787" style="fill: #0000ff; stroke: #0000ff"/>
    </g>
   </g>
   <g id="patch_3">
    <path d="M 52.079375 167.56 
L 52.079375 7.2 
" style="fill: none; stroke: #000000; stroke-width: 0.8; stroke-linejoin: miter; stroke-linecap: square"/>
   </g>
   <g id="patch_4">
    <path d="M 183.32333 167.56 
L 183.32333 7.2 
" style="fill: none; stroke: #000000; stroke-width: 0.8; stroke-linejoin: miter; stroke-linecap: square"/>
   </g>
   <g id="patch_5">
    <path d="M 52.079375 167.56 
L 183.32333 167.56 
" style="fill: none; stroke: #000000; stroke-width: 0.8; stroke-linejoin: miter; stroke-linecap: square"/>
   </g>
   <g id="patch_6">
    <path d="M 52.079375 7.2 
L 183.32333 7.2 
" style="fill: none; stroke: #000000; stroke-width: 0.8; stroke-linejoin: miter; stroke-linecap: square"/>
   </g>
   <g id="legend_1">
    <g id="patch_7">
     <path d="M 195.716527 96.244947 
L 241.193121 96.244947 
Q 242.859121 96.244947 242.859121 94.578947 
L 242.859121 9.8238 
Q 242.859121 8.1578 241.193121 8.1578 
L 195.716527 8.1578 
Q 194.050527 8.1578 194.050527 9.8238 
L 194.050527 94.578947 
Q 194.050527 96.244947 195.716527 96.244947 
z
" style="fill: #ffffff; opacity: 0.8; stroke: #cccccc; stroke-linejoin: miter"/>
    </g>
    <g id="line2d_25">
     <path d="M 197.382527 14.903798 
L 205.712527 14.903798 
L 214.042527 14.903798 
" style="fill: none; stroke: #ff0000; stroke-width: 1.5; stroke-linecap: square"/>
     <g>
      <use xlink:href="#ma19d7b3324" x="205.712527" y="14.903798" style="fill: #ff0000; stroke: #ff0000; stroke-linejoin: miter"/>
     </g>
    </g>
    <g id="text_20">
     <!-- MCC -->
     <g transform="translate(220.706527 17.819298) scale(0.0833 -0.0833)">
      <defs>
       <path id="DejaVuSans-4d" d="M 628 4666 
L 1569 4666 
L 2759 1491 
L 3956 4666 
L 4897 4666 
L 4897 0 
L 4281 0 
L 4281 4097 
L 3078 897 
L 2444 897 
L 1241 4097 
L 1241 0 
L 628 0 
L 628 4666 
z
" transform="scale(0.015625)"/>
       <path id="DejaVuSans-43" d="M 4122 4306 
L 4122 3641 
Q 3803 3938 3442 4084 
Q 3081 4231 2675 4231 
Q 1875 4231 1450 3742 
Q 1025 3253 1025 2328 
Q 1025 1406 1450 917 
Q 1875 428 2675 428 
Q 3081 428 3442 575 
Q 3803 722 4122 1019 
L 4122 359 
Q 3791 134 3420 21 
Q 3050 -91 2638 -91 
Q 1578 -91 968 557 
Q 359 1206 359 2328 
Q 359 3453 968 4101 
Q 1578 4750 2638 4750 
Q 3056 4750 3426 4639 
Q 3797 4528 4122 4306 
z
" transform="scale(0.015625)"/>
      </defs>
      <use xlink:href="#DejaVuSans-4d"/>
      <use xlink:href="#DejaVuSans-43" x="86.279297"/>
      <use xlink:href="#DejaVuSans-43" x="156.103516"/>
     </g>
    </g>
    <g id="line2d_26">
     <path d="M 197.382527 27.130677 
L 205.712527 27.130677 
L 214.042527 27.130677 
" style="fill: none; stroke: #000000; stroke-width: 1.5; stroke-linecap: square"/>
     <g>
      <use xlink:href="#m0b76d28405" x="205.712527" y="27.130677" style="stroke: #000000; stroke-linejoin: miter"/>
     </g>
    </g>
    <g id="text_21">
     <!-- ACC -->
     <g transform="translate(220.706527 30.046177) scale(0.0833 -0.0833)">
      <defs>
       <path id="DejaVuSans-41" d="M 2188 4044 
L 1331 1722 
L 3047 1722 
L 2188 4044 
z
M 1831 4666 
L 2547 4666 
L 4325 0 
L 3669 0 
L 3244 1197 
L 1141 1197 
L 716 0 
L 50 0 
L 1831 4666 
z
" transform="scale(0.015625)"/>
      </defs>
      <use xlink:href="#DejaVuSans-41"/>
      <use xlink:href="#DejaVuSans-43" x="66.658203"/>
      <use xlink:href="#DejaVuSans-43" x="136.482422"/>
     </g>
    </g>
    <g id="line2d_27">
     <path d="M 197.382527 39.357555 
L 205.712527 39.357555 
L 214.042527 39.357555 
" style="fill: none; stroke: #008000; stroke-width: 1.5; stroke-linecap: square"/>
     <g>
      <use xlink:href="#ma0acd97d8a" x="205.712527" y="39.357555" style="fill: #008000; stroke: #008000; stroke-linejoin: miter"/>
     </g>
    </g>
    <g id="text_22">
     <!-- Sen -->
     <g transform="translate(220.706527 42.273055) scale(0.0833 -0.0833)">
      <defs>
       <path id="DejaVuSans-53" d="M 3425 4513 
L 3425 3897 
Q 3066 4069 2747 4153 
Q 2428 4238 2131 4238 
Q 1616 4238 1336 4038 
Q 1056 3838 1056 3469 
Q 1056 3159 1242 3001 
Q 1428 2844 1947 2747 
L 2328 2669 
Q 3034 2534 3370 2195 
Q 3706 1856 3706 1288 
Q 3706 609 3251 259 
Q 2797 -91 1919 -91 
Q 1588 -91 1214 -16 
Q 841 59 441 206 
L 441 856 
Q 825 641 1194 531 
Q 1563 422 1919 422 
Q 2459 422 2753 634 
Q 3047 847 3047 1241 
Q 3047 1584 2836 1778 
Q 2625 1972 2144 2069 
L 1759 2144 
Q 1053 2284 737 2584 
Q 422 2884 422 3419 
Q 422 4038 858 4394 
Q 1294 4750 2059 4750 
Q 2388 4750 2728 4690 
Q 3069 4631 3425 4513 
z
" transform="scale(0.015625)"/>
       <path id="DejaVuSans-65" d="M 3597 1894 
L 3597 1613 
L 953 1613 
Q 991 1019 1311 708 
Q 1631 397 2203 397 
Q 2534 397 2845 478 
Q 3156 559 3463 722 
L 3463 178 
Q 3153 47 2828 -22 
Q 2503 -91 2169 -91 
Q 1331 -91 842 396 
Q 353 884 353 1716 
Q 353 2575 817 3079 
Q 1281 3584 2069 3584 
Q 2775 3584 3186 3129 
Q 3597 2675 3597 1894 
z
M 3022 2063 
Q 3016 2534 2758 2815 
Q 2500 3097 2075 3097 
Q 1594 3097 1305 2825 
Q 1016 2553 972 2059 
L 3022 2063 
z
" transform="scale(0.015625)"/>
       <path id="DejaVuSans-6e" d="M 3513 2113 
L 3513 0 
L 2938 0 
L 2938 2094 
Q 2938 2591 2744 2837 
Q 2550 3084 2163 3084 
Q 1697 3084 1428 2787 
Q 1159 2491 1159 1978 
L 1159 0 
L 581 0 
L 581 3500 
L 1159 3500 
L 1159 2956 
Q 1366 3272 1645 3428 
Q 1925 3584 2291 3584 
Q 2894 3584 3203 3211 
Q 3513 2838 3513 2113 
z
" transform="scale(0.015625)"/>
      </defs>
      <use xlink:href="#DejaVuSans-53"/>
      <use xlink:href="#DejaVuSans-65" x="63.476562"/>
      <use xlink:href="#DejaVuSans-6e" x="125"/>
     </g>
    </g>
    <g id="line2d_28">
     <path d="M 197.382527 51.584433 
L 205.712527 51.584433 
L 214.042527 51.584433 
" style="fill: none; stroke: #bfbf00; stroke-width: 1.5; stroke-linecap: square"/>
     <g>
      <use xlink:href="#m149c597720" x="205.712527" y="51.584433" style="fill: #bfbf00; stroke: #bfbf00; stroke-linejoin: bevel"/>
     </g>
    </g>
    <g id="text_23">
     <!-- Spe -->
     <g transform="translate(220.706527 54.499933) scale(0.0833 -0.0833)">
      <defs>
       <path id="DejaVuSans-70" d="M 1159 525 
L 1159 -1331 
L 581 -1331 
L 581 3500 
L 1159 3500 
L 1159 2969 
Q 1341 3281 1617 3432 
Q 1894 3584 2278 3584 
Q 2916 3584 3314 3078 
Q 3713 2572 3713 1747 
Q 3713 922 3314 415 
Q 2916 -91 2278 -91 
Q 1894 -91 1617 61 
Q 1341 213 1159 525 
z
M 3116 1747 
Q 3116 2381 2855 2742 
Q 2594 3103 2138 3103 
Q 1681 3103 1420 2742 
Q 1159 2381 1159 1747 
Q 1159 1113 1420 752 
Q 1681 391 2138 391 
Q 2594 391 2855 752 
Q 3116 1113 3116 1747 
z
" transform="scale(0.015625)"/>
      </defs>
      <use xlink:href="#DejaVuSans-53"/>
      <use xlink:href="#DejaVuSans-70" x="63.476562"/>
      <use xlink:href="#DejaVuSans-65" x="126.953125"/>
     </g>
    </g>
    <g id="line2d_29">
     <path d="M 197.382527 63.811311 
L 205.712527 63.811311 
L 214.042527 63.811311 
" style="fill: none; stroke: #bf00bf; stroke-width: 1.5; stroke-linecap: square"/>
     <g>
      <use xlink:href="#mc9e363c5a1" x="205.712527" y="63.811311" style="fill: #bf00bf; stroke: #bf00bf; stroke-linejoin: miter"/>
     </g>
    </g>
    <g id="text_24">
     <!-- AUC -->
     <g transform="translate(220.706527 66.726811) scale(0.0833 -0.0833)">
      <defs>
       <path id="DejaVuSans-55" d="M 556 4666 
L 1191 4666 
L 1191 1831 
Q 1191 1081 1462 751 
Q 1734 422 2344 422 
Q 2950 422 3222 751 
Q 3494 1081 3494 1831 
L 3494 4666 
L 4128 4666 
L 4128 1753 
Q 4128 841 3676 375 
Q 3225 -91 2344 -91 
Q 1459 -91 1007 375 
Q 556 841 556 1753 
L 556 4666 
z
" transform="scale(0.015625)"/>
      </defs>
      <use xlink:href="#DejaVuSans-41"/>
      <use xlink:href="#DejaVuSans-55" x="68.408203"/>
      <use xlink:href="#DejaVuSans-43" x="141.601562"/>
     </g>
    </g>
    <g id="line2d_30">
     <path d="M 197.382527 76.038189 
L 205.712527 76.038189 
L 214.042527 76.038189 
" style="fill: none; stroke: #00bfbf; stroke-width: 1.5; stroke-linecap: square"/>
     <g>
      <use xlink:href="#m52c38d532b" x="205.712527" y="76.038189" style="fill: #00bfbf; stroke: #00bfbf; stroke-linejoin: miter"/>
     </g>
    </g>
    <g id="text_25">
     <!-- F1 -->
     <g transform="translate(220.706527 78.953689) scale(0.0833 -0.0833)">
      <defs>
       <path id="DejaVuSans-46" d="M 628 4666 
L 3309 4666 
L 3309 4134 
L 1259 4134 
L 1259 2759 
L 3109 2759 
L 3109 2228 
L 1259 2228 
L 1259 0 
L 628 0 
L 628 4666 
z
" transform="scale(0.015625)"/>
      </defs>
      <use xlink:href="#DejaVuSans-46"/>
      <use xlink:href="#DejaVuSans-31" x="57.519531"/>
     </g>
    </g>
    <g id="line2d_31">
     <path d="M 197.382527 88.265067 
L 205.712527 88.265067 
L 214.042527 88.265067 
" style="fill: none; stroke: #0000ff; stroke-width: 1.5; stroke-linecap: square"/>
     <g>
      <use xlink:href="#m3345c87cbf" x="205.712527" y="88.265067" style="fill: #0000ff; stroke: #0000ff"/>
     </g>
    </g>
    <g id="text_26">
     <!-- BA -->
     <g transform="translate(220.706527 91.180567) scale(0.0833 -0.0833)">
      <defs>
       <path id="DejaVuSans-42" d="M 1259 2228 
L 1259 519 
L 2272 519 
Q 2781 519 3026 730 
Q 3272 941 3272 1375 
Q 3272 1813 3026 2020 
Q 2781 2228 2272 2228 
L 1259 2228 
z
M 1259 4147 
L 1259 2741 
L 2194 2741 
Q 2656 2741 2882 2914 
Q 3109 3088 3109 3444 
Q 3109 3797 2882 3972 
Q 2656 4147 2194 4147 
L 1259 4147 
z
M 628 4666 
L 2241 4666 
Q 2963 4666 3353 4366 
Q 3744 4066 3744 3513 
Q 3744 3084 3544 2831 
Q 3344 2578 2956 2516 
Q 3422 2416 3680 2098 
Q 3938 1781 3938 1306 
Q 3938 681 3513 340 
Q 3088 0 2303 0 
L 628 0 
L 628 4666 
z
" transform="scale(0.015625)"/>
      </defs>
      <use xlink:href="#DejaVuSans-42"/>
      <use xlink:href="#DejaVuSans-41" x="68.603516"/>
     </g>
    </g>
   </g>
  </g>
  <g id="axes_2">
   <g id="patch_8">
    <path d="M 285.13542 167.56 
L 416.379375 167.56 
L 416.379375 7.2 
L 285.13542 7.2 
z
" style="fill: #ffffff"/>
   </g>
   <g id="patch_9">
    <path d="M 291.101055 167.56 
L 294.949851 167.56 
L 294.949851 14.83619 
L 291.101055 14.83619 
z
" clip-path="url(#pfdd07cc13d)" style="fill: #008000; opacity: 0.5; stroke: #000000; stroke-linejoin: miter"/>
   </g>
   <g id="patch_10">
    <path d="M 303.930376 167.56 
L 307.779172 167.56 
L 307.779172 14.83619 
L 303.930376 14.83619 
z
" clip-path="url(#pfdd07cc13d)" style="fill: #008000; opacity: 0.5; stroke: #000000; stroke-linejoin: miter"/>
   </g>
   <g id="patch_11">
    <path d="M 316.759697 167.56 
L 320.608493 167.56 
L 320.608493 14.83619 
L 316.759697 14.83619 
z
" clip-path="url(#pfdd07cc13d)" style="fill: #008000; opacity: 0.5; stroke: #000000; stroke-linejoin: miter"/>
   </g>
   <g id="patch_12">
    <path d="M 329.589018 167.56 
L 333.437814 167.56 
L 333.437814 14.83619 
L 329.589018 14.83619 
z
" clip-path="url(#pfdd07cc13d)" style="fill: #008000; opacity: 0.5; stroke: #000000; stroke-linejoin: miter"/>
   </g>
   <g id="patch_13">
    <path d="M 342.418339 167.56 
L 346.267135 167.56 
L 346.267135 14.83619 
L 342.418339 14.83619 
z
" clip-path="url(#pfdd07cc13d)" style="fill: #008000; opacity: 0.5; stroke: #000000; stroke-linejoin: miter"/>
   </g>
   <g id="patch_14">
    <path d="M 355.24766 167.56 
L 359.096456 167.56 
L 359.096456 14.83619 
L 355.24766 14.83619 
z
" clip-path="url(#pfdd07cc13d)" style="fill: #008000; opacity: 0.5; stroke: #000000; stroke-linejoin: miter"/>
   </g>
   <g id="patch_15">
    <path d="M 368.076981 167.56 
L 371.925777 167.56 
L 371.925777 14.83619 
L 368.076981 14.83619 
z
" clip-path="url(#pfdd07cc13d)" style="fill: #008000; opacity: 0.5; stroke: #000000; stroke-linejoin: miter"/>
   </g>
   <g id="patch_16">
    <path d="M 380.906302 167.56 
L 384.755099 167.56 
L 384.755099 14.83619 
L 380.906302 14.83619 
z
" clip-path="url(#pfdd07cc13d)" style="fill: #008000; opacity: 0.5; stroke: #000000; stroke-linejoin: miter"/>
   </g>
   <g id="patch_17">
    <path d="M 393.735623 167.56 
L 397.58442 167.56 
L 397.58442 14.83619 
L 393.735623 14.83619 
z
" clip-path="url(#pfdd07cc13d)" style="fill: #008000; opacity: 0.5; stroke: #000000; stroke-linejoin: miter"/>
   </g>
   <g id="patch_18">
    <path d="M 406.564944 167.56 
L 410.413741 167.56 
L 410.413741 14.83619 
L 406.564944 14.83619 
z
" clip-path="url(#pfdd07cc13d)" style="fill: #008000; opacity: 0.5; stroke: #000000; stroke-linejoin: miter"/>
   </g>
   <g id="matplotlib.axis_3">
    <g id="xtick_11">
     <g id="line2d_32">
      <g>
       <use xlink:href="#mb7e0f01b09" x="293.025453" y="167.56" style="stroke: #000000; stroke-width: 0.8"/>
      </g>
     </g>
     <g id="text_27">
      <!-- 1 -->
      <g transform="translate(289.844203 182.158437) scale(0.1 -0.1)">
       <use xlink:href="#DejaVuSans-31"/>
      </g>
     </g>
    </g>
    <g id="xtick_12">
     <g id="line2d_33">
      <g>
       <use xlink:href="#mb7e0f01b09" x="305.854774" y="167.56" style="stroke: #000000; stroke-width: 0.8"/>
      </g>
     </g>
     <g id="text_28">
      <!-- 2 -->
      <g transform="translate(302.673524 182.158437) scale(0.1 -0.1)">
       <use xlink:href="#DejaVuSans-32"/>
      </g>
     </g>
    </g>
    <g id="xtick_13">
     <g id="line2d_34">
      <g>
       <use xlink:href="#mb7e0f01b09" x="318.684095" y="167.56" style="stroke: #000000; stroke-width: 0.8"/>
      </g>
     </g>
     <g id="text_29">
      <!-- 3 -->
      <g transform="translate(315.502845 182.158437) scale(0.1 -0.1)">
       <use xlink:href="#DejaVuSans-33"/>
      </g>
     </g>
    </g>
    <g id="xtick_14">
     <g id="line2d_35">
      <g>
       <use xlink:href="#mb7e0f01b09" x="331.513416" y="167.56" style="stroke: #000000; stroke-width: 0.8"/>
      </g>
     </g>
     <g id="text_30">
      <!-- 4 -->
      <g transform="translate(328.332166 182.158437) scale(0.1 -0.1)">
       <use xlink:href="#DejaVuSans-34"/>
      </g>
     </g>
    </g>
    <g id="xtick_15">
     <g id="line2d_36">
      <g>
       <use xlink:href="#mb7e0f01b09" x="344.342737" y="167.56" style="stroke: #000000; stroke-width: 0.8"/>
      </g>
     </g>
     <g id="text_31">
      <!-- 5 -->
      <g transform="translate(341.161487 182.158437) scale(0.1 -0.1)">
       <use xlink:href="#DejaVuSans-35"/>
      </g>
     </g>
    </g>
    <g id="xtick_16">
     <g id="line2d_37">
      <g>
       <use xlink:href="#mb7e0f01b09" x="357.172058" y="167.56" style="stroke: #000000; stroke-width: 0.8"/>
      </g>
     </g>
     <g id="text_32">
      <!-- 6 -->
      <g transform="translate(353.990808 182.158437) scale(0.1 -0.1)">
       <use xlink:href="#DejaVuSans-36"/>
      </g>
     </g>
    </g>
    <g id="xtick_17">
     <g id="line2d_38">
      <g>
       <use xlink:href="#mb7e0f01b09" x="370.001379" y="167.56" style="stroke: #000000; stroke-width: 0.8"/>
      </g>
     </g>
     <g id="text_33">
      <!-- 7 -->
      <g transform="translate(366.820129 182.158437) scale(0.1 -0.1)">
       <use xlink:href="#DejaVuSans-37"/>
      </g>
     </g>
    </g>
    <g id="xtick_18">
     <g id="line2d_39">
      <g>
       <use xlink:href="#mb7e0f01b09" x="382.8307" y="167.56" style="stroke: #000000; stroke-width: 0.8"/>
      </g>
     </g>
     <g id="text_34">
      <!-- 8 -->
      <g transform="translate(379.64945 182.158437) scale(0.1 -0.1)">
       <use xlink:href="#DejaVuSans-38"/>
      </g>
     </g>
    </g>
    <g id="xtick_19">
     <g id="line2d_40">
      <g>
       <use xlink:href="#mb7e0f01b09" x="395.660021" y="167.56" style="stroke: #000000; stroke-width: 0.8"/>
      </g>
     </g>
     <g id="text_35">
      <!-- 9 -->
      <g transform="translate(392.478771 182.158437) scale(0.1 -0.1)">
       <use xlink:href="#DejaVuSans-39"/>
      </g>
     </g>
    </g>
    <g id="xtick_20">
     <g id="line2d_41">
      <g>
       <use xlink:href="#mb7e0f01b09" x="408.489343" y="167.56" style="stroke: #000000; stroke-width: 0.8"/>
      </g>
     </g>
     <g id="text_36">
      <!-- 10 -->
      <g transform="translate(402.126843 182.158437) scale(0.1 -0.1)">
       <use xlink:href="#DejaVuSans-31"/>
       <use xlink:href="#DejaVuSans-30" x="63.623047"/>
      </g>
     </g>
    </g>
    <g id="text_37">
     <!-- k -->
     <g transform="translate(346.767398 197.35625) scale(0.12 -0.12)">
      <use xlink:href="#DejaVuSans-BoldOblique-6b"/>
     </g>
    </g>
   </g>
   <g id="matplotlib.axis_4">
    <g id="ytick_8">
     <g id="line2d_42">
      <g>
       <use xlink:href="#mdfd3476734" x="285.13542" y="167.56" style="stroke: #000000; stroke-width: 0.8"/>
      </g>
     </g>
     <g id="text_38">
      <!-- 0 -->
      <g transform="translate(271.77292 171.359219) scale(0.1 -0.1)">
       <use xlink:href="#DejaVuSans-30"/>
      </g>
     </g>
    </g>
    <g id="ytick_9">
     <g id="line2d_43">
      <g>
       <use xlink:href="#mdfd3476734" x="285.13542" y="129.379048" style="stroke: #000000; stroke-width: 0.8"/>
      </g>
     </g>
     <g id="text_39">
      <!-- 1 -->
      <g transform="translate(271.77292 133.178266) scale(0.1 -0.1)">
       <use xlink:href="#DejaVuSans-31"/>
      </g>
     </g>
    </g>
    <g id="ytick_10">
     <g id="line2d_44">
      <g>
       <use xlink:href="#mdfd3476734" x="285.13542" y="91.198095" style="stroke: #000000; stroke-width: 0.8"/>
      </g>
     </g>
     <g id="text_40">
      <!-- 2 -->
      <g transform="translate(271.77292 94.997314) scale(0.1 -0.1)">
       <use xlink:href="#DejaVuSans-32"/>
      </g>
     </g>
    </g>
    <g id="ytick_11">
     <g id="line2d_45">
      <g>
       <use xlink:href="#mdfd3476734" x="285.13542" y="53.017143" style="stroke: #000000; stroke-width: 0.8"/>
      </g>
     </g>
     <g id="text_41">
      <!-- 3 -->
      <g transform="translate(271.77292 56.816362) scale(0.1 -0.1)">
       <use xlink:href="#DejaVuSans-33"/>
      </g>
     </g>
    </g>
    <g id="ytick_12">
     <g id="line2d_46">
      <g>
       <use xlink:href="#mdfd3476734" x="285.13542" y="14.83619" style="stroke: #000000; stroke-width: 0.8"/>
      </g>
     </g>
     <g id="text_42">
      <!-- 4 -->
      <g transform="translate(271.77292 18.635409) scale(0.1 -0.1)">
       <use xlink:href="#DejaVuSans-34"/>
      </g>
     </g>
    </g>
    <g id="text_43">
     <!-- Removed compounds -->
     <g transform="translate(265.277295 159.264687) rotate(-90) scale(0.12 -0.12)">
      <defs>
       <path id="DejaVuSans-BoldOblique-52" d="M 2350 2597 
Q 2759 2597 2970 2787 
Q 3181 2978 3181 3347 
Q 3181 3578 3036 3686 
Q 2891 3794 2578 3794 
L 2081 3794 
L 1844 2597 
L 2350 2597 
z
M 1684 1766 
L 1338 0 
L 134 0 
L 1044 4666 
L 2822 4666 
Q 3591 4666 3987 4378 
Q 4384 4091 4384 3531 
Q 4384 2966 4071 2600 
Q 3759 2234 3225 2181 
Q 3469 2131 3631 1932 
Q 3794 1734 3916 1325 
L 4313 0 
L 3116 0 
L 2766 1159 
Q 2659 1506 2507 1636 
Q 2356 1766 2069 1766 
L 1684 1766 
z
" transform="scale(0.015625)"/>
       <path id="DejaVuSans-BoldOblique-6d" d="M 4013 2919 
Q 4272 3241 4601 3412 
Q 4931 3584 5288 3584 
Q 5756 3584 6026 3326 
Q 6297 3069 6297 2619 
Q 6297 2525 6283 2404 
Q 6269 2284 6241 2131 
L 5825 0 
L 4697 0 
L 5050 1825 
L 5059 1872 
Q 5141 2259 5141 2369 
Q 5141 2541 5042 2641 
Q 4944 2741 4775 2741 
Q 4453 2741 4229 2477 
Q 4006 2213 3909 1722 
L 3572 0 
L 2444 0 
L 2803 1825 
Q 2850 2059 2869 2179 
Q 2888 2300 2888 2369 
Q 2888 2544 2791 2642 
Q 2694 2741 2522 2741 
Q 2213 2741 1980 2467 
Q 1747 2194 1656 1722 
L 1319 0 
L 197 0 
L 878 3500 
L 2003 3500 
L 1900 2988 
Q 2163 3284 2459 3434 
Q 2756 3584 3078 3584 
Q 3441 3584 3700 3398 
Q 3959 3213 4013 2919 
z
" transform="scale(0.015625)"/>
       <path id="DejaVuSans-BoldOblique-76" d="M 403 3500 
L 1434 3500 
L 1888 1056 
L 3206 3500 
L 4341 3500 
L 2284 0 
L 1100 0 
L 403 3500 
z
" transform="scale(0.015625)"/>
       <path id="DejaVuSans-BoldOblique-64" d="M 1966 722 
Q 2397 722 2667 1119 
Q 2938 1516 2938 2156 
Q 2938 2447 2786 2609 
Q 2634 2772 2363 2772 
Q 1938 2772 1663 2380 
Q 1388 1988 1388 1375 
Q 1388 1056 1536 889 
Q 1684 722 1966 722 
z
M 3144 2988 
L 3506 4863 
L 4634 4863 
L 3688 0 
L 2559 0 
L 2663 506 
Q 2406 200 2125 54 
Q 1844 -91 1509 -91 
Q 919 -91 575 284 
Q 231 659 231 1306 
Q 231 1709 351 2090 
Q 472 2472 697 2784 
Q 981 3178 1339 3381 
Q 1697 3584 2106 3584 
Q 2466 3584 2717 3439 
Q 2969 3294 3144 2988 
z
" transform="scale(0.015625)"/>
       <path id="DejaVuSans-BoldOblique-20" transform="scale(0.015625)"/>
       <path id="DejaVuSans-BoldOblique-70" d="M 1422 506 
L 1063 -1331 
L -63 -1331 
L 878 3500 
L 2003 3500 
L 1900 2988 
Q 2156 3294 2437 3439 
Q 2719 3584 3053 3584 
Q 3644 3584 3987 3209 
Q 4331 2834 4331 2188 
Q 4331 1784 4211 1403 
Q 4091 1022 3866 709 
Q 3581 316 3223 112 
Q 2866 -91 2456 -91 
Q 2097 -91 1845 54 
Q 1594 200 1422 506 
z
M 2597 2772 
Q 2166 2772 1892 2373 
Q 1619 1975 1619 1338 
Q 1619 1050 1773 886 
Q 1928 722 2203 722 
Q 2625 722 2900 1114 
Q 3175 1506 3175 2119 
Q 3175 2438 3026 2605 
Q 2878 2772 2597 2772 
z
" transform="scale(0.015625)"/>
       <path id="DejaVuSans-BoldOblique-75" d="M 434 1363 
L 844 3500 
L 1966 3500 
L 1613 1678 
Q 1575 1500 1556 1375 
Q 1538 1250 1538 1178 
Q 1538 981 1647 872 
Q 1756 763 1959 763 
Q 2306 763 2556 1031 
Q 2806 1300 2900 1778 
L 3238 3500 
L 4359 3500 
L 3681 0 
L 2553 0 
L 2656 513 
Q 2369 209 2053 59 
Q 1738 -91 1388 -91 
Q 909 -91 646 162 
Q 384 416 384 878 
Q 384 988 396 1109 
Q 409 1231 434 1363 
z
" transform="scale(0.015625)"/>
       <path id="DejaVuSans-BoldOblique-6e" d="M 4128 2131 
L 3713 0 
L 2591 0 
L 2944 1825 
Q 2981 2003 3001 2126 
Q 3022 2250 3022 2322 
Q 3022 2522 2911 2631 
Q 2800 2741 2597 2741 
Q 2250 2741 2001 2470 
Q 1753 2200 1656 1722 
L 1319 0 
L 197 0 
L 878 3500 
L 2003 3500 
L 1900 2988 
Q 2209 3291 2521 3437 
Q 2834 3584 3175 3584 
Q 3659 3584 3921 3331 
Q 4184 3078 4184 2619 
Q 4184 2519 4170 2397 
Q 4156 2275 4128 2131 
z
" transform="scale(0.015625)"/>
      </defs>
      <use xlink:href="#DejaVuSans-BoldOblique-52"/>
      <use xlink:href="#DejaVuSans-BoldOblique-65" x="72.001953"/>
      <use xlink:href="#DejaVuSans-BoldOblique-6d" x="139.824219"/>
      <use xlink:href="#DejaVuSans-BoldOblique-6f" x="244.023438"/>
      <use xlink:href="#DejaVuSans-BoldOblique-76" x="312.724609"/>
      <use xlink:href="#DejaVuSans-BoldOblique-65" x="377.910156"/>
      <use xlink:href="#DejaVuSans-BoldOblique-64" x="445.732422"/>
      <use xlink:href="#DejaVuSans-BoldOblique-20" x="517.314453"/>
      <use xlink:href="#DejaVuSans-BoldOblique-63" x="552.128906"/>
      <use xlink:href="#DejaVuSans-BoldOblique-6f" x="611.40625"/>
      <use xlink:href="#DejaVuSans-BoldOblique-6d" x="680.107422"/>
      <use xlink:href="#DejaVuSans-BoldOblique-70" x="784.306641"/>
      <use xlink:href="#DejaVuSans-BoldOblique-6f" x="855.888672"/>
      <use xlink:href="#DejaVuSans-BoldOblique-75" x="924.589844"/>
      <use xlink:href="#DejaVuSans-BoldOblique-6e" x="995.78125"/>
      <use xlink:href="#DejaVuSans-BoldOblique-64" x="1066.972656"/>
      <use xlink:href="#DejaVuSans-BoldOblique-73" x="1138.554688"/>
     </g>
    </g>
   </g>
   <g id="patch_19">
    <path d="M 285.13542 167.56 
L 285.13542 7.2 
" style="fill: none; stroke: #000000; stroke-width: 0.8; stroke-linejoin: miter; stroke-linecap: square"/>
   </g>
   <g id="patch_20">
    <path d="M 416.379375 167.56 
L 416.379375 7.2 
" style="fill: none; stroke: #000000; stroke-width: 0.8; stroke-linejoin: miter; stroke-linecap: square"/>
   </g>
   <g id="patch_21">
    <path d="M 285.13542 167.56 
L 416.379375 167.56 
" style="fill: none; stroke: #000000; stroke-width: 0.8; stroke-linejoin: miter; stroke-linecap: square"/>
   </g>
   <g id="patch_22">
    <path d="M 285.13542 7.2 
L 416.379375 7.2 
" style="fill: none; stroke: #000000; stroke-width: 0.8; stroke-linejoin: miter; stroke-linecap: square"/>
   </g>
  </g>
 </g>
 <defs>
  <clipPath id="p246783cac4">
   <rect x="52.079375" y="7.2" width="131.243955" height="160.36"/>
  </clipPath>
  <clipPath id="pfdd07cc13d">
   <rect x="285.13542" y="7.2" width="131.243955" height="160.36"/>
  </clipPath>
 </defs>
</svg>
