<?xml version="1.0" encoding="utf-8" standalone="no"?>
<!DOCTYPE svg PUBLIC "-//W3C//DTD SVG 1.1//EN"
  "http://www.w3.org/Graphics/SVG/1.1/DTD/svg11.dtd">
<svg xmlns:xlink="http://www.w3.org/1999/xlink" width="423.516875pt" height="205.379908pt" viewBox="0 0 423.516875 205.379908" xmlns="http://www.w3.org/2000/svg" version="1.1">
 <metadata>
  <rdf:RDF xmlns:dc="http://purl.org/dc/elements/1.1/" xmlns:cc="http://creativecommons.org/ns#" xmlns:rdf="http://www.w3.org/1999/02/22-rdf-syntax-ns#">
   <cc:Work>
    <dc:type rdf:resource="http://purl.org/dc/dcmitype/StillImage"/>
    <dc:date>2024-11-18T11:11:44.477725</dc:date>
    <dc:format>image/svg+xml</dc:format>
    <dc:creator>
     <cc:Agent>
      <dc:title>Matplotlib v3.9.0, https://matplotlib.org/</dc:title>
     </cc:Agent>
    </dc:creator>
   </cc:Work>
  </rdf:RDF>
 </metadata>
 <defs>
  <style type="text/css">*{stroke-linejoin: round; stroke-linecap: butt}</style>
 </defs>
 <g id="figure_1">
  <g id="patch_1">
   <path d="M 0 205.379908 
L 423.516875 205.379908 
L 423.516875 0 
L 0 0 
z
" style="fill: #ffffff"/>
  </g>
  <g id="axes_1">
   <g id="patch_2">
    <path d="M 45.716875 165.888033 
L 168.09583 165.888033 
L 168.09583 7.2 
L 45.716875 7.2 
z
" style="fill: #ffffff"/>
   </g>
   <g id="matplotlib.axis_1">
    <g id="xtick_1">
     <g id="line2d_1">
      <defs>
       <path id="m93184b7b1a" d="M 0 0 
L 0 3.5 
" style="stroke: #000000; stroke-width: 0.8"/>
      </defs>
      <g>
       <use xlink:href="#m93184b7b1a" x="51.279555" y="165.888033" style="stroke: #000000; stroke-width: 0.8"/>
      </g>
     </g>
     <g id="text_1">
      <!-- 1 -->
      <g transform="translate(48.098305 180.486471) scale(0.1 -0.1)">
       <defs>
        <path id="DejaVuSans-31" d="M 794 531 
L 1825 531 
L 1825 4091 
L 703 3866 
L 703 4441 
L 1819 4666 
L 2450 4666 
L 2450 531 
L 3481 531 
L 3481 0 
L 794 0 
L 794 531 
z
" transform="scale(0.015625)"/>
       </defs>
       <use xlink:href="#DejaVuSans-31"/>
      </g>
     </g>
    </g>
    <g id="xtick_2">
     <g id="line2d_2">
      <g>
       <use xlink:href="#m93184b7b1a" x="63.641065" y="165.888033" style="stroke: #000000; stroke-width: 0.8"/>
      </g>
     </g>
     <g id="text_2">
      <!-- 2 -->
      <g transform="translate(60.459815 180.486471) scale(0.1 -0.1)">
       <defs>
        <path id="DejaVuSans-32" d="M 1228 531 
L 3431 531 
L 3431 0 
L 469 0 
L 469 531 
Q 828 903 1448 1529 
Q 2069 2156 2228 2338 
Q 2531 2678 2651 2914 
Q 2772 3150 2772 3378 
Q 2772 3750 2511 3984 
Q 2250 4219 1831 4219 
Q 1534 4219 1204 4116 
Q 875 4013 500 3803 
L 500 4441 
Q 881 4594 1212 4672 
Q 1544 4750 1819 4750 
Q 2544 4750 2975 4387 
Q 3406 4025 3406 3419 
Q 3406 3131 3298 2873 
Q 3191 2616 2906 2266 
Q 2828 2175 2409 1742 
Q 1991 1309 1228 531 
z
" transform="scale(0.015625)"/>
       </defs>
       <use xlink:href="#DejaVuSans-32"/>
      </g>
     </g>
    </g>
    <g id="xtick_3">
     <g id="line2d_3">
      <g>
       <use xlink:href="#m93184b7b1a" x="76.002576" y="165.888033" style="stroke: #000000; stroke-width: 0.8"/>
      </g>
     </g>
     <g id="text_3">
      <!-- 3 -->
      <g transform="translate(72.821326 180.486471) scale(0.1 -0.1)">
       <defs>
        <path id="DejaVuSans-33" d="M 2597 2516 
Q 3050 2419 3304 2112 
Q 3559 1806 3559 1356 
Q 3559 666 3084 287 
Q 2609 -91 1734 -91 
Q 1441 -91 1130 -33 
Q 819 25 488 141 
L 488 750 
Q 750 597 1062 519 
Q 1375 441 1716 441 
Q 2309 441 2620 675 
Q 2931 909 2931 1356 
Q 2931 1769 2642 2001 
Q 2353 2234 1838 2234 
L 1294 2234 
L 1294 2753 
L 1863 2753 
Q 2328 2753 2575 2939 
Q 2822 3125 2822 3475 
Q 2822 3834 2567 4026 
Q 2313 4219 1838 4219 
Q 1578 4219 1281 4162 
Q 984 4106 628 3988 
L 628 4550 
Q 988 4650 1302 4700 
Q 1616 4750 1894 4750 
Q 2613 4750 3031 4423 
Q 3450 4097 3450 3541 
Q 3450 3153 3228 2886 
Q 3006 2619 2597 2516 
z
" transform="scale(0.015625)"/>
       </defs>
       <use xlink:href="#DejaVuSans-33"/>
      </g>
     </g>
    </g>
    <g id="xtick_4">
     <g id="line2d_4">
      <g>
       <use xlink:href="#m93184b7b1a" x="88.364086" y="165.888033" style="stroke: #000000; stroke-width: 0.8"/>
      </g>
     </g>
     <g id="text_4">
      <!-- 4 -->
      <g transform="translate(85.182836 180.486471) scale(0.1 -0.1)">
       <defs>
        <path id="DejaVuSans-34" d="M 2419 4116 
L 825 1625 
L 2419 1625 
L 2419 4116 
z
M 2253 4666 
L 3047 4666 
L 3047 1625 
L 3713 1625 
L 3713 1100 
L 3047 1100 
L 3047 0 
L 2419 0 
L 2419 1100 
L 313 1100 
L 313 1709 
L 2253 4666 
z
" transform="scale(0.015625)"/>
       </defs>
       <use xlink:href="#DejaVuSans-34"/>
      </g>
     </g>
    </g>
    <g id="xtick_5">
     <g id="line2d_5">
      <g>
       <use xlink:href="#m93184b7b1a" x="100.725597" y="165.888033" style="stroke: #000000; stroke-width: 0.8"/>
      </g>
     </g>
     <g id="text_5">
      <!-- 5 -->
      <g transform="translate(97.544347 180.486471) scale(0.1 -0.1)">
       <defs>
        <path id="DejaVuSans-35" d="M 691 4666 
L 3169 4666 
L 3169 4134 
L 1269 4134 
L 1269 2991 
Q 1406 3038 1543 3061 
Q 1681 3084 1819 3084 
Q 2600 3084 3056 2656 
Q 3513 2228 3513 1497 
Q 3513 744 3044 326 
Q 2575 -91 1722 -91 
Q 1428 -91 1123 -41 
Q 819 9 494 109 
L 494 744 
Q 775 591 1075 516 
Q 1375 441 1709 441 
Q 2250 441 2565 725 
Q 2881 1009 2881 1497 
Q 2881 1984 2565 2268 
Q 2250 2553 1709 2553 
Q 1456 2553 1204 2497 
Q 953 2441 691 2322 
L 691 4666 
z
" transform="scale(0.015625)"/>
       </defs>
       <use xlink:href="#DejaVuSans-35"/>
      </g>
     </g>
    </g>
    <g id="xtick_6">
     <g id="line2d_6">
      <g>
       <use xlink:href="#m93184b7b1a" x="113.087108" y="165.888033" style="stroke: #000000; stroke-width: 0.8"/>
      </g>
     </g>
     <g id="text_6">
      <!-- 6 -->
      <g transform="translate(109.905858 180.486471) scale(0.1 -0.1)">
       <defs>
        <path id="DejaVuSans-36" d="M 2113 2584 
Q 1688 2584 1439 2293 
Q 1191 2003 1191 1497 
Q 1191 994 1439 701 
Q 1688 409 2113 409 
Q 2538 409 2786 701 
Q 3034 994 3034 1497 
Q 3034 2003 2786 2293 
Q 2538 2584 2113 2584 
z
M 3366 4563 
L 3366 3988 
Q 3128 4100 2886 4159 
Q 2644 4219 2406 4219 
Q 1781 4219 1451 3797 
Q 1122 3375 1075 2522 
Q 1259 2794 1537 2939 
Q 1816 3084 2150 3084 
Q 2853 3084 3261 2657 
Q 3669 2231 3669 1497 
Q 3669 778 3244 343 
Q 2819 -91 2113 -91 
Q 1303 -91 875 529 
Q 447 1150 447 2328 
Q 447 3434 972 4092 
Q 1497 4750 2381 4750 
Q 2619 4750 2861 4703 
Q 3103 4656 3366 4563 
z
" transform="scale(0.015625)"/>
       </defs>
       <use xlink:href="#DejaVuSans-36"/>
      </g>
     </g>
    </g>
    <g id="xtick_7">
     <g id="line2d_7">
      <g>
       <use xlink:href="#m93184b7b1a" x="125.448618" y="165.888033" style="stroke: #000000; stroke-width: 0.8"/>
      </g>
     </g>
     <g id="text_7">
      <!-- 7 -->
      <g transform="translate(122.267368 180.486471) scale(0.1 -0.1)">
       <defs>
        <path id="DejaVuSans-37" d="M 525 4666 
L 3525 4666 
L 3525 4397 
L 1831 0 
L 1172 0 
L 2766 4134 
L 525 4134 
L 525 4666 
z
" transform="scale(0.015625)"/>
       </defs>
       <use xlink:href="#DejaVuSans-37"/>
      </g>
     </g>
    </g>
    <g id="xtick_8">
     <g id="line2d_8">
      <g>
       <use xlink:href="#m93184b7b1a" x="137.810129" y="165.888033" style="stroke: #000000; stroke-width: 0.8"/>
      </g>
     </g>
     <g id="text_8">
      <!-- 8 -->
      <g transform="translate(134.628879 180.486471) scale(0.1 -0.1)">
       <defs>
        <path id="DejaVuSans-38" d="M 2034 2216 
Q 1584 2216 1326 1975 
Q 1069 1734 1069 1313 
Q 1069 891 1326 650 
Q 1584 409 2034 409 
Q 2484 409 2743 651 
Q 3003 894 3003 1313 
Q 3003 1734 2745 1975 
Q 2488 2216 2034 2216 
z
M 1403 2484 
Q 997 2584 770 2862 
Q 544 3141 544 3541 
Q 544 4100 942 4425 
Q 1341 4750 2034 4750 
Q 2731 4750 3128 4425 
Q 3525 4100 3525 3541 
Q 3525 3141 3298 2862 
Q 3072 2584 2669 2484 
Q 3125 2378 3379 2068 
Q 3634 1759 3634 1313 
Q 3634 634 3220 271 
Q 2806 -91 2034 -91 
Q 1263 -91 848 271 
Q 434 634 434 1313 
Q 434 1759 690 2068 
Q 947 2378 1403 2484 
z
M 1172 3481 
Q 1172 3119 1398 2916 
Q 1625 2713 2034 2713 
Q 2441 2713 2670 2916 
Q 2900 3119 2900 3481 
Q 2900 3844 2670 4047 
Q 2441 4250 2034 4250 
Q 1625 4250 1398 4047 
Q 1172 3844 1172 3481 
z
" transform="scale(0.015625)"/>
       </defs>
       <use xlink:href="#DejaVuSans-38"/>
      </g>
     </g>
    </g>
    <g id="xtick_9">
     <g id="line2d_9">
      <g>
       <use xlink:href="#m93184b7b1a" x="150.171639" y="165.888033" style="stroke: #000000; stroke-width: 0.8"/>
      </g>
     </g>
     <g id="text_9">
      <!-- 9 -->
      <g transform="translate(146.990389 180.486471) scale(0.1 -0.1)">
       <defs>
        <path id="DejaVuSans-39" d="M 703 97 
L 703 672 
Q 941 559 1184 500 
Q 1428 441 1663 441 
Q 2288 441 2617 861 
Q 2947 1281 2994 2138 
Q 2813 1869 2534 1725 
Q 2256 1581 1919 1581 
Q 1219 1581 811 2004 
Q 403 2428 403 3163 
Q 403 3881 828 4315 
Q 1253 4750 1959 4750 
Q 2769 4750 3195 4129 
Q 3622 3509 3622 2328 
Q 3622 1225 3098 567 
Q 2575 -91 1691 -91 
Q 1453 -91 1209 -44 
Q 966 3 703 97 
z
M 1959 2075 
Q 2384 2075 2632 2365 
Q 2881 2656 2881 3163 
Q 2881 3666 2632 3958 
Q 2384 4250 1959 4250 
Q 1534 4250 1286 3958 
Q 1038 3666 1038 3163 
Q 1038 2656 1286 2365 
Q 1534 2075 1959 2075 
z
" transform="scale(0.015625)"/>
       </defs>
       <use xlink:href="#DejaVuSans-39"/>
      </g>
     </g>
    </g>
    <g id="xtick_10">
     <g id="line2d_10">
      <g>
       <use xlink:href="#m93184b7b1a" x="162.53315" y="165.888033" style="stroke: #000000; stroke-width: 0.8"/>
      </g>
     </g>
     <g id="text_10">
      <!-- 10 -->
      <g transform="translate(156.17065 180.486471) scale(0.1 -0.1)">
       <defs>
        <path id="DejaVuSans-30" d="M 2034 4250 
Q 1547 4250 1301 3770 
Q 1056 3291 1056 2328 
Q 1056 1369 1301 889 
Q 1547 409 2034 409 
Q 2525 409 2770 889 
Q 3016 1369 3016 2328 
Q 3016 3291 2770 3770 
Q 2525 4250 2034 4250 
z
M 2034 4750 
Q 2819 4750 3233 4129 
Q 3647 3509 3647 2328 
Q 3647 1150 3233 529 
Q 2819 -91 2034 -91 
Q 1250 -91 836 529 
Q 422 1150 422 2328 
Q 422 3509 836 4129 
Q 1250 4750 2034 4750 
z
" transform="scale(0.015625)"/>
       </defs>
       <use xlink:href="#DejaVuSans-31"/>
       <use xlink:href="#DejaVuSans-30" x="63.623047"/>
      </g>
     </g>
    </g>
    <g id="text_11">
     <!-- k -->
     <g transform="translate(102.916352 195.684283) scale(0.12 -0.12)">
      <defs>
       <path id="DejaVuSans-BoldOblique-6b" d="M 1141 4863 
L 2266 4863 
L 1753 2228 
L 3263 3500 
L 4581 3500 
L 2547 1881 
L 4025 0 
L 2747 0 
L 1613 1509 
L 1319 0 
L 197 0 
L 1141 4863 
z
" transform="scale(0.015625)"/>
      </defs>
      <use xlink:href="#DejaVuSans-BoldOblique-6b"/>
     </g>
    </g>
   </g>
   <g id="matplotlib.axis_2">
    <g id="ytick_1">
     <g id="line2d_11">
      <defs>
       <path id="m9494031b39" d="M 0 0 
L -3.5 0 
" style="stroke: #000000; stroke-width: 0.8"/>
      </defs>
      <g>
       <use xlink:href="#m9494031b39" x="45.716875" y="150.224456" style="stroke: #000000; stroke-width: 0.8"/>
      </g>
     </g>
     <g id="text_12">
      <!-- 0.2 -->
      <g transform="translate(22.81375 154.023675) scale(0.1 -0.1)">
       <defs>
        <path id="DejaVuSans-2e" d="M 684 794 
L 1344 794 
L 1344 0 
L 684 0 
L 684 794 
z
" transform="scale(0.015625)"/>
       </defs>
       <use xlink:href="#DejaVuSans-30"/>
       <use xlink:href="#DejaVuSans-2e" x="63.623047"/>
       <use xlink:href="#DejaVuSans-32" x="95.410156"/>
      </g>
     </g>
    </g>
    <g id="ytick_2">
     <g id="line2d_12">
      <g>
       <use xlink:href="#m9494031b39" x="45.716875" y="109.984052" style="stroke: #000000; stroke-width: 0.8"/>
      </g>
     </g>
     <g id="text_13">
      <!-- 0.4 -->
      <g transform="translate(22.81375 113.783271) scale(0.1 -0.1)">
       <use xlink:href="#DejaVuSans-30"/>
       <use xlink:href="#DejaVuSans-2e" x="63.623047"/>
       <use xlink:href="#DejaVuSans-34" x="95.410156"/>
      </g>
     </g>
    </g>
    <g id="ytick_3">
     <g id="line2d_13">
      <g>
       <use xlink:href="#m9494031b39" x="45.716875" y="69.743648" style="stroke: #000000; stroke-width: 0.8"/>
      </g>
     </g>
     <g id="text_14">
      <!-- 0.6 -->
      <g transform="translate(22.81375 73.542867) scale(0.1 -0.1)">
       <use xlink:href="#DejaVuSans-30"/>
       <use xlink:href="#DejaVuSans-2e" x="63.623047"/>
       <use xlink:href="#DejaVuSans-36" x="95.410156"/>
      </g>
     </g>
    </g>
    <g id="ytick_4">
     <g id="line2d_14">
      <g>
       <use xlink:href="#m9494031b39" x="45.716875" y="29.503244" style="stroke: #000000; stroke-width: 0.8"/>
      </g>
     </g>
     <g id="text_15">
      <!-- 0.8 -->
      <g transform="translate(22.81375 33.302463) scale(0.1 -0.1)">
       <use xlink:href="#DejaVuSans-30"/>
       <use xlink:href="#DejaVuSans-2e" x="63.623047"/>
       <use xlink:href="#DejaVuSans-38" x="95.410156"/>
      </g>
     </g>
    </g>
    <g id="text_16">
     <!-- Scores -->
     <g transform="translate(16.318125 109.143392) rotate(-90) scale(0.12 -0.12)">
      <defs>
       <path id="DejaVuSans-BoldOblique-53" d="M 4256 4519 
L 4063 3531 
Q 3709 3706 3365 3792 
Q 3022 3878 2694 3878 
Q 2244 3878 1992 3737 
Q 1741 3597 1741 3347 
Q 1741 3188 1852 3098 
Q 1963 3009 2309 2925 
L 2803 2803 
Q 3422 2647 3711 2351 
Q 4000 2056 4000 1588 
Q 4000 828 3423 368 
Q 2847 -91 1875 -91 
Q 1422 -91 973 -6 
Q 525 78 97 244 
L 288 1259 
Q 703 1019 1095 900 
Q 1488 781 1869 781 
Q 2281 781 2539 950 
Q 2797 1119 2797 1381 
Q 2797 1553 2681 1648 
Q 2566 1744 2175 1844 
L 1684 1966 
Q 1141 2100 875 2390 
Q 609 2681 609 3144 
Q 609 3872 1167 4311 
Q 1725 4750 2669 4750 
Q 3047 4750 3445 4692 
Q 3844 4634 4256 4519 
z
" transform="scale(0.015625)"/>
       <path id="DejaVuSans-BoldOblique-63" d="M 3719 3391 
L 3541 2478 
Q 3316 2628 3097 2706 
Q 2878 2784 2669 2784 
Q 2122 2784 1775 2417 
Q 1428 2050 1428 1478 
Q 1428 1113 1643 911 
Q 1859 709 2253 709 
Q 2516 709 2769 787 
Q 3022 866 3250 1019 
L 3078 103 
Q 2800 6 2519 -42 
Q 2238 -91 1953 -91 
Q 1128 -91 683 279 
Q 238 650 238 1331 
Q 238 1759 402 2162 
Q 566 2566 872 2888 
Q 1213 3241 1653 3412 
Q 2094 3584 2669 3584 
Q 2934 3584 3196 3536 
Q 3459 3488 3719 3391 
z
" transform="scale(0.015625)"/>
       <path id="DejaVuSans-BoldOblique-6f" d="M 2400 2784 
Q 1966 2784 1684 2390 
Q 1403 1997 1403 1388 
Q 1403 1056 1554 882 
Q 1706 709 1997 709 
Q 2431 709 2712 1104 
Q 2994 1500 2994 2113 
Q 2994 2441 2842 2612 
Q 2691 2784 2400 2784 
z
M 2491 3584 
Q 3272 3584 3719 3187 
Q 4166 2791 4166 2106 
Q 4166 1709 4025 1336 
Q 3884 963 3616 653 
Q 3297 284 2862 96 
Q 2428 -91 1894 -91 
Q 1122 -91 676 306 
Q 231 703 231 1388 
Q 231 1781 375 2157 
Q 519 2534 788 2847 
Q 1100 3209 1533 3396 
Q 1966 3584 2491 3584 
z
" transform="scale(0.015625)"/>
       <path id="DejaVuSans-BoldOblique-72" d="M 3291 2547 
Q 3175 2613 3034 2647 
Q 2894 2681 2731 2681 
Q 2303 2681 2020 2406 
Q 1738 2131 1638 1613 
L 1319 0 
L 197 0 
L 878 3500 
L 2003 3500 
L 1881 2900 
Q 2103 3231 2436 3407 
Q 2769 3584 3175 3584 
Q 3234 3584 3309 3578 
Q 3384 3572 3488 3559 
L 3291 2547 
z
" transform="scale(0.015625)"/>
       <path id="DejaVuSans-BoldOblique-65" d="M 4025 1619 
L 3988 1441 
L 1369 1441 
Q 1369 1422 1366 1386 
Q 1363 1350 1363 1331 
Q 1363 991 1567 822 
Q 1772 653 2181 653 
Q 2534 653 2926 759 
Q 3319 866 3750 1075 
L 3578 206 
Q 3169 56 2764 -17 
Q 2359 -91 1941 -91 
Q 1122 -91 676 287 
Q 231 666 231 1356 
Q 231 1756 373 2132 
Q 516 2509 788 2822 
Q 1109 3197 1557 3390 
Q 2006 3584 2553 3584 
Q 3263 3584 3680 3206 
Q 4097 2828 4097 2188 
Q 4097 2063 4080 1923 
Q 4063 1784 4025 1619 
z
M 2969 2131 
Q 2978 2172 2983 2214 
Q 2988 2256 2988 2297 
Q 2988 2547 2838 2694 
Q 2688 2841 2431 2841 
Q 2103 2841 1873 2661 
Q 1644 2481 1522 2131 
L 2969 2131 
z
" transform="scale(0.015625)"/>
       <path id="DejaVuSans-BoldOblique-73" d="M 3584 3391 
L 3419 2522 
Q 3091 2678 2766 2759 
Q 2441 2841 2150 2841 
Q 1819 2841 1639 2755 
Q 1459 2669 1459 2509 
Q 1459 2416 1559 2359 
Q 1659 2303 1953 2241 
L 2156 2203 
Q 2834 2059 3106 1832 
Q 3378 1606 3378 1203 
Q 3378 594 2900 251 
Q 2422 -91 1563 -91 
Q 1203 -91 828 -34 
Q 453 22 63 134 
L 231 1013 
Q 534 834 879 743 
Q 1225 653 1588 653 
Q 1941 653 2119 737 
Q 2297 822 2297 984 
Q 2297 1097 2197 1159 
Q 2097 1222 1784 1288 
L 1581 1325 
Q 981 1450 725 1694 
Q 469 1938 469 2369 
Q 469 2953 911 3268 
Q 1353 3584 2175 3584 
Q 2534 3584 2882 3536 
Q 3231 3488 3584 3391 
z
" transform="scale(0.015625)"/>
      </defs>
      <use xlink:href="#DejaVuSans-BoldOblique-53"/>
      <use xlink:href="#DejaVuSans-BoldOblique-63" x="72.021484"/>
      <use xlink:href="#DejaVuSans-BoldOblique-6f" x="131.298828"/>
      <use xlink:href="#DejaVuSans-BoldOblique-72" x="200"/>
      <use xlink:href="#DejaVuSans-BoldOblique-65" x="249.316406"/>
      <use xlink:href="#DejaVuSans-BoldOblique-73" x="317.138672"/>
     </g>
    </g>
   </g>
   <g id="line2d_15">
    <path d="M 51.279555 158.674941 
L 63.641065 158.674941 
L 76.002576 158.674941 
L 88.364086 158.674941 
L 100.725597 158.674941 
L 113.087108 158.674941 
L 125.448618 158.674941 
L 137.810129 158.674941 
L 150.171639 158.674941 
L 162.53315 158.674941 
" clip-path="url(#pb460cb9079)" style="fill: none; stroke: #ff0000; stroke-width: 1.5; stroke-linecap: square"/>
    <defs>
     <path id="m3c87c10a57" d="M 0 -3 
L -3 3 
L 3 3 
z
" style="stroke: #ff0000; stroke-linejoin: miter"/>
    </defs>
    <g clip-path="url(#pb460cb9079)">
     <use xlink:href="#m3c87c10a57" x="51.279555" y="158.674941" style="fill: #ff0000; stroke: #ff0000; stroke-linejoin: miter"/>
     <use xlink:href="#m3c87c10a57" x="63.641065" y="158.674941" style="fill: #ff0000; stroke: #ff0000; stroke-linejoin: miter"/>
     <use xlink:href="#m3c87c10a57" x="76.002576" y="158.674941" style="fill: #ff0000; stroke: #ff0000; stroke-linejoin: miter"/>
     <use xlink:href="#m3c87c10a57" x="88.364086" y="158.674941" style="fill: #ff0000; stroke: #ff0000; stroke-linejoin: miter"/>
     <use xlink:href="#m3c87c10a57" x="100.725597" y="158.674941" style="fill: #ff0000; stroke: #ff0000; stroke-linejoin: miter"/>
     <use xlink:href="#m3c87c10a57" x="113.087108" y="158.674941" style="fill: #ff0000; stroke: #ff0000; stroke-linejoin: miter"/>
     <use xlink:href="#m3c87c10a57" x="125.448618" y="158.674941" style="fill: #ff0000; stroke: #ff0000; stroke-linejoin: miter"/>
     <use xlink:href="#m3c87c10a57" x="137.810129" y="158.674941" style="fill: #ff0000; stroke: #ff0000; stroke-linejoin: miter"/>
     <use xlink:href="#m3c87c10a57" x="150.171639" y="158.674941" style="fill: #ff0000; stroke: #ff0000; stroke-linejoin: miter"/>
     <use xlink:href="#m3c87c10a57" x="162.53315" y="158.674941" style="fill: #ff0000; stroke: #ff0000; stroke-linejoin: miter"/>
    </g>
   </g>
   <g id="line2d_16">
    <path d="M 51.279555 56.263113 
L 63.641065 56.263113 
L 76.002576 56.263113 
L 88.364086 56.263113 
L 100.725597 56.263113 
L 113.087108 56.263113 
L 125.448618 56.263113 
L 137.810129 56.263113 
L 150.171639 56.263113 
L 162.53315 56.263113 
" clip-path="url(#pb460cb9079)" style="fill: none; stroke: #000000; stroke-width: 1.5; stroke-linecap: square"/>
    <defs>
     <path id="m3f7aa6f73b" d="M 0 -3 
L -2.85317 -0.927051 
L -1.763356 2.427051 
L 1.763356 2.427051 
L 2.85317 -0.927051 
z
" style="stroke: #000000; stroke-linejoin: miter"/>
    </defs>
    <g clip-path="url(#pb460cb9079)">
     <use xlink:href="#m3f7aa6f73b" x="51.279555" y="56.263113" style="stroke: #000000; stroke-linejoin: miter"/>
     <use xlink:href="#m3f7aa6f73b" x="63.641065" y="56.263113" style="stroke: #000000; stroke-linejoin: miter"/>
     <use xlink:href="#m3f7aa6f73b" x="76.002576" y="56.263113" style="stroke: #000000; stroke-linejoin: miter"/>
     <use xlink:href="#m3f7aa6f73b" x="88.364086" y="56.263113" style="stroke: #000000; stroke-linejoin: miter"/>
     <use xlink:href="#m3f7aa6f73b" x="100.725597" y="56.263113" style="stroke: #000000; stroke-linejoin: miter"/>
     <use xlink:href="#m3f7aa6f73b" x="113.087108" y="56.263113" style="stroke: #000000; stroke-linejoin: miter"/>
     <use xlink:href="#m3f7aa6f73b" x="125.448618" y="56.263113" style="stroke: #000000; stroke-linejoin: miter"/>
     <use xlink:href="#m3f7aa6f73b" x="137.810129" y="56.263113" style="stroke: #000000; stroke-linejoin: miter"/>
     <use xlink:href="#m3f7aa6f73b" x="150.171639" y="56.263113" style="stroke: #000000; stroke-linejoin: miter"/>
     <use xlink:href="#m3f7aa6f73b" x="162.53315" y="56.263113" style="stroke: #000000; stroke-linejoin: miter"/>
    </g>
   </g>
   <g id="line2d_17">
    <path d="M 51.279555 140.164355 
L 63.641065 140.164355 
L 76.002576 140.164355 
L 88.364086 140.164355 
L 100.725597 140.164355 
L 113.087108 140.164355 
L 125.448618 140.164355 
L 137.810129 140.164355 
L 150.171639 140.164355 
L 162.53315 140.164355 
" clip-path="url(#pb460cb9079)" style="fill: none; stroke: #008000; stroke-width: 1.5; stroke-linecap: square"/>
    <defs>
     <path id="m6a04925258" d="M -3 3 
L 3 3 
L 3 -3 
L -3 -3 
z
" style="stroke: #008000; stroke-linejoin: miter"/>
    </defs>
    <g clip-path="url(#pb460cb9079)">
     <use xlink:href="#m6a04925258" x="51.279555" y="140.164355" style="fill: #008000; stroke: #008000; stroke-linejoin: miter"/>
     <use xlink:href="#m6a04925258" x="63.641065" y="140.164355" style="fill: #008000; stroke: #008000; stroke-linejoin: miter"/>
     <use xlink:href="#m6a04925258" x="76.002576" y="140.164355" style="fill: #008000; stroke: #008000; stroke-linejoin: miter"/>
     <use xlink:href="#m6a04925258" x="88.364086" y="140.164355" style="fill: #008000; stroke: #008000; stroke-linejoin: miter"/>
     <use xlink:href="#m6a04925258" x="100.725597" y="140.164355" style="fill: #008000; stroke: #008000; stroke-linejoin: miter"/>
     <use xlink:href="#m6a04925258" x="113.087108" y="140.164355" style="fill: #008000; stroke: #008000; stroke-linejoin: miter"/>
     <use xlink:href="#m6a04925258" x="125.448618" y="140.164355" style="fill: #008000; stroke: #008000; stroke-linejoin: miter"/>
     <use xlink:href="#m6a04925258" x="137.810129" y="140.164355" style="fill: #008000; stroke: #008000; stroke-linejoin: miter"/>
     <use xlink:href="#m6a04925258" x="150.171639" y="140.164355" style="fill: #008000; stroke: #008000; stroke-linejoin: miter"/>
     <use xlink:href="#m6a04925258" x="162.53315" y="140.164355" style="fill: #008000; stroke: #008000; stroke-linejoin: miter"/>
    </g>
   </g>
   <g id="line2d_18">
    <path d="M 51.279555 14.413092 
L 63.641065 14.413092 
L 76.002576 14.413092 
L 88.364086 14.413092 
L 100.725597 14.413092 
L 113.087108 14.413092 
L 125.448618 14.413092 
L 137.810129 14.413092 
L 150.171639 14.413092 
L 162.53315 14.413092 
" clip-path="url(#pb460cb9079)" style="fill: none; stroke: #bfbf00; stroke-width: 1.5; stroke-linecap: square"/>
    <defs>
     <path id="m1ed7b5850e" d="M 0 -3 
L -0.673542 -0.927051 
L -2.85317 -0.927051 
L -1.089814 0.354102 
L -1.763356 2.427051 
L -0 1.145898 
L 1.763356 2.427051 
L 1.089814 0.354102 
L 2.85317 -0.927051 
L 0.673542 -0.927051 
z
" style="stroke: #bfbf00; stroke-linejoin: bevel"/>
    </defs>
    <g clip-path="url(#pb460cb9079)">
     <use xlink:href="#m1ed7b5850e" x="51.279555" y="14.413092" style="fill: #bfbf00; stroke: #bfbf00; stroke-linejoin: bevel"/>
     <use xlink:href="#m1ed7b5850e" x="63.641065" y="14.413092" style="fill: #bfbf00; stroke: #bfbf00; stroke-linejoin: bevel"/>
     <use xlink:href="#m1ed7b5850e" x="76.002576" y="14.413092" style="fill: #bfbf00; stroke: #bfbf00; stroke-linejoin: bevel"/>
     <use xlink:href="#m1ed7b5850e" x="88.364086" y="14.413092" style="fill: #bfbf00; stroke: #bfbf00; stroke-linejoin: bevel"/>
     <use xlink:href="#m1ed7b5850e" x="100.725597" y="14.413092" style="fill: #bfbf00; stroke: #bfbf00; stroke-linejoin: bevel"/>
     <use xlink:href="#m1ed7b5850e" x="113.087108" y="14.413092" style="fill: #bfbf00; stroke: #bfbf00; stroke-linejoin: bevel"/>
     <use xlink:href="#m1ed7b5850e" x="125.448618" y="14.413092" style="fill: #bfbf00; stroke: #bfbf00; stroke-linejoin: bevel"/>
     <use xlink:href="#m1ed7b5850e" x="137.810129" y="14.413092" style="fill: #bfbf00; stroke: #bfbf00; stroke-linejoin: bevel"/>
     <use xlink:href="#m1ed7b5850e" x="150.171639" y="14.413092" style="fill: #bfbf00; stroke: #bfbf00; stroke-linejoin: bevel"/>
     <use xlink:href="#m1ed7b5850e" x="162.53315" y="14.413092" style="fill: #bfbf00; stroke: #bfbf00; stroke-linejoin: bevel"/>
    </g>
   </g>
   <g id="line2d_19">
    <path d="M 51.279555 77.288724 
L 63.641065 77.288724 
L 76.002576 77.288724 
L 88.364086 77.288724 
L 100.725597 77.288724 
L 113.087108 77.288724 
L 125.448618 77.288724 
L 137.810129 77.288724 
L 150.171639 77.288724 
L 162.53315 77.288724 
" clip-path="url(#pb460cb9079)" style="fill: none; stroke: #bf00bf; stroke-width: 1.5; stroke-linecap: square"/>
    <defs>
     <path id="m03590a60d0" d="M -0 4.242641 
L 2.545584 0 
L 0 -4.242641 
L -2.545584 -0 
z
" style="stroke: #bf00bf; stroke-linejoin: miter"/>
    </defs>
    <g clip-path="url(#pb460cb9079)">
     <use xlink:href="#m03590a60d0" x="51.279555" y="77.288724" style="fill: #bf00bf; stroke: #bf00bf; stroke-linejoin: miter"/>
     <use xlink:href="#m03590a60d0" x="63.641065" y="77.288724" style="fill: #bf00bf; stroke: #bf00bf; stroke-linejoin: miter"/>
     <use xlink:href="#m03590a60d0" x="76.002576" y="77.288724" style="fill: #bf00bf; stroke: #bf00bf; stroke-linejoin: miter"/>
     <use xlink:href="#m03590a60d0" x="88.364086" y="77.288724" style="fill: #bf00bf; stroke: #bf00bf; stroke-linejoin: miter"/>
     <use xlink:href="#m03590a60d0" x="100.725597" y="77.288724" style="fill: #bf00bf; stroke: #bf00bf; stroke-linejoin: miter"/>
     <use xlink:href="#m03590a60d0" x="113.087108" y="77.288724" style="fill: #bf00bf; stroke: #bf00bf; stroke-linejoin: miter"/>
     <use xlink:href="#m03590a60d0" x="125.448618" y="77.288724" style="fill: #bf00bf; stroke: #bf00bf; stroke-linejoin: miter"/>
     <use xlink:href="#m03590a60d0" x="137.810129" y="77.288724" style="fill: #bf00bf; stroke: #bf00bf; stroke-linejoin: miter"/>
     <use xlink:href="#m03590a60d0" x="150.171639" y="77.288724" style="fill: #bf00bf; stroke: #bf00bf; stroke-linejoin: miter"/>
     <use xlink:href="#m03590a60d0" x="162.53315" y="77.288724" style="fill: #bf00bf; stroke: #bf00bf; stroke-linejoin: miter"/>
    </g>
   </g>
   <g id="line2d_20">
    <path d="M 51.279555 63.707587 
L 63.641065 63.707587 
L 76.002576 63.707587 
L 88.364086 63.707587 
L 100.725597 63.707587 
L 113.087108 63.707587 
L 125.448618 63.707587 
L 137.810129 63.707587 
L 150.171639 63.707587 
L 162.53315 63.707587 
" clip-path="url(#pb460cb9079)" style="fill: none; stroke: #00bfbf; stroke-width: 1.5; stroke-linecap: square"/>
    <defs>
     <path id="m6b30d527a1" d="M -1.5 3 
L 0 1.5 
L 1.5 3 
L 3 1.5 
L 1.5 0 
L 3 -1.5 
L 1.5 -3 
L 0 -1.5 
L -1.5 -3 
L -3 -1.5 
L -1.5 0 
L -3 1.5 
z
" style="stroke: #00bfbf; stroke-linejoin: miter"/>
    </defs>
    <g clip-path="url(#pb460cb9079)">
     <use xlink:href="#m6b30d527a1" x="51.279555" y="63.707587" style="fill: #00bfbf; stroke: #00bfbf; stroke-linejoin: miter"/>
     <use xlink:href="#m6b30d527a1" x="63.641065" y="63.707587" style="fill: #00bfbf; stroke: #00bfbf; stroke-linejoin: miter"/>
     <use xlink:href="#m6b30d527a1" x="76.002576" y="63.707587" style="fill: #00bfbf; stroke: #00bfbf; stroke-linejoin: miter"/>
     <use xlink:href="#m6b30d527a1" x="88.364086" y="63.707587" style="fill: #00bfbf; stroke: #00bfbf; stroke-linejoin: miter"/>
     <use xlink:href="#m6b30d527a1" x="100.725597" y="63.707587" style="fill: #00bfbf; stroke: #00bfbf; stroke-linejoin: miter"/>
     <use xlink:href="#m6b30d527a1" x="113.087108" y="63.707587" style="fill: #00bfbf; stroke: #00bfbf; stroke-linejoin: miter"/>
     <use xlink:href="#m6b30d527a1" x="125.448618" y="63.707587" style="fill: #00bfbf; stroke: #00bfbf; stroke-linejoin: miter"/>
     <use xlink:href="#m6b30d527a1" x="137.810129" y="63.707587" style="fill: #00bfbf; stroke: #00bfbf; stroke-linejoin: miter"/>
     <use xlink:href="#m6b30d527a1" x="150.171639" y="63.707587" style="fill: #00bfbf; stroke: #00bfbf; stroke-linejoin: miter"/>
     <use xlink:href="#m6b30d527a1" x="162.53315" y="63.707587" style="fill: #00bfbf; stroke: #00bfbf; stroke-linejoin: miter"/>
    </g>
   </g>
   <g id="line2d_21">
    <path d="M 51.279555 77.389325 
L 63.641065 77.389325 
L 76.002576 77.389325 
L 88.364086 77.389325 
L 100.725597 77.389325 
L 113.087108 77.389325 
L 125.448618 77.389325 
L 137.810129 77.389325 
L 150.171639 77.389325 
L 162.53315 77.389325 
" clip-path="url(#pb460cb9079)" style="fill: none; stroke: #0000ff; stroke-width: 1.5; stroke-linecap: square"/>
    <defs>
     <path id="mc50c233ec5" d="M 0 3 
C 0.795609 3 1.55874 2.683901 2.12132 2.12132 
C 2.683901 1.55874 3 0.795609 3 0 
C 3 -0.795609 2.683901 -1.55874 2.12132 -2.12132 
C 1.55874 -2.683901 0.795609 -3 0 -3 
C -0.795609 -3 -1.55874 -2.683901 -2.12132 -2.12132 
C -2.683901 -1.55874 -3 -0.795609 -3 0 
C -3 0.795609 -2.683901 1.55874 -2.12132 2.12132 
C -1.55874 2.683901 -0.795609 3 0 3 
z
" style="stroke: #0000ff"/>
    </defs>
    <g clip-path="url(#pb460cb9079)">
     <use xlink:href="#mc50c233ec5" x="51.279555" y="77.389325" style="fill: #0000ff; stroke: #0000ff"/>
     <use xlink:href="#mc50c233ec5" x="63.641065" y="77.389325" style="fill: #0000ff; stroke: #0000ff"/>
     <use xlink:href="#mc50c233ec5" x="76.002576" y="77.389325" style="fill: #0000ff; stroke: #0000ff"/>
     <use xlink:href="#mc50c233ec5" x="88.364086" y="77.389325" style="fill: #0000ff; stroke: #0000ff"/>
     <use xlink:href="#mc50c233ec5" x="100.725597" y="77.389325" style="fill: #0000ff; stroke: #0000ff"/>
     <use xlink:href="#mc50c233ec5" x="113.087108" y="77.389325" style="fill: #0000ff; stroke: #0000ff"/>
     <use xlink:href="#mc50c233ec5" x="125.448618" y="77.389325" style="fill: #0000ff; stroke: #0000ff"/>
     <use xlink:href="#mc50c233ec5" x="137.810129" y="77.389325" style="fill: #0000ff; stroke: #0000ff"/>
     <use xlink:href="#mc50c233ec5" x="150.171639" y="77.389325" style="fill: #0000ff; stroke: #0000ff"/>
     <use xlink:href="#mc50c233ec5" x="162.53315" y="77.389325" style="fill: #0000ff; stroke: #0000ff"/>
    </g>
   </g>
   <g id="patch_3">
    <path d="M 45.716875 165.888033 
L 45.716875 7.2 
" style="fill: none; stroke: #000000; stroke-width: 0.8; stroke-linejoin: miter; stroke-linecap: square"/>
   </g>
   <g id="patch_4">
    <path d="M 168.09583 165.888033 
L 168.09583 7.2 
" style="fill: none; stroke: #000000; stroke-width: 0.8; stroke-linejoin: miter; stroke-linecap: square"/>
   </g>
   <g id="patch_5">
    <path d="M 45.716875 165.888033 
L 168.09583 165.888033 
" style="fill: none; stroke: #000000; stroke-width: 0.8; stroke-linejoin: miter; stroke-linecap: square"/>
   </g>
   <g id="patch_6">
    <path d="M 45.716875 7.2 
L 168.09583 7.2 
" style="fill: none; stroke: #000000; stroke-width: 0.8; stroke-linejoin: miter; stroke-linecap: square"/>
   </g>
   <g id="legend_1">
    <g id="patch_7">
     <path d="M 180.045777 96.278386 
L 225.522371 96.278386 
Q 227.188371 96.278386 227.188371 94.612386 
L 227.188371 9.857239 
Q 227.188371 8.191239 225.522371 8.191239 
L 180.045777 8.191239 
Q 178.379777 8.191239 178.379777 9.857239 
L 178.379777 94.612386 
Q 178.379777 96.278386 180.045777 96.278386 
z
" style="fill: #ffffff; opacity: 0.8; stroke: #cccccc; stroke-linejoin: miter"/>
    </g>
    <g id="line2d_22">
     <path d="M 181.711777 14.937238 
L 190.041777 14.937238 
L 198.371777 14.937238 
" style="fill: none; stroke: #ff0000; stroke-width: 1.5; stroke-linecap: square"/>
     <g>
      <use xlink:href="#m3c87c10a57" x="190.041777" y="14.937238" style="fill: #ff0000; stroke: #ff0000; stroke-linejoin: miter"/>
     </g>
    </g>
    <g id="text_17">
     <!-- MCC -->
     <g transform="translate(205.035777 17.852738) scale(0.0833 -0.0833)">
      <defs>
       <path id="DejaVuSans-4d" d="M 628 4666 
L 1569 4666 
L 2759 1491 
L 3956 4666 
L 4897 4666 
L 4897 0 
L 4281 0 
L 4281 4097 
L 3078 897 
L 2444 897 
L 1241 4097 
L 1241 0 
L 628 0 
L 628 4666 
z
" transform="scale(0.015625)"/>
       <path id="DejaVuSans-43" d="M 4122 4306 
L 4122 3641 
Q 3803 3938 3442 4084 
Q 3081 4231 2675 4231 
Q 1875 4231 1450 3742 
Q 1025 3253 1025 2328 
Q 1025 1406 1450 917 
Q 1875 428 2675 428 
Q 3081 428 3442 575 
Q 3803 722 4122 1019 
L 4122 359 
Q 3791 134 3420 21 
Q 3050 -91 2638 -91 
Q 1578 -91 968 557 
Q 359 1206 359 2328 
Q 359 3453 968 4101 
Q 1578 4750 2638 4750 
Q 3056 4750 3426 4639 
Q 3797 4528 4122 4306 
z
" transform="scale(0.015625)"/>
      </defs>
      <use xlink:href="#DejaVuSans-4d"/>
      <use xlink:href="#DejaVuSans-43" x="86.279297"/>
      <use xlink:href="#DejaVuSans-43" x="156.103516"/>
     </g>
    </g>
    <g id="line2d_23">
     <path d="M 181.711777 27.164116 
L 190.041777 27.164116 
L 198.371777 27.164116 
" style="fill: none; stroke: #000000; stroke-width: 1.5; stroke-linecap: square"/>
     <g>
      <use xlink:href="#m3f7aa6f73b" x="190.041777" y="27.164116" style="stroke: #000000; stroke-linejoin: miter"/>
     </g>
    </g>
    <g id="text_18">
     <!-- ACC -->
     <g transform="translate(205.035777 30.079616) scale(0.0833 -0.0833)">
      <defs>
       <path id="DejaVuSans-41" d="M 2188 4044 
L 1331 1722 
L 3047 1722 
L 2188 4044 
z
M 1831 4666 
L 2547 4666 
L 4325 0 
L 3669 0 
L 3244 1197 
L 1141 1197 
L 716 0 
L 50 0 
L 1831 4666 
z
" transform="scale(0.015625)"/>
      </defs>
      <use xlink:href="#DejaVuSans-41"/>
      <use xlink:href="#DejaVuSans-43" x="66.658203"/>
      <use xlink:href="#DejaVuSans-43" x="136.482422"/>
     </g>
    </g>
    <g id="line2d_24">
     <path d="M 181.711777 39.390994 
L 190.041777 39.390994 
L 198.371777 39.390994 
" style="fill: none; stroke: #008000; stroke-width: 1.5; stroke-linecap: square"/>
     <g>
      <use xlink:href="#m6a04925258" x="190.041777" y="39.390994" style="fill: #008000; stroke: #008000; stroke-linejoin: miter"/>
     </g>
    </g>
    <g id="text_19">
     <!-- Sen -->
     <g transform="translate(205.035777 42.306494) scale(0.0833 -0.0833)">
      <defs>
       <path id="DejaVuSans-53" d="M 3425 4513 
L 3425 3897 
Q 3066 4069 2747 4153 
Q 2428 4238 2131 4238 
Q 1616 4238 1336 4038 
Q 1056 3838 1056 3469 
Q 1056 3159 1242 3001 
Q 1428 2844 1947 2747 
L 2328 2669 
Q 3034 2534 3370 2195 
Q 3706 1856 3706 1288 
Q 3706 609 3251 259 
Q 2797 -91 1919 -91 
Q 1588 -91 1214 -16 
Q 841 59 441 206 
L 441 856 
Q 825 641 1194 531 
Q 1563 422 1919 422 
Q 2459 422 2753 634 
Q 3047 847 3047 1241 
Q 3047 1584 2836 1778 
Q 2625 1972 2144 2069 
L 1759 2144 
Q 1053 2284 737 2584 
Q 422 2884 422 3419 
Q 422 4038 858 4394 
Q 1294 4750 2059 4750 
Q 2388 4750 2728 4690 
Q 3069 4631 3425 4513 
z
" transform="scale(0.015625)"/>
       <path id="DejaVuSans-65" d="M 3597 1894 
L 3597 1613 
L 953 1613 
Q 991 1019 1311 708 
Q 1631 397 2203 397 
Q 2534 397 2845 478 
Q 3156 559 3463 722 
L 3463 178 
Q 3153 47 2828 -22 
Q 2503 -91 2169 -91 
Q 1331 -91 842 396 
Q 353 884 353 1716 
Q 353 2575 817 3079 
Q 1281 3584 2069 3584 
Q 2775 3584 3186 3129 
Q 3597 2675 3597 1894 
z
M 3022 2063 
Q 3016 2534 2758 2815 
Q 2500 3097 2075 3097 
Q 1594 3097 1305 2825 
Q 1016 2553 972 2059 
L 3022 2063 
z
" transform="scale(0.015625)"/>
       <path id="DejaVuSans-6e" d="M 3513 2113 
L 3513 0 
L 2938 0 
L 2938 2094 
Q 2938 2591 2744 2837 
Q 2550 3084 2163 3084 
Q 1697 3084 1428 2787 
Q 1159 2491 1159 1978 
L 1159 0 
L 581 0 
L 581 3500 
L 1159 3500 
L 1159 2956 
Q 1366 3272 1645 3428 
Q 1925 3584 2291 3584 
Q 2894 3584 3203 3211 
Q 3513 2838 3513 2113 
z
" transform="scale(0.015625)"/>
      </defs>
      <use xlink:href="#DejaVuSans-53"/>
      <use xlink:href="#DejaVuSans-65" x="63.476562"/>
      <use xlink:href="#DejaVuSans-6e" x="125"/>
     </g>
    </g>
    <g id="line2d_25">
     <path d="M 181.711777 51.617872 
L 190.041777 51.617872 
L 198.371777 51.617872 
" style="fill: none; stroke: #bfbf00; stroke-width: 1.5; stroke-linecap: square"/>
     <g>
      <use xlink:href="#m1ed7b5850e" x="190.041777" y="51.617872" style="fill: #bfbf00; stroke: #bfbf00; stroke-linejoin: bevel"/>
     </g>
    </g>
    <g id="text_20">
     <!-- Spe -->
     <g transform="translate(205.035777 54.533372) scale(0.0833 -0.0833)">
      <defs>
       <path id="DejaVuSans-70" d="M 1159 525 
L 1159 -1331 
L 581 -1331 
L 581 3500 
L 1159 3500 
L 1159 2969 
Q 1341 3281 1617 3432 
Q 1894 3584 2278 3584 
Q 2916 3584 3314 3078 
Q 3713 2572 3713 1747 
Q 3713 922 3314 415 
Q 2916 -91 2278 -91 
Q 1894 -91 1617 61 
Q 1341 213 1159 525 
z
M 3116 1747 
Q 3116 2381 2855 2742 
Q 2594 3103 2138 3103 
Q 1681 3103 1420 2742 
Q 1159 2381 1159 1747 
Q 1159 1113 1420 752 
Q 1681 391 2138 391 
Q 2594 391 2855 752 
Q 3116 1113 3116 1747 
z
" transform="scale(0.015625)"/>
      </defs>
      <use xlink:href="#DejaVuSans-53"/>
      <use xlink:href="#DejaVuSans-70" x="63.476562"/>
      <use xlink:href="#DejaVuSans-65" x="126.953125"/>
     </g>
    </g>
    <g id="line2d_26">
     <path d="M 181.711777 63.84475 
L 190.041777 63.84475 
L 198.371777 63.84475 
" style="fill: none; stroke: #bf00bf; stroke-width: 1.5; stroke-linecap: square"/>
     <g>
      <use xlink:href="#m03590a60d0" x="190.041777" y="63.84475" style="fill: #bf00bf; stroke: #bf00bf; stroke-linejoin: miter"/>
     </g>
    </g>
    <g id="text_21">
     <!-- AUC -->
     <g transform="translate(205.035777 66.76025) scale(0.0833 -0.0833)">
      <defs>
       <path id="DejaVuSans-55" d="M 556 4666 
L 1191 4666 
L 1191 1831 
Q 1191 1081 1462 751 
Q 1734 422 2344 422 
Q 2950 422 3222 751 
Q 3494 1081 3494 1831 
L 3494 4666 
L 4128 4666 
L 4128 1753 
Q 4128 841 3676 375 
Q 3225 -91 2344 -91 
Q 1459 -91 1007 375 
Q 556 841 556 1753 
L 556 4666 
z
" transform="scale(0.015625)"/>
      </defs>
      <use xlink:href="#DejaVuSans-41"/>
      <use xlink:href="#DejaVuSans-55" x="68.408203"/>
      <use xlink:href="#DejaVuSans-43" x="141.601562"/>
     </g>
    </g>
    <g id="line2d_27">
     <path d="M 181.711777 76.071628 
L 190.041777 76.071628 
L 198.371777 76.071628 
" style="fill: none; stroke: #00bfbf; stroke-width: 1.5; stroke-linecap: square"/>
     <g>
      <use xlink:href="#m6b30d527a1" x="190.041777" y="76.071628" style="fill: #00bfbf; stroke: #00bfbf; stroke-linejoin: miter"/>
     </g>
    </g>
    <g id="text_22">
     <!-- F1 -->
     <g transform="translate(205.035777 78.987128) scale(0.0833 -0.0833)">
      <defs>
       <path id="DejaVuSans-46" d="M 628 4666 
L 3309 4666 
L 3309 4134 
L 1259 4134 
L 1259 2759 
L 3109 2759 
L 3109 2228 
L 1259 2228 
L 1259 0 
L 628 0 
L 628 4666 
z
" transform="scale(0.015625)"/>
      </defs>
      <use xlink:href="#DejaVuSans-46"/>
      <use xlink:href="#DejaVuSans-31" x="57.519531"/>
     </g>
    </g>
    <g id="line2d_28">
     <path d="M 181.711777 88.298507 
L 190.041777 88.298507 
L 198.371777 88.298507 
" style="fill: none; stroke: #0000ff; stroke-width: 1.5; stroke-linecap: square"/>
     <g>
      <use xlink:href="#mc50c233ec5" x="190.041777" y="88.298507" style="fill: #0000ff; stroke: #0000ff"/>
     </g>
    </g>
    <g id="text_23">
     <!-- BA -->
     <g transform="translate(205.035777 91.214007) scale(0.0833 -0.0833)">
      <defs>
       <path id="DejaVuSans-42" d="M 1259 2228 
L 1259 519 
L 2272 519 
Q 2781 519 3026 730 
Q 3272 941 3272 1375 
Q 3272 1813 3026 2020 
Q 2781 2228 2272 2228 
L 1259 2228 
z
M 1259 4147 
L 1259 2741 
L 2194 2741 
Q 2656 2741 2882 2914 
Q 3109 3088 3109 3444 
Q 3109 3797 2882 3972 
Q 2656 4147 2194 4147 
L 1259 4147 
z
M 628 4666 
L 2241 4666 
Q 2963 4666 3353 4366 
Q 3744 4066 3744 3513 
Q 3744 3084 3544 2831 
Q 3344 2578 2956 2516 
Q 3422 2416 3680 2098 
Q 3938 1781 3938 1306 
Q 3938 681 3513 340 
Q 3088 0 2303 0 
L 628 0 
L 628 4666 
z
" transform="scale(0.015625)"/>
      </defs>
      <use xlink:href="#DejaVuSans-42"/>
      <use xlink:href="#DejaVuSans-41" x="68.603516"/>
     </g>
    </g>
   </g>
  </g>
  <g id="axes_2">
   <g id="patch_8">
    <path d="M 293.93792 165.888033 
L 416.316875 165.888033 
L 416.316875 7.2 
L 293.93792 7.2 
z
" style="fill: #ffffff"/>
   </g>
   <g id="patch_9">
    <path d="M 299.5006 86.544017 
L 303.089426 86.544017 
L 303.089426 86.544017 
L 299.5006 86.544017 
z
" clip-path="url(#p76ee853302)" style="fill: #008000; opacity: 0.5; stroke: #000000; stroke-linejoin: miter"/>
   </g>
   <g id="patch_10">
    <path d="M 311.463352 86.544017 
L 315.052178 86.544017 
L 315.052178 86.544017 
L 311.463352 86.544017 
z
" clip-path="url(#p76ee853302)" style="fill: #008000; opacity: 0.5; stroke: #000000; stroke-linejoin: miter"/>
   </g>
   <g id="patch_11">
    <path d="M 323.426105 86.544017 
L 327.01493 86.544017 
L 327.01493 86.544017 
L 323.426105 86.544017 
z
" clip-path="url(#p76ee853302)" style="fill: #008000; opacity: 0.5; stroke: #000000; stroke-linejoin: miter"/>
   </g>
   <g id="patch_12">
    <path d="M 335.388857 86.544017 
L 338.977682 86.544017 
L 338.977682 86.544017 
L 335.388857 86.544017 
z
" clip-path="url(#p76ee853302)" style="fill: #008000; opacity: 0.5; stroke: #000000; stroke-linejoin: miter"/>
   </g>
   <g id="patch_13">
    <path d="M 347.351609 86.544017 
L 350.940434 86.544017 
L 350.940434 86.544017 
L 347.351609 86.544017 
z
" clip-path="url(#p76ee853302)" style="fill: #008000; opacity: 0.5; stroke: #000000; stroke-linejoin: miter"/>
   </g>
   <g id="patch_14">
    <path d="M 359.314361 86.544017 
L 362.903187 86.544017 
L 362.903187 86.544017 
L 359.314361 86.544017 
z
" clip-path="url(#p76ee853302)" style="fill: #008000; opacity: 0.5; stroke: #000000; stroke-linejoin: miter"/>
   </g>
   <g id="patch_15">
    <path d="M 371.277113 86.544017 
L 374.865939 86.544017 
L 374.865939 86.544017 
L 371.277113 86.544017 
z
" clip-path="url(#p76ee853302)" style="fill: #008000; opacity: 0.5; stroke: #000000; stroke-linejoin: miter"/>
   </g>
   <g id="patch_16">
    <path d="M 383.239865 86.544017 
L 386.828691 86.544017 
L 386.828691 86.544017 
L 383.239865 86.544017 
z
" clip-path="url(#p76ee853302)" style="fill: #008000; opacity: 0.5; stroke: #000000; stroke-linejoin: miter"/>
   </g>
   <g id="patch_17">
    <path d="M 395.202617 86.544017 
L 398.791443 86.544017 
L 398.791443 86.544017 
L 395.202617 86.544017 
z
" clip-path="url(#p76ee853302)" style="fill: #008000; opacity: 0.5; stroke: #000000; stroke-linejoin: miter"/>
   </g>
   <g id="patch_18">
    <path d="M 407.16537 86.544017 
L 410.754195 86.544017 
L 410.754195 86.544017 
L 407.16537 86.544017 
z
" clip-path="url(#p76ee853302)" style="fill: #008000; opacity: 0.5; stroke: #000000; stroke-linejoin: miter"/>
   </g>
   <g id="matplotlib.axis_3">
    <g id="xtick_11">
     <g id="line2d_29">
      <g>
       <use xlink:href="#m93184b7b1a" x="301.295013" y="165.888033" style="stroke: #000000; stroke-width: 0.8"/>
      </g>
     </g>
     <g id="text_24">
      <!-- 1 -->
      <g transform="translate(298.113763 180.486471) scale(0.1 -0.1)">
       <use xlink:href="#DejaVuSans-31"/>
      </g>
     </g>
    </g>
    <g id="xtick_12">
     <g id="line2d_30">
      <g>
       <use xlink:href="#m93184b7b1a" x="313.257765" y="165.888033" style="stroke: #000000; stroke-width: 0.8"/>
      </g>
     </g>
     <g id="text_25">
      <!-- 2 -->
      <g transform="translate(310.076515 180.486471) scale(0.1 -0.1)">
       <use xlink:href="#DejaVuSans-32"/>
      </g>
     </g>
    </g>
    <g id="xtick_13">
     <g id="line2d_31">
      <g>
       <use xlink:href="#m93184b7b1a" x="325.220517" y="165.888033" style="stroke: #000000; stroke-width: 0.8"/>
      </g>
     </g>
     <g id="text_26">
      <!-- 3 -->
      <g transform="translate(322.039267 180.486471) scale(0.1 -0.1)">
       <use xlink:href="#DejaVuSans-33"/>
      </g>
     </g>
    </g>
    <g id="xtick_14">
     <g id="line2d_32">
      <g>
       <use xlink:href="#m93184b7b1a" x="337.183269" y="165.888033" style="stroke: #000000; stroke-width: 0.8"/>
      </g>
     </g>
     <g id="text_27">
      <!-- 4 -->
      <g transform="translate(334.002019 180.486471) scale(0.1 -0.1)">
       <use xlink:href="#DejaVuSans-34"/>
      </g>
     </g>
    </g>
    <g id="xtick_15">
     <g id="line2d_33">
      <g>
       <use xlink:href="#m93184b7b1a" x="349.146022" y="165.888033" style="stroke: #000000; stroke-width: 0.8"/>
      </g>
     </g>
     <g id="text_28">
      <!-- 5 -->
      <g transform="translate(345.964772 180.486471) scale(0.1 -0.1)">
       <use xlink:href="#DejaVuSans-35"/>
      </g>
     </g>
    </g>
    <g id="xtick_16">
     <g id="line2d_34">
      <g>
       <use xlink:href="#m93184b7b1a" x="361.108774" y="165.888033" style="stroke: #000000; stroke-width: 0.8"/>
      </g>
     </g>
     <g id="text_29">
      <!-- 6 -->
      <g transform="translate(357.927524 180.486471) scale(0.1 -0.1)">
       <use xlink:href="#DejaVuSans-36"/>
      </g>
     </g>
    </g>
    <g id="xtick_17">
     <g id="line2d_35">
      <g>
       <use xlink:href="#m93184b7b1a" x="373.071526" y="165.888033" style="stroke: #000000; stroke-width: 0.8"/>
      </g>
     </g>
     <g id="text_30">
      <!-- 7 -->
      <g transform="translate(369.890276 180.486471) scale(0.1 -0.1)">
       <use xlink:href="#DejaVuSans-37"/>
      </g>
     </g>
    </g>
    <g id="xtick_18">
     <g id="line2d_36">
      <g>
       <use xlink:href="#m93184b7b1a" x="385.034278" y="165.888033" style="stroke: #000000; stroke-width: 0.8"/>
      </g>
     </g>
     <g id="text_31">
      <!-- 8 -->
      <g transform="translate(381.853028 180.486471) scale(0.1 -0.1)">
       <use xlink:href="#DejaVuSans-38"/>
      </g>
     </g>
    </g>
    <g id="xtick_19">
     <g id="line2d_37">
      <g>
       <use xlink:href="#m93184b7b1a" x="396.99703" y="165.888033" style="stroke: #000000; stroke-width: 0.8"/>
      </g>
     </g>
     <g id="text_32">
      <!-- 9 -->
      <g transform="translate(393.81578 180.486471) scale(0.1 -0.1)">
       <use xlink:href="#DejaVuSans-39"/>
      </g>
     </g>
    </g>
    <g id="xtick_20">
     <g id="line2d_38">
      <g>
       <use xlink:href="#m93184b7b1a" x="408.959782" y="165.888033" style="stroke: #000000; stroke-width: 0.8"/>
      </g>
     </g>
     <g id="text_33">
      <!-- 10 -->
      <g transform="translate(402.597282 180.486471) scale(0.1 -0.1)">
       <use xlink:href="#DejaVuSans-31"/>
       <use xlink:href="#DejaVuSans-30" x="63.623047"/>
      </g>
     </g>
    </g>
    <g id="text_34">
     <!-- k -->
     <g transform="translate(351.137398 195.684283) scale(0.12 -0.12)">
      <use xlink:href="#DejaVuSans-BoldOblique-6b"/>
     </g>
    </g>
   </g>
   <g id="matplotlib.axis_4">
    <g id="ytick_5">
     <g id="line2d_39">
      <g>
       <use xlink:href="#m9494031b39" x="293.93792" y="144.248756" style="stroke: #000000; stroke-width: 0.8"/>
      </g>
     </g>
     <g id="text_35">
      <!-- −0.04 -->
      <g transform="translate(256.292608 148.047975) scale(0.1 -0.1)">
       <defs>
        <path id="DejaVuSans-2212" d="M 678 2272 
L 4684 2272 
L 4684 1741 
L 678 1741 
L 678 2272 
z
" transform="scale(0.015625)"/>
       </defs>
       <use xlink:href="#DejaVuSans-2212"/>
       <use xlink:href="#DejaVuSans-30" x="83.789062"/>
       <use xlink:href="#DejaVuSans-2e" x="147.412109"/>
       <use xlink:href="#DejaVuSans-30" x="179.199219"/>
       <use xlink:href="#DejaVuSans-34" x="242.822266"/>
      </g>
     </g>
    </g>
    <g id="ytick_6">
     <g id="line2d_40">
      <g>
       <use xlink:href="#m9494031b39" x="293.93792" y="115.396386" style="stroke: #000000; stroke-width: 0.8"/>
      </g>
     </g>
     <g id="text_36">
      <!-- −0.02 -->
      <g transform="translate(256.292608 119.195605) scale(0.1 -0.1)">
       <use xlink:href="#DejaVuSans-2212"/>
       <use xlink:href="#DejaVuSans-30" x="83.789062"/>
       <use xlink:href="#DejaVuSans-2e" x="147.412109"/>
       <use xlink:href="#DejaVuSans-30" x="179.199219"/>
       <use xlink:href="#DejaVuSans-32" x="242.822266"/>
      </g>
     </g>
    </g>
    <g id="ytick_7">
     <g id="line2d_41">
      <g>
       <use xlink:href="#m9494031b39" x="293.93792" y="86.544017" style="stroke: #000000; stroke-width: 0.8"/>
      </g>
     </g>
     <g id="text_37">
      <!-- 0.00 -->
      <g transform="translate(264.672295 90.343235) scale(0.1 -0.1)">
       <use xlink:href="#DejaVuSans-30"/>
       <use xlink:href="#DejaVuSans-2e" x="63.623047"/>
       <use xlink:href="#DejaVuSans-30" x="95.410156"/>
       <use xlink:href="#DejaVuSans-30" x="159.033203"/>
      </g>
     </g>
    </g>
    <g id="ytick_8">
     <g id="line2d_42">
      <g>
       <use xlink:href="#m9494031b39" x="293.93792" y="57.691647" style="stroke: #000000; stroke-width: 0.8"/>
      </g>
     </g>
     <g id="text_38">
      <!-- 0.02 -->
      <g transform="translate(264.672295 61.490866) scale(0.1 -0.1)">
       <use xlink:href="#DejaVuSans-30"/>
       <use xlink:href="#DejaVuSans-2e" x="63.623047"/>
       <use xlink:href="#DejaVuSans-30" x="95.410156"/>
       <use xlink:href="#DejaVuSans-32" x="159.033203"/>
      </g>
     </g>
    </g>
    <g id="ytick_9">
     <g id="line2d_43">
      <g>
       <use xlink:href="#m9494031b39" x="293.93792" y="28.839277" style="stroke: #000000; stroke-width: 0.8"/>
      </g>
     </g>
     <g id="text_39">
      <!-- 0.04 -->
      <g transform="translate(264.672295 32.638496) scale(0.1 -0.1)">
       <use xlink:href="#DejaVuSans-30"/>
       <use xlink:href="#DejaVuSans-2e" x="63.623047"/>
       <use xlink:href="#DejaVuSans-30" x="95.410156"/>
       <use xlink:href="#DejaVuSans-34" x="159.033203"/>
      </g>
     </g>
    </g>
    <g id="text_40">
     <!-- Removed compounds -->
     <g transform="translate(249.796983 158.428704) rotate(-90) scale(0.12 -0.12)">
      <defs>
       <path id="DejaVuSans-BoldOblique-52" d="M 2350 2597 
Q 2759 2597 2970 2787 
Q 3181 2978 3181 3347 
Q 3181 3578 3036 3686 
Q 2891 3794 2578 3794 
L 2081 3794 
L 1844 2597 
L 2350 2597 
z
M 1684 1766 
L 1338 0 
L 134 0 
L 1044 4666 
L 2822 4666 
Q 3591 4666 3987 4378 
Q 4384 4091 4384 3531 
Q 4384 2966 4071 2600 
Q 3759 2234 3225 2181 
Q 3469 2131 3631 1932 
Q 3794 1734 3916 1325 
L 4313 0 
L 3116 0 
L 2766 1159 
Q 2659 1506 2507 1636 
Q 2356 1766 2069 1766 
L 1684 1766 
z
" transform="scale(0.015625)"/>
       <path id="DejaVuSans-BoldOblique-6d" d="M 4013 2919 
Q 4272 3241 4601 3412 
Q 4931 3584 5288 3584 
Q 5756 3584 6026 3326 
Q 6297 3069 6297 2619 
Q 6297 2525 6283 2404 
Q 6269 2284 6241 2131 
L 5825 0 
L 4697 0 
L 5050 1825 
L 5059 1872 
Q 5141 2259 5141 2369 
Q 5141 2541 5042 2641 
Q 4944 2741 4775 2741 
Q 4453 2741 4229 2477 
Q 4006 2213 3909 1722 
L 3572 0 
L 2444 0 
L 2803 1825 
Q 2850 2059 2869 2179 
Q 2888 2300 2888 2369 
Q 2888 2544 2791 2642 
Q 2694 2741 2522 2741 
Q 2213 2741 1980 2467 
Q 1747 2194 1656 1722 
L 1319 0 
L 197 0 
L 878 3500 
L 2003 3500 
L 1900 2988 
Q 2163 3284 2459 3434 
Q 2756 3584 3078 3584 
Q 3441 3584 3700 3398 
Q 3959 3213 4013 2919 
z
" transform="scale(0.015625)"/>
       <path id="DejaVuSans-BoldOblique-76" d="M 403 3500 
L 1434 3500 
L 1888 1056 
L 3206 3500 
L 4341 3500 
L 2284 0 
L 1100 0 
L 403 3500 
z
" transform="scale(0.015625)"/>
       <path id="DejaVuSans-BoldOblique-64" d="M 1966 722 
Q 2397 722 2667 1119 
Q 2938 1516 2938 2156 
Q 2938 2447 2786 2609 
Q 2634 2772 2363 2772 
Q 1938 2772 1663 2380 
Q 1388 1988 1388 1375 
Q 1388 1056 1536 889 
Q 1684 722 1966 722 
z
M 3144 2988 
L 3506 4863 
L 4634 4863 
L 3688 0 
L 2559 0 
L 2663 506 
Q 2406 200 2125 54 
Q 1844 -91 1509 -91 
Q 919 -91 575 284 
Q 231 659 231 1306 
Q 231 1709 351 2090 
Q 472 2472 697 2784 
Q 981 3178 1339 3381 
Q 1697 3584 2106 3584 
Q 2466 3584 2717 3439 
Q 2969 3294 3144 2988 
z
" transform="scale(0.015625)"/>
       <path id="DejaVuSans-BoldOblique-20" transform="scale(0.015625)"/>
       <path id="DejaVuSans-BoldOblique-70" d="M 1422 506 
L 1063 -1331 
L -63 -1331 
L 878 3500 
L 2003 3500 
L 1900 2988 
Q 2156 3294 2437 3439 
Q 2719 3584 3053 3584 
Q 3644 3584 3987 3209 
Q 4331 2834 4331 2188 
Q 4331 1784 4211 1403 
Q 4091 1022 3866 709 
Q 3581 316 3223 112 
Q 2866 -91 2456 -91 
Q 2097 -91 1845 54 
Q 1594 200 1422 506 
z
M 2597 2772 
Q 2166 2772 1892 2373 
Q 1619 1975 1619 1338 
Q 1619 1050 1773 886 
Q 1928 722 2203 722 
Q 2625 722 2900 1114 
Q 3175 1506 3175 2119 
Q 3175 2438 3026 2605 
Q 2878 2772 2597 2772 
z
" transform="scale(0.015625)"/>
       <path id="DejaVuSans-BoldOblique-75" d="M 434 1363 
L 844 3500 
L 1966 3500 
L 1613 1678 
Q 1575 1500 1556 1375 
Q 1538 1250 1538 1178 
Q 1538 981 1647 872 
Q 1756 763 1959 763 
Q 2306 763 2556 1031 
Q 2806 1300 2900 1778 
L 3238 3500 
L 4359 3500 
L 3681 0 
L 2553 0 
L 2656 513 
Q 2369 209 2053 59 
Q 1738 -91 1388 -91 
Q 909 -91 646 162 
Q 384 416 384 878 
Q 384 988 396 1109 
Q 409 1231 434 1363 
z
" transform="scale(0.015625)"/>
       <path id="DejaVuSans-BoldOblique-6e" d="M 4128 2131 
L 3713 0 
L 2591 0 
L 2944 1825 
Q 2981 2003 3001 2126 
Q 3022 2250 3022 2322 
Q 3022 2522 2911 2631 
Q 2800 2741 2597 2741 
Q 2250 2741 2001 2470 
Q 1753 2200 1656 1722 
L 1319 0 
L 197 0 
L 878 3500 
L 2003 3500 
L 1900 2988 
Q 2209 3291 2521 3437 
Q 2834 3584 3175 3584 
Q 3659 3584 3921 3331 
Q 4184 3078 4184 2619 
Q 4184 2519 4170 2397 
Q 4156 2275 4128 2131 
z
" transform="scale(0.015625)"/>
      </defs>
      <use xlink:href="#DejaVuSans-BoldOblique-52"/>
      <use xlink:href="#DejaVuSans-BoldOblique-65" x="72.001953"/>
      <use xlink:href="#DejaVuSans-BoldOblique-6d" x="139.824219"/>
      <use xlink:href="#DejaVuSans-BoldOblique-6f" x="244.023438"/>
      <use xlink:href="#DejaVuSans-BoldOblique-76" x="312.724609"/>
      <use xlink:href="#DejaVuSans-BoldOblique-65" x="377.910156"/>
      <use xlink:href="#DejaVuSans-BoldOblique-64" x="445.732422"/>
      <use xlink:href="#DejaVuSans-BoldOblique-20" x="517.314453"/>
      <use xlink:href="#DejaVuSans-BoldOblique-63" x="552.128906"/>
      <use xlink:href="#DejaVuSans-BoldOblique-6f" x="611.40625"/>
      <use xlink:href="#DejaVuSans-BoldOblique-6d" x="680.107422"/>
      <use xlink:href="#DejaVuSans-BoldOblique-70" x="784.306641"/>
      <use xlink:href="#DejaVuSans-BoldOblique-6f" x="855.888672"/>
      <use xlink:href="#DejaVuSans-BoldOblique-75" x="924.589844"/>
      <use xlink:href="#DejaVuSans-BoldOblique-6e" x="995.78125"/>
      <use xlink:href="#DejaVuSans-BoldOblique-64" x="1066.972656"/>
      <use xlink:href="#DejaVuSans-BoldOblique-73" x="1138.554688"/>
     </g>
    </g>
   </g>
   <g id="patch_19">
    <path d="M 293.93792 165.888033 
L 293.93792 7.2 
" style="fill: none; stroke: #000000; stroke-width: 0.8; stroke-linejoin: miter; stroke-linecap: square"/>
   </g>
   <g id="patch_20">
    <path d="M 416.316875 165.888033 
L 416.316875 7.2 
" style="fill: none; stroke: #000000; stroke-width: 0.8; stroke-linejoin: miter; stroke-linecap: square"/>
   </g>
   <g id="patch_21">
    <path d="M 293.93792 165.888033 
L 416.316875 165.888033 
" style="fill: none; stroke: #000000; stroke-width: 0.8; stroke-linejoin: miter; stroke-linecap: square"/>
   </g>
   <g id="patch_22">
    <path d="M 293.93792 7.2 
L 416.316875 7.2 
" style="fill: none; stroke: #000000; stroke-width: 0.8; stroke-linejoin: miter; stroke-linecap: square"/>
   </g>
  </g>
 </g>
 <defs>
  <clipPath id="pb460cb9079">
   <rect x="45.716875" y="7.2" width="122.378955" height="158.688033"/>
  </clipPath>
  <clipPath id="p76ee853302">
   <rect x="293.93792" y="7.2" width="122.378955" height="158.688033"/>
  </clipPath>
 </defs>
</svg>
