<svg width="900" height="900" viewBox="-450,-450,900,900"><g font-size="10" font-family="sans-serif"><g><path fill="#ff9896" fill-opacity="0.8" d="M1.8982025386783973e-14,-310A310,310,0,0,1,83.52788221696959,-298.53491067603477L80.83343440351895,-288.9047522671304A300,300,0,0,0,1.8369701987210297e-14,-300Z"></path><text dy="0.35em" transform="
        rotate(-82.18438460665807)
        translate(315)
        
      ">10-nitrooleic acid</text><title>10-nitrooleic acid
        0 outgoing →
        1.1428571428571428 incoming ←</title></g><g><path fill="#ff7f0e" fill-opacity="0.8" d="M93.43080311798883,-295.5853261390484A310,310,0,0,1,174.47736813467316,-256.23748361392745L168.84906593678048,-247.97175833605883A300,300,0,0,0,90.416906243215,-286.0503156184339Z"></path><text dy="0.35em" transform="
        rotate(-64.10357836734218)
        translate(315)
        
      ">Aramchol</text><title>Aramchol
        0 outgoing →
        1.2217784317847382 incoming ←</title></g><g><path fill="#2ca02c" fill-opacity="0.8" d="M182.92011306713445,-250.28030732661875A310,310,0,0,1,213.66512998455227,-224.60456858373203L206.7727064366635,-217.35925991974068A300,300,0,0,0,177.01946425851722,-242.2067490257601Z"></path><text dy="0.35em" transform="
        rotate(-50.134111475565525)
        translate(315)
        
      ">BPA</text><title>BPA
        0 outgoing →
        0.5416666666666666 incoming ←</title></g><g><path fill="#7f7f7f" fill-opacity="0.8" d="M221.0318707070181,-217.35894766895618A310,310,0,0,1,242.18836562071218,-193.5065775573746L234.3758376974634,-187.2644298942335A300,300,0,0,0,213.90181036163042,-210.34736871189307Z"></path><text dy="0.35em" transform="
        rotate(-41.57227634146433)
        translate(315)
        
      ">Bavachinin</text><title>Bavachinin
        0.43103448275862066 outgoing →
        0 incoming ←</title></g><g><path fill="#1f77b4" fill-opacity="0.8" d="M248.50285381971287,-185.32763324301752A310,310,0,0,1,305.7198246208054,-51.33603835342181L295.8578947943278,-49.680037116214656A300,300,0,0,0,240.4866327287544,-179.34932249324277Z"></path><text dy="0.35em" transform="
        rotate(-23.12340794692109)
        translate(315)
        
      ">Cholic acid</text><title>Cholic acid
        1.9874218650338054 outgoing →
        0 incoming ←</title></g><g><path fill="#9edae5" fill-opacity="0.8" d="M307.2608804064661,-41.11874720663754A310,310,0,0,1,309.8674488646567,-9.064443397660028L299.87172470773226,-8.77204199773551A300,300,0,0,0,297.34923910303166,-39.792336006423426Z"></path><text dy="0.35em" transform="
        rotate(-4.648907380454403)
        translate(315)
        
      ">Chrysin</text><title>Chrysin
        0 outgoing →
        0.43478260869565216 incoming ←</title></g><g><path fill="#f7b6d2" fill-opacity="0.8" d="M309.9974083840568,1.2675942443538495A310,310,0,0,1,280.2329292671245,132.55001076713185L271.1931573552818,128.27420396819213A300,300,0,0,0,299.99749198457107,1.2267041074392093Z"></path><text dy="0.35em" transform="
        rotate(12.774202793621853)
        translate(315)
        
      ">Dihydromyricetin</text><title>Dihydromyricetin
        0 outgoing →
        1.8336797782752374 incoming ←</title></g><g><path fill="#dbdb8d" fill-opacity="0.8" d="M275.65974319341126,141.81574659586494A310,310,0,0,1,234.30994193700715,202.97500119343843L226.75155671323273,196.42742050977913A300,300,0,0,0,266.76749341297864,137.2410450927725Z"></path><text dy="0.35em" transform="
        rotate(34.06264449375307)
        translate(315)
        
      ">Dimethoxycoumarin</text><title>Dimethoxycoumarin
        0 outgoing →
        1 incoming ←</title></g><g><path fill="#17becf" fill-opacity="0.8" d="M227.41520128896235,210.6711328651857A310,310,0,0,1,204.41098806357195,233.05825014119165L197.81708522281156,225.54024207212095A300,300,0,0,0,220.07922705383453,203.87528986953458Z"></path><text dy="0.35em" transform="
        rotate(45.77888916287918)
        translate(315)
        
      ">Epigallocatechin gallate</text><title>Epigallocatechin gallate
        0.4339622641509434 outgoing →
        0 incoming ←</title></g><g><path fill="#8c564b" fill-opacity="0.8" d="M196.53026713132786,239.74122319970112A310,310,0,0,1,161.82014609436285,264.4130108712487L156.60014138164146,255.88355890766A300,300,0,0,0,190.19058109483342,232.00763535454948Z"></path><text dy="0.35em" transform="
        rotate(54.59496764874291)
        translate(315)
        
      ">Exendin</text><title>Exendin
        0.5759162303664922 outgoing →
        0 incoming ←</title></g><g><path fill="#c5b0d5" fill-opacity="0.8" d="M152.91811939633624,269.65913439060034A310,310,0,0,1,126.14674780902871,283.1730884409839L122.0774978797052,274.03847268482315A300,300,0,0,0,147.98527683516411,260.9604526360648Z"></path><text dy="0.35em" transform="
        rotate(63.215755387909184)
        translate(315)
        
      ">Glucose</text><title>Glucose
        0 outgoing →
        0.40540540540540543 incoming ←</title></g><g><path fill="#8c564b" fill-opacity="0.8" d="M116.63931770814516,287.219897577759A310,310,0,0,1,76.17620053120305,300.49490257345457L73.71890373987392,290.8015186194722A300,300,0,0,0,112.87675907239854,277.9547395913797Z"></path><text dy="0.35em" transform="
        rotate(71.83654312707546)
        translate(315)
        
      ">Liraglutide</text><title>Liraglutide
        0 outgoing →
        0.5759162303664922 incoming ←</title></g><g><path fill="#c7c7c7" fill-opacity="0.8" d="M66.11924238949044,302.86671290493416A310,310,0,0,1,3.8998789019406317,309.975468294751L3.77407635671674,299.97625964008165A300,300,0,0,0,63.98636360273269,293.09681894025886Z"></path><text dy="0.35em" transform="
        rotate(83.4820426134417)
        translate(315)
        
      ">Naringenin</text><title>Naringenin
        0.4166666666666667 outgoing →
        0.43103448275862066 incoming ←</title></g><g><path fill="#aec7e8" fill-opacity="0.8" d="M-6.432889784152863,309.93324753731235A310,310,0,0,1,-93.02040624706454,295.71473419772485L-90.0197479810302,286.1755492236047A300,300,0,0,0,-6.225377210470513,299.93540084256034Z"></path><text dy="0.35em" transform="
        rotate(99.32530083875977)
        translate(315)
        rotate(180)
      " text-anchor="end">Obeticholic acid</text><title>Obeticholic acid
        0 outgoing →
        1.1897435897435897 incoming ←</title></g><g><path fill="#d62728" fill-opacity="0.8" d="M-102.82406553682243,292.4503574052855A310,310,0,0,1,-202.82385495974796,234.4407896661055L-196.28114996104642,226.87818354784403A300,300,0,0,0,-99.50716019692494,283.01647490834085Z"></path><text dy="0.35em" transform="
        rotate(120.11788734657134)
        translate(315)
        rotate(180)
      " text-anchor="end">Oleic acid</text><title>Oleic acid
        0.5714285714285714 outgoing →
        1 incoming ←</title></g><g><path fill="#98df8a" fill-opacity="0.8" d="M-210.52443137716313,227.55101360644852A310,310,0,0,1,-279.25677791319004,134.5943980615213L-270.24849475470006,130.2526432853432A300,300,0,0,0,-203.73332068757722,220.21065832882115Z"></path><text dy="0.35em" transform="
        rotate(143.52068899536434)
        translate(315)
        rotate(180)
      " text-anchor="end">Palmitoleic acid</text><title>Palmitoleic acid
        1.5714285714285714 outgoing →
        0 incoming ←</title></g><g><path fill="#bcbd22" fill-opacity="0.8" d="M-283.58729877524473,125.21279476698884A310,310,0,0,1,-305.1525716375571,54.6068495976977L-295.3089402944101,52.84533832035262A300,300,0,0,0,-274.43932139539817,121.17367235515049Z"></path><text dy="0.35em" transform="
        rotate(163.01568294748645)
        translate(315)
        rotate(180)
      " text-anchor="end">Pioglitazone</text><title>Pioglitazone
        1 outgoing →
        0 incoming ←</title></g><g><path fill="#9edae5" fill-opacity="0.8" d="M-306.80294938699006,44.4066464332088A310,310,0,0,1,-309.752617074399,12.382092535624029L-299.7605971687732,11.98267019576519A300,300,0,0,0,-296.90608005192587,42.97417396762142Z"></path><text dy="0.35em" transform="
        rotate(174.73753767688248)
        translate(315)
        rotate(180)
      " text-anchor="end">Quercetin</text><title>Quercetin
        0.43478260869565216 outgoing →
        0 incoming ←</title></g><g><path fill="#c49c94" fill-opacity="0.8" d="M-309.9932082097522,2.0520389433979735A310,310,0,0,1,-291.26618455967014,-106.13203914017753L-281.8705011867775,-102.70842497436534A300,300,0,0,0,-299.9934272997602,1.9858441387722323Z"></path><text dy="0.35em" transform="
        rotate(189.8207693657033)
        translate(315)
        rotate(180)
      " text-anchor="end">Silybin</text><title>Silybin
        1.4915254237288136 outgoing →
        0 incoming ←</title></g><g><path fill="#e377c2" fill-opacity="0.8" d="M-287.5673054566088,-115.78015733460325A310,310,0,0,1,-229.17363508723614,-208.75690403170458L-221.78093718119626,-202.0228103532625A300,300,0,0,0,-278.2909407644601,-112.04531354961604Z"></path><text dy="0.35em" transform="
        rotate(212.13070954000358)
        translate(315)
        rotate(180)
      " text-anchor="end">Silymarin</text><title>Silymarin
        0.4915254237288136 outgoing →
        1 incoming ←</title></g><g><path fill="#9467bd" fill-opacity="0.8" d="M-222.08905327295986,-216.27864530813116A310,310,0,0,1,-200.15191604463138,-236.7260241368972L-193.69540262383683,-229.08970077764246A300,300,0,0,0,-214.9248902641547,-209.30191481432047Z"></path><text dy="0.35em" transform="
        rotate(227.01304042185677)
        translate(315)
        rotate(180)
      " text-anchor="end">Streptozotocin</text><title>Streptozotocin
        0.40540540540540543 outgoing →
        0 incoming ←</title></g><g><path fill="#ffbb78" fill-opacity="0.8" d="M-192.15132455056127,-243.26501695366082A310,310,0,0,1,-159.17976079692514,-266.0109090857623L-154.04492980347592,-257.4299120184797A300,300,0,0,0,-185.95289472634963,-235.4177583422524Z"></path><text dy="0.35em" transform="
        rotate(235.39960692091393)
        translate(315)
        rotate(180)
      " text-anchor="end">Tyloxapol</text><title>Tyloxapol
        0.5416666666666666 outgoing →
        0 incoming ←</title></g><g><path fill="#1f77b4" fill-opacity="0.8" d="M-150.2259474330062,-271.16814842059836A310,310,0,0,1,-10.331419859394467,-309.82779372368924L-9.998148251026905,-299.83334876486055A300,300,0,0,0,-145.37994912871568,-262.4207887941274Z"></path><text dy="0.35em" transform="
        rotate(254.55194148335823)
        translate(315)
        rotate(180)
      " text-anchor="end">Ursodexycholic acid</text><title>Ursodexycholic acid
        1.2018779342723005 outgoing →
        0.7777777777777778 incoming ←</title></g></g><g><path fill="#98df8a" fill-opacity="0.8" d="M-203.41972180093418,219.13789444646616A299,299,0,0,1,-248.916460034538,165.6550510062227Q0,0,-132.47138680725757,256.8507965285721L-167.3098273572725,247.80722683101814L-188.71964648623842,218.8741534080925Q0,0,-203.41972180093418,219.13789444646616Z" style="mix-blend-mode: multiply;"><title>Palmitoleic acid → Oleic acid 1</title></path><path fill="#bcbd22" fill-opacity="0.8" d="M-273.7254266026664,120.31371838318475A299,299,0,0,1,-294.23638643804054,53.15965477581734Q0,0,256.7653137091735,132.6369996487772L247.69927894682456,167.46960085108938L218.75240457222233,188.8607568921367Q0,0,-273.7254266026664,120.31371838318475Z" style="mix-blend-mode: multiply;"><title>Pioglitazone → Dimethoxycoumarin 1</title></path><path fill="#c49c94" fill-opacity="0.8" d="M-298.9963326464143,1.4808997247440678A299,299,0,0,1,-291.0970375589787,-68.2899313543845Q0,0,-253.37666226473226,-139.00096049878147L-243.4445188843347,-173.596561674403L-213.97303144528675,-194.2589555570459Q0,0,-298.9963326464143,1.4808997247440678Z" style="mix-blend-mode: multiply;"><title>Silybin → Silymarin 1</title></path><path fill="#1f77b4" fill-opacity="0.8" d="M239.9825967383258,-178.3517683196051A299,299,0,0,1,268.3440670565058,-131.88048254223793Q0,0,-62.31606852335132,-282.2015372101878L-37.62384324645815,-296.62340841438316L-10.112934980654023,-288.82300556928817Q0,0,239.9825967383258,-178.3517683196051Z" style="mix-blend-mode: multiply;"><title>Cholic acid → Ursodexycholic acid 0.7777777777777778</title></path><path fill="#1f77b4" fill-opacity="0.8" d="M268.78217705191116,-130.98527130649111A299,299,0,0,1,286.2658376646754,-86.33000744898432Q0,0,121.93935231068596,-262.01487430688053L147.49142800201494,-260.09090461976257L162.25957535545746,-239.15022518380914Q0,0,268.78217705191116,-130.98527130649111Z" style="mix-blend-mode: multiply;"><title>Cholic acid → Aramchol 0.6865671641791045</title></path><path fill="#1f77b4" fill-opacity="0.8" d="M-144.4592381685502,-261.78718171018625A299,299,0,0,1,-102.08517325230798,-281.03312509746297Q0,0,-42.41175235165118,285.87102557353063L-66.76423658448236,291.4507449180586L-86.25943291512935,275.8265944994433Q0,0,-144.4592381685502,-261.78718171018625Z" style="mix-blend-mode: multiply;"><title>Ursodexycholic acid → Obeticholic acid 0.6666666666666666</title></path><path fill="#8c564b" fill-opacity="0.8" d="M189.17095893564345,231.5498829526137A299,299,0,0,1,156.50297496129312,254.77012938777744Q0,0,108.29152197845251,267.9439237370206L93.2069604931141,284.1011483884482L71.48267641389889,280.0200474478673Q0,0,189.17095893564345,231.5498829526137Z" style="mix-blend-mode: multiply;"><title>Exendin → Liraglutide 0.5759162303664922</title></path><path fill="#d62728" fill-opacity="0.8" d="M-99.645453512708,281.90740251764714A299,299,0,0,1,-136.16861748352355,266.19374074652063Q0,0,39.77697187844316,-286.2495283981819L60.75309076086483,-292.76280836711845L77.40558124132454,-278.4409739831635Q0,0,-99.645453512708,281.90740251764714Z" style="mix-blend-mode: multiply;"><title>Oleic acid → 10-nitrooleic acid 0.5714285714285714</title></path><path fill="#98df8a" fill-opacity="0.8" d="M-249.46725964738857,164.82441070430804A299,299,0,0,1,-269.1309283321122,130.26720007390767Q0,0,0.4816664436728993,-288.999598611204L20.377222100677727,-298.3048253372038L38.82258756778147,-286.3805277852213Q0,0,-249.46725964738857,164.82441070430804Z" style="mix-blend-mode: multiply;"><title>Palmitoleic acid → 10-nitrooleic acid 0.5714285714285714</title></path><path fill="#ffbb78" fill-opacity="0.8" d="M-184.94173946388045,-234.94159487854458A299,299,0,0,1,-153.95885295527424,-256.3155703360532Q0,0,170.9173899350622,-233.0412963785301L191.6568413219912,-229.49652540828822L198.84178167407717,-209.72111448463798Q0,0,-184.94173946388045,-234.94159487854458Z" style="mix-blend-mode: multiply;"><title>Tyloxapol → BPA 0.5416666666666666</title></path><path fill="#1f77b4" fill-opacity="0.8" d="M-101.14783076409476,-281.3718470844552A299,299,0,0,1,-65.44519487622988,-291.749766868137Q0,0,87.56076816730479,-275.4162520221919L108.13168143372559,-278.7625144640421L121.06529357348563,-262.41988242502845Q0,0,-101.14783076409476,-281.3718470844552Z" style="mix-blend-mode: multiply;"><title>Ursodexycholic acid → Aramchol 0.5352112676056338</title></path><path fill="#1f77b4" fill-opacity="0.8" d="M286.5520134589788,-85.37531014646575A299,299,0,0,1,294.78876824429597,-50.005820831286854Q0,0,-6.478667776282505,288.92737299163014L-24.843860624770652,297.9660762389856L-41.45861507707948,286.0108096486749Q0,0,286.5520134589788,-85.37531014646575Z" style="mix-blend-mode: multiply;"><title>Cholic acid → Obeticholic acid 0.5230769230769231</title></path><path fill="#c49c94" fill-opacity="0.8" d="M-290.86778767173985,-69.2598736278638A299,299,0,0,1,-281.10115269467093,-101.89770337808066Q0,0,273.7650114958903,92.5943760746572L277.320257385821,111.77868689272564L261.4549966714062,123.13522938442502Q0,0,-290.86778767173985,-69.2598736278638Z" style="mix-blend-mode: multiply;"><title>Silybin → Dihydromyricetin 0.4915254237288136</title></path><path fill="#e377c2" fill-opacity="0.8" d="M-277.1767994394042,-112.13394603120098A299,299,0,0,1,-262.62193251961395,-142.9360715832898Q0,0,282.7222425493073,59.909377962808556L288.4988575707853,78.54558663828122L274.072137929247,91.68131331352001Q0,0,-277.1767994394042,-112.13394603120098Z" style="mix-blend-mode: multiply;"><title>Silymarin → Dihydromyricetin 0.4915254237288136</title></path><path fill="#9edae5" fill-opacity="0.8" d="M-295.987366968344,42.3376734734781A299,299,0,0,1,-298.7410756945366,12.440646802765535Q0,0,286.50992460364245,-37.8558199437698L298.0163073240143,-24.233872347577126L288.86194292370436,-8.931849211814034Q0,0,-295.987366968344,42.3376734734781Z" style="mix-blend-mode: multiply;"><title>Quercetin → Chrysin 0.43478260869565216</title></path><path fill="#17becf" fill-opacity="0.8" d="M219.00666563118796,203.56099923391278A299,299,0,0,1,197.53206833732787,224.45953305301433Q0,0,287.4016794303084,30.3525066615306L295.3992796733607,46.26300431726895L282.9203694283683,58.96663940327285Q0,0,219.00666563118796,203.56099923391278Z" style="mix-blend-mode: multiply;"><title>Epigallocatechin gallate → Dihydromyricetin 0.4339622641509434</title></path><path fill="#7f7f7f" fill-opacity="0.8" d="M213.53791842119492,-209.29060513158038A299,299,0,0,1,233.28319358708941,-187.0292800333909Q0,0,32.81957194391358,287.13041583471835L19.131190401740536,298.38732807177377L4.117316834621014,288.97066927645676Q0,0,213.53791842119492,-209.29060513158038Z" style="mix-blend-mode: multiply;"><title>Bavachinin → Naringenin 0.43103448275862066</title></path><path fill="#c7c7c7" fill-opacity="0.8" d="M63.2861209931892,292.22571223223224A299,299,0,0,1,34.94522587828146,296.9508901962004Q0,0,288.9952130190136,1.6633857324654522L298.5670448261437,16.084767445739494L287.501257590634,29.394334212632156Q0,0,63.2861209931892,292.22571223223224Z" style="mix-blend-mode: multiply;"><title>Naringenin → Dihydromyricetin 0.4166666666666667</title></path><path fill="#9467bd" fill-opacity="0.8" d="M-213.86050287625883,-208.9609659948807A299,299,0,0,1,-193.4300264283903,-228.00400188573934Q0,0,142.1399657085662,251.6291520241L134.73899113304148,266.9202207934988L118.0411434108752,263.79402658561696Q0,0,-213.86050287625883,-208.9609659948807Z" style="mix-blend-mode: multiply;"><title>Streptozotocin → Glucose 0.40540540540540543</title></path></g></svg>