<?xml version="1.0" encoding="utf-8" standalone="no"?>
<!DOCTYPE svg PUBLIC "-//W3C//DTD SVG 1.1//EN"
  "http://www.w3.org/Graphics/SVG/1.1/DTD/svg11.dtd">
<svg xmlns:xlink="http://www.w3.org/1999/xlink" width="279.062813pt" height="279.051875pt" viewBox="0 0 279.062813 279.051875" xmlns="http://www.w3.org/2000/svg" version="1.1">
 <metadata>
  <rdf:RDF xmlns:dc="http://purl.org/dc/elements/1.1/" xmlns:cc="http://creativecommons.org/ns#" xmlns:rdf="http://www.w3.org/1999/02/22-rdf-syntax-ns#">
   <cc:Work>
    <dc:type rdf:resource="http://purl.org/dc/dcmitype/StillImage"/>
    <dc:date>2024-12-07T16:37:46.268031</dc:date>
    <dc:format>image/svg+xml</dc:format>
    <dc:creator>
     <cc:Agent>
      <dc:title>Matplotlib v3.9.0, https://matplotlib.org/</dc:title>
     </cc:Agent>
    </dc:creator>
   </cc:Work>
  </rdf:RDF>
 </metadata>
 <defs>
  <style type="text/css">*{stroke-linejoin: round; stroke-linecap: butt}</style>
 </defs>
 <g id="figure_1">
  <g id="patch_1">
   <path d="M 0 279.051875 
L 279.062813 279.051875 
L 279.062813 0 
L 0 0 
z
" style="fill: #ffffff"/>
  </g>
  <g id="axes_1">
   <g id="patch_2">
    <path d="M 102.952813 239.56 
L 271.862813 239.56 
L 271.862813 7.2 
L 102.952813 7.2 
z
" style="fill: #ffffff"/>
   </g>
   <g id="patch_3">
    <path d="M 102.952813 8.566824 
L 263.819479 8.566824 
L 263.819479 19.501412 
L 102.952813 19.501412 
z
" clip-path="url(#pb9b1089829)" style="fill: #3274a1"/>
   </g>
   <g id="patch_4">
    <path d="M 102.952813 22.235059 
L 233.371065 22.235059 
L 233.371065 33.169647 
L 102.952813 33.169647 
z
" clip-path="url(#pb9b1089829)" style="fill: #3274a1"/>
   </g>
   <g id="patch_5">
    <path d="M 102.952813 35.903294 
L 211.330153 35.903294 
L 211.330153 46.837882 
L 102.952813 46.837882 
z
" clip-path="url(#pb9b1089829)" style="fill: #3274a1"/>
   </g>
   <g id="patch_6">
    <path d="M 102.952813 49.571529 
L 177.831647 49.571529 
L 177.831647 60.506118 
L 102.952813 60.506118 
z
" clip-path="url(#pb9b1089829)" style="fill: #3274a1"/>
   </g>
   <g id="patch_7">
    <path d="M 102.952813 63.239765 
L 174.94335 63.239765 
L 174.94335 74.174353 
L 102.952813 74.174353 
z
" clip-path="url(#pb9b1089829)" style="fill: #3274a1"/>
   </g>
   <g id="patch_8">
    <path d="M 102.952813 76.908 
L 165.979385 76.908 
L 165.979385 87.842588 
L 102.952813 87.842588 
z
" clip-path="url(#pb9b1089829)" style="fill: #3274a1"/>
   </g>
   <g id="patch_9">
    <path d="M 102.952813 90.576235 
L 163.225919 90.576235 
L 163.225919 101.510824 
L 102.952813 101.510824 
z
" clip-path="url(#pb9b1089829)" style="fill: #3274a1"/>
   </g>
   <g id="patch_10">
    <path d="M 102.952813 104.244471 
L 159.556638 104.244471 
L 159.556638 115.179059 
L 102.952813 115.179059 
z
" clip-path="url(#pb9b1089829)" style="fill: #3274a1"/>
   </g>
   <g id="patch_11">
    <path d="M 102.952813 117.912706 
L 150.499174 117.912706 
L 150.499174 128.847294 
L 102.952813 128.847294 
z
" clip-path="url(#pb9b1089829)" style="fill: #3274a1"/>
   </g>
   <g id="patch_12">
    <path d="M 102.952813 131.580941 
L 150.328343 131.580941 
L 150.328343 142.515529 
L 102.952813 142.515529 
z
" clip-path="url(#pb9b1089829)" style="fill: #3274a1"/>
   </g>
   <g id="patch_13">
    <path d="M 102.952813 145.249176 
L 149.571338 145.249176 
L 149.571338 156.183765 
L 102.952813 156.183765 
z
" clip-path="url(#pb9b1089829)" style="fill: #3274a1"/>
   </g>
   <g id="patch_14">
    <path d="M 102.952813 158.917412 
L 145.957586 158.917412 
L 145.957586 169.852 
L 102.952813 169.852 
z
" clip-path="url(#pb9b1089829)" style="fill: #3274a1"/>
   </g>
   <g id="patch_15">
    <path d="M 102.952813 172.585647 
L 145.312844 172.585647 
L 145.312844 183.520235 
L 102.952813 183.520235 
z
" clip-path="url(#pb9b1089829)" style="fill: #3274a1"/>
   </g>
   <g id="patch_16">
    <path d="M 102.952813 186.253882 
L 137.966982 186.253882 
L 137.966982 197.188471 
L 102.952813 197.188471 
z
" clip-path="url(#pb9b1089829)" style="fill: #3274a1"/>
   </g>
   <g id="patch_17">
    <path d="M 102.952813 199.922118 
L 132.965367 199.922118 
L 132.965367 210.856706 
L 102.952813 210.856706 
z
" clip-path="url(#pb9b1089829)" style="fill: #3274a1"/>
   </g>
   <g id="patch_18">
    <path d="M 102.952813 213.590353 
L 110.050597 213.590353 
L 110.050597 224.524941 
L 102.952813 224.524941 
z
" clip-path="url(#pb9b1089829)" style="fill: #3274a1"/>
   </g>
   <g id="patch_19">
    <path d="M 102.952813 227.258588 
L 109.51732 227.258588 
L 109.51732 238.193176 
L 102.952813 238.193176 
z
" clip-path="url(#pb9b1089829)" style="fill: #3274a1"/>
   </g>
   <g id="matplotlib.axis_1">
    <g id="xtick_1">
     <g id="line2d_1">
      <defs>
       <path id="mc258816564" d="M 0 0 
L 0 3.5 
" style="stroke: #000000; stroke-width: 0.8"/>
      </defs>
      <g>
       <use xlink:href="#mc258816564" x="102.952813" y="239.56" style="stroke: #000000; stroke-width: 0.8"/>
      </g>
     </g>
     <g id="text_1">
      <!-- 0 -->
      <g transform="translate(99.771563 254.158437) scale(0.1 -0.1)">
       <defs>
        <path id="DejaVuSans-30" d="M 2034 4250 
Q 1547 4250 1301 3770 
Q 1056 3291 1056 2328 
Q 1056 1369 1301 889 
Q 1547 409 2034 409 
Q 2525 409 2770 889 
Q 3016 1369 3016 2328 
Q 3016 3291 2770 3770 
Q 2525 4250 2034 4250 
z
M 2034 4750 
Q 2819 4750 3233 4129 
Q 3647 3509 3647 2328 
Q 3647 1150 3233 529 
Q 2819 -91 2034 -91 
Q 1250 -91 836 529 
Q 422 1150 422 2328 
Q 422 3509 836 4129 
Q 1250 4750 2034 4750 
z
" transform="scale(0.015625)"/>
       </defs>
       <use xlink:href="#DejaVuSans-30"/>
      </g>
     </g>
    </g>
    <g id="xtick_2">
     <g id="line2d_2">
      <g>
       <use xlink:href="#mc258816564" x="163.795853" y="239.56" style="stroke: #000000; stroke-width: 0.8"/>
      </g>
     </g>
     <g id="text_2">
      <!-- 1 -->
      <g transform="translate(160.614603 254.158437) scale(0.1 -0.1)">
       <defs>
        <path id="DejaVuSans-31" d="M 794 531 
L 1825 531 
L 1825 4091 
L 703 3866 
L 703 4441 
L 1819 4666 
L 2450 4666 
L 2450 531 
L 3481 531 
L 3481 0 
L 794 0 
L 794 531 
z
" transform="scale(0.015625)"/>
       </defs>
       <use xlink:href="#DejaVuSans-31"/>
      </g>
     </g>
    </g>
    <g id="xtick_3">
     <g id="line2d_3">
      <g>
       <use xlink:href="#mc258816564" x="224.638893" y="239.56" style="stroke: #000000; stroke-width: 0.8"/>
      </g>
     </g>
     <g id="text_3">
      <!-- 2 -->
      <g transform="translate(221.457643 254.158437) scale(0.1 -0.1)">
       <defs>
        <path id="DejaVuSans-32" d="M 1228 531 
L 3431 531 
L 3431 0 
L 469 0 
L 469 531 
Q 828 903 1448 1529 
Q 2069 2156 2228 2338 
Q 2531 2678 2651 2914 
Q 2772 3150 2772 3378 
Q 2772 3750 2511 3984 
Q 2250 4219 1831 4219 
Q 1534 4219 1204 4116 
Q 875 4013 500 3803 
L 500 4441 
Q 881 4594 1212 4672 
Q 1544 4750 1819 4750 
Q 2544 4750 2975 4387 
Q 3406 4025 3406 3419 
Q 3406 3131 3298 2873 
Q 3191 2616 2906 2266 
Q 2828 2175 2409 1742 
Q 1991 1309 1228 531 
z
" transform="scale(0.015625)"/>
       </defs>
       <use xlink:href="#DejaVuSans-32"/>
      </g>
     </g>
    </g>
    <g id="text_4">
     <!-- Importance scores -->
     <g transform="translate(124.795 269.35625) scale(0.12 -0.12)">
      <defs>
       <path id="DejaVuSans-BoldOblique-49" d="M 1044 4666 
L 2247 4666 
L 1338 0 
L 134 0 
L 1044 4666 
z
" transform="scale(0.015625)"/>
       <path id="DejaVuSans-BoldOblique-6d" d="M 4013 2919 
Q 4272 3241 4601 3412 
Q 4931 3584 5288 3584 
Q 5756 3584 6026 3326 
Q 6297 3069 6297 2619 
Q 6297 2525 6283 2404 
Q 6269 2284 6241 2131 
L 5825 0 
L 4697 0 
L 5050 1825 
L 5059 1872 
Q 5141 2259 5141 2369 
Q 5141 2541 5042 2641 
Q 4944 2741 4775 2741 
Q 4453 2741 4229 2477 
Q 4006 2213 3909 1722 
L 3572 0 
L 2444 0 
L 2803 1825 
Q 2850 2059 2869 2179 
Q 2888 2300 2888 2369 
Q 2888 2544 2791 2642 
Q 2694 2741 2522 2741 
Q 2213 2741 1980 2467 
Q 1747 2194 1656 1722 
L 1319 0 
L 197 0 
L 878 3500 
L 2003 3500 
L 1900 2988 
Q 2163 3284 2459 3434 
Q 2756 3584 3078 3584 
Q 3441 3584 3700 3398 
Q 3959 3213 4013 2919 
z
" transform="scale(0.015625)"/>
       <path id="DejaVuSans-BoldOblique-70" d="M 1422 506 
L 1063 -1331 
L -63 -1331 
L 878 3500 
L 2003 3500 
L 1900 2988 
Q 2156 3294 2437 3439 
Q 2719 3584 3053 3584 
Q 3644 3584 3987 3209 
Q 4331 2834 4331 2188 
Q 4331 1784 4211 1403 
Q 4091 1022 3866 709 
Q 3581 316 3223 112 
Q 2866 -91 2456 -91 
Q 2097 -91 1845 54 
Q 1594 200 1422 506 
z
M 2597 2772 
Q 2166 2772 1892 2373 
Q 1619 1975 1619 1338 
Q 1619 1050 1773 886 
Q 1928 722 2203 722 
Q 2625 722 2900 1114 
Q 3175 1506 3175 2119 
Q 3175 2438 3026 2605 
Q 2878 2772 2597 2772 
z
" transform="scale(0.015625)"/>
       <path id="DejaVuSans-BoldOblique-6f" d="M 2400 2784 
Q 1966 2784 1684 2390 
Q 1403 1997 1403 1388 
Q 1403 1056 1554 882 
Q 1706 709 1997 709 
Q 2431 709 2712 1104 
Q 2994 1500 2994 2113 
Q 2994 2441 2842 2612 
Q 2691 2784 2400 2784 
z
M 2491 3584 
Q 3272 3584 3719 3187 
Q 4166 2791 4166 2106 
Q 4166 1709 4025 1336 
Q 3884 963 3616 653 
Q 3297 284 2862 96 
Q 2428 -91 1894 -91 
Q 1122 -91 676 306 
Q 231 703 231 1388 
Q 231 1781 375 2157 
Q 519 2534 788 2847 
Q 1100 3209 1533 3396 
Q 1966 3584 2491 3584 
z
" transform="scale(0.015625)"/>
       <path id="DejaVuSans-BoldOblique-72" d="M 3291 2547 
Q 3175 2613 3034 2647 
Q 2894 2681 2731 2681 
Q 2303 2681 2020 2406 
Q 1738 2131 1638 1613 
L 1319 0 
L 197 0 
L 878 3500 
L 2003 3500 
L 1881 2900 
Q 2103 3231 2436 3407 
Q 2769 3584 3175 3584 
Q 3234 3584 3309 3578 
Q 3384 3572 3488 3559 
L 3291 2547 
z
" transform="scale(0.015625)"/>
       <path id="DejaVuSans-BoldOblique-74" d="M 2303 4494 
L 2113 3500 
L 3256 3500 
L 3097 2700 
L 1953 2700 
L 1666 1219 
Q 1653 1169 1648 1134 
Q 1644 1100 1644 1069 
Q 1644 925 1739 862 
Q 1834 800 2059 800 
L 2638 800 
L 2478 0 
L 1538 0 
Q 1031 0 765 212 
Q 500 425 500 825 
Q 500 913 509 1013 
Q 519 1113 538 1216 
L 825 2700 
L 275 2700 
L 428 3500 
L 984 3500 
L 1178 4494 
L 2303 4494 
z
" transform="scale(0.015625)"/>
       <path id="DejaVuSans-BoldOblique-61" d="M 2106 1575 
Q 1688 1575 1473 1445 
Q 1259 1316 1259 1063 
Q 1259 872 1386 762 
Q 1513 653 1734 653 
Q 2078 653 2309 861 
Q 2541 1069 2619 1447 
L 2644 1575 
L 2106 1575 
z
M 3853 1997 
L 3463 0 
L 2344 0 
L 2438 519 
Q 2163 206 1856 57 
Q 1550 -91 1191 -91 
Q 694 -91 401 167 
Q 109 425 109 863 
Q 109 1531 626 1886 
Q 1144 2241 2119 2241 
L 2778 2241 
L 2791 2328 
Q 2800 2372 2801 2390 
Q 2803 2409 2803 2425 
Q 2803 2631 2608 2736 
Q 2413 2841 2028 2841 
Q 1681 2841 1356 2769 
Q 1031 2697 728 2553 
L 897 3406 
Q 1247 3494 1614 3539 
Q 1981 3584 2375 3584 
Q 3153 3584 3531 3317 
Q 3909 3050 3909 2503 
Q 3909 2397 3895 2270 
Q 3881 2144 3853 1997 
z
" transform="scale(0.015625)"/>
       <path id="DejaVuSans-BoldOblique-6e" d="M 4128 2131 
L 3713 0 
L 2591 0 
L 2944 1825 
Q 2981 2003 3001 2126 
Q 3022 2250 3022 2322 
Q 3022 2522 2911 2631 
Q 2800 2741 2597 2741 
Q 2250 2741 2001 2470 
Q 1753 2200 1656 1722 
L 1319 0 
L 197 0 
L 878 3500 
L 2003 3500 
L 1900 2988 
Q 2209 3291 2521 3437 
Q 2834 3584 3175 3584 
Q 3659 3584 3921 3331 
Q 4184 3078 4184 2619 
Q 4184 2519 4170 2397 
Q 4156 2275 4128 2131 
z
" transform="scale(0.015625)"/>
       <path id="DejaVuSans-BoldOblique-63" d="M 3719 3391 
L 3541 2478 
Q 3316 2628 3097 2706 
Q 2878 2784 2669 2784 
Q 2122 2784 1775 2417 
Q 1428 2050 1428 1478 
Q 1428 1113 1643 911 
Q 1859 709 2253 709 
Q 2516 709 2769 787 
Q 3022 866 3250 1019 
L 3078 103 
Q 2800 6 2519 -42 
Q 2238 -91 1953 -91 
Q 1128 -91 683 279 
Q 238 650 238 1331 
Q 238 1759 402 2162 
Q 566 2566 872 2888 
Q 1213 3241 1653 3412 
Q 2094 3584 2669 3584 
Q 2934 3584 3196 3536 
Q 3459 3488 3719 3391 
z
" transform="scale(0.015625)"/>
       <path id="DejaVuSans-BoldOblique-65" d="M 4025 1619 
L 3988 1441 
L 1369 1441 
Q 1369 1422 1366 1386 
Q 1363 1350 1363 1331 
Q 1363 991 1567 822 
Q 1772 653 2181 653 
Q 2534 653 2926 759 
Q 3319 866 3750 1075 
L 3578 206 
Q 3169 56 2764 -17 
Q 2359 -91 1941 -91 
Q 1122 -91 676 287 
Q 231 666 231 1356 
Q 231 1756 373 2132 
Q 516 2509 788 2822 
Q 1109 3197 1557 3390 
Q 2006 3584 2553 3584 
Q 3263 3584 3680 3206 
Q 4097 2828 4097 2188 
Q 4097 2063 4080 1923 
Q 4063 1784 4025 1619 
z
M 2969 2131 
Q 2978 2172 2983 2214 
Q 2988 2256 2988 2297 
Q 2988 2547 2838 2694 
Q 2688 2841 2431 2841 
Q 2103 2841 1873 2661 
Q 1644 2481 1522 2131 
L 2969 2131 
z
" transform="scale(0.015625)"/>
       <path id="DejaVuSans-BoldOblique-20" transform="scale(0.015625)"/>
       <path id="DejaVuSans-BoldOblique-73" d="M 3584 3391 
L 3419 2522 
Q 3091 2678 2766 2759 
Q 2441 2841 2150 2841 
Q 1819 2841 1639 2755 
Q 1459 2669 1459 2509 
Q 1459 2416 1559 2359 
Q 1659 2303 1953 2241 
L 2156 2203 
Q 2834 2059 3106 1832 
Q 3378 1606 3378 1203 
Q 3378 594 2900 251 
Q 2422 -91 1563 -91 
Q 1203 -91 828 -34 
Q 453 22 63 134 
L 231 1013 
Q 534 834 879 743 
Q 1225 653 1588 653 
Q 1941 653 2119 737 
Q 2297 822 2297 984 
Q 2297 1097 2197 1159 
Q 2097 1222 1784 1288 
L 1581 1325 
Q 981 1450 725 1694 
Q 469 1938 469 2369 
Q 469 2953 911 3268 
Q 1353 3584 2175 3584 
Q 2534 3584 2882 3536 
Q 3231 3488 3584 3391 
z
" transform="scale(0.015625)"/>
      </defs>
      <use xlink:href="#DejaVuSans-BoldOblique-49"/>
      <use xlink:href="#DejaVuSans-BoldOblique-6d" x="37.207031"/>
      <use xlink:href="#DejaVuSans-BoldOblique-70" x="141.40625"/>
      <use xlink:href="#DejaVuSans-BoldOblique-6f" x="212.988281"/>
      <use xlink:href="#DejaVuSans-BoldOblique-72" x="281.689453"/>
      <use xlink:href="#DejaVuSans-BoldOblique-74" x="331.005859"/>
      <use xlink:href="#DejaVuSans-BoldOblique-61" x="378.808594"/>
      <use xlink:href="#DejaVuSans-BoldOblique-6e" x="446.289062"/>
      <use xlink:href="#DejaVuSans-BoldOblique-63" x="517.480469"/>
      <use xlink:href="#DejaVuSans-BoldOblique-65" x="576.757812"/>
      <use xlink:href="#DejaVuSans-BoldOblique-20" x="644.580078"/>
      <use xlink:href="#DejaVuSans-BoldOblique-73" x="679.394531"/>
      <use xlink:href="#DejaVuSans-BoldOblique-63" x="738.916016"/>
      <use xlink:href="#DejaVuSans-BoldOblique-6f" x="798.193359"/>
      <use xlink:href="#DejaVuSans-BoldOblique-72" x="866.894531"/>
      <use xlink:href="#DejaVuSans-BoldOblique-65" x="916.210938"/>
      <use xlink:href="#DejaVuSans-BoldOblique-73" x="984.033203"/>
     </g>
    </g>
   </g>
   <g id="matplotlib.axis_2">
    <g id="ytick_1">
     <g id="line2d_4">
      <defs>
       <path id="m110ab03824" d="M 0 0 
L -3.5 0 
" style="stroke: #000000; stroke-width: 0.8"/>
      </defs>
      <g>
       <use xlink:href="#m110ab03824" x="102.952813" y="14.034118" style="stroke: #000000; stroke-width: 0.8"/>
      </g>
     </g>
     <g id="text_5">
      <!-- ypc_pred_xgb -->
      <g transform="translate(26.835625 17.833336) scale(0.1 -0.1)">
       <defs>
        <path id="DejaVuSans-79" d="M 2059 -325 
Q 1816 -950 1584 -1140 
Q 1353 -1331 966 -1331 
L 506 -1331 
L 506 -850 
L 844 -850 
Q 1081 -850 1212 -737 
Q 1344 -625 1503 -206 
L 1606 56 
L 191 3500 
L 800 3500 
L 1894 763 
L 2988 3500 
L 3597 3500 
L 2059 -325 
z
" transform="scale(0.015625)"/>
        <path id="DejaVuSans-70" d="M 1159 525 
L 1159 -1331 
L 581 -1331 
L 581 3500 
L 1159 3500 
L 1159 2969 
Q 1341 3281 1617 3432 
Q 1894 3584 2278 3584 
Q 2916 3584 3314 3078 
Q 3713 2572 3713 1747 
Q 3713 922 3314 415 
Q 2916 -91 2278 -91 
Q 1894 -91 1617 61 
Q 1341 213 1159 525 
z
M 3116 1747 
Q 3116 2381 2855 2742 
Q 2594 3103 2138 3103 
Q 1681 3103 1420 2742 
Q 1159 2381 1159 1747 
Q 1159 1113 1420 752 
Q 1681 391 2138 391 
Q 2594 391 2855 752 
Q 3116 1113 3116 1747 
z
" transform="scale(0.015625)"/>
        <path id="DejaVuSans-63" d="M 3122 3366 
L 3122 2828 
Q 2878 2963 2633 3030 
Q 2388 3097 2138 3097 
Q 1578 3097 1268 2742 
Q 959 2388 959 1747 
Q 959 1106 1268 751 
Q 1578 397 2138 397 
Q 2388 397 2633 464 
Q 2878 531 3122 666 
L 3122 134 
Q 2881 22 2623 -34 
Q 2366 -91 2075 -91 
Q 1284 -91 818 406 
Q 353 903 353 1747 
Q 353 2603 823 3093 
Q 1294 3584 2113 3584 
Q 2378 3584 2631 3529 
Q 2884 3475 3122 3366 
z
" transform="scale(0.015625)"/>
        <path id="DejaVuSans-5f" d="M 3263 -1063 
L 3263 -1509 
L -63 -1509 
L -63 -1063 
L 3263 -1063 
z
" transform="scale(0.015625)"/>
        <path id="DejaVuSans-72" d="M 2631 2963 
Q 2534 3019 2420 3045 
Q 2306 3072 2169 3072 
Q 1681 3072 1420 2755 
Q 1159 2438 1159 1844 
L 1159 0 
L 581 0 
L 581 3500 
L 1159 3500 
L 1159 2956 
Q 1341 3275 1631 3429 
Q 1922 3584 2338 3584 
Q 2397 3584 2469 3576 
Q 2541 3569 2628 3553 
L 2631 2963 
z
" transform="scale(0.015625)"/>
        <path id="DejaVuSans-65" d="M 3597 1894 
L 3597 1613 
L 953 1613 
Q 991 1019 1311 708 
Q 1631 397 2203 397 
Q 2534 397 2845 478 
Q 3156 559 3463 722 
L 3463 178 
Q 3153 47 2828 -22 
Q 2503 -91 2169 -91 
Q 1331 -91 842 396 
Q 353 884 353 1716 
Q 353 2575 817 3079 
Q 1281 3584 2069 3584 
Q 2775 3584 3186 3129 
Q 3597 2675 3597 1894 
z
M 3022 2063 
Q 3016 2534 2758 2815 
Q 2500 3097 2075 3097 
Q 1594 3097 1305 2825 
Q 1016 2553 972 2059 
L 3022 2063 
z
" transform="scale(0.015625)"/>
        <path id="DejaVuSans-64" d="M 2906 2969 
L 2906 4863 
L 3481 4863 
L 3481 0 
L 2906 0 
L 2906 525 
Q 2725 213 2448 61 
Q 2172 -91 1784 -91 
Q 1150 -91 751 415 
Q 353 922 353 1747 
Q 353 2572 751 3078 
Q 1150 3584 1784 3584 
Q 2172 3584 2448 3432 
Q 2725 3281 2906 2969 
z
M 947 1747 
Q 947 1113 1208 752 
Q 1469 391 1925 391 
Q 2381 391 2643 752 
Q 2906 1113 2906 1747 
Q 2906 2381 2643 2742 
Q 2381 3103 1925 3103 
Q 1469 3103 1208 2742 
Q 947 2381 947 1747 
z
" transform="scale(0.015625)"/>
        <path id="DejaVuSans-78" d="M 3513 3500 
L 2247 1797 
L 3578 0 
L 2900 0 
L 1881 1375 
L 863 0 
L 184 0 
L 1544 1831 
L 300 3500 
L 978 3500 
L 1906 2253 
L 2834 3500 
L 3513 3500 
z
" transform="scale(0.015625)"/>
        <path id="DejaVuSans-67" d="M 2906 1791 
Q 2906 2416 2648 2759 
Q 2391 3103 1925 3103 
Q 1463 3103 1205 2759 
Q 947 2416 947 1791 
Q 947 1169 1205 825 
Q 1463 481 1925 481 
Q 2391 481 2648 825 
Q 2906 1169 2906 1791 
z
M 3481 434 
Q 3481 -459 3084 -895 
Q 2688 -1331 1869 -1331 
Q 1566 -1331 1297 -1286 
Q 1028 -1241 775 -1147 
L 775 -588 
Q 1028 -725 1275 -790 
Q 1522 -856 1778 -856 
Q 2344 -856 2625 -561 
Q 2906 -266 2906 331 
L 2906 616 
Q 2728 306 2450 153 
Q 2172 0 1784 0 
Q 1141 0 747 490 
Q 353 981 353 1791 
Q 353 2603 747 3093 
Q 1141 3584 1784 3584 
Q 2172 3584 2450 3431 
Q 2728 3278 2906 2969 
L 2906 3500 
L 3481 3500 
L 3481 434 
z
" transform="scale(0.015625)"/>
        <path id="DejaVuSans-62" d="M 3116 1747 
Q 3116 2381 2855 2742 
Q 2594 3103 2138 3103 
Q 1681 3103 1420 2742 
Q 1159 2381 1159 1747 
Q 1159 1113 1420 752 
Q 1681 391 2138 391 
Q 2594 391 2855 752 
Q 3116 1113 3116 1747 
z
M 1159 2969 
Q 1341 3281 1617 3432 
Q 1894 3584 2278 3584 
Q 2916 3584 3314 3078 
Q 3713 2572 3713 1747 
Q 3713 922 3314 415 
Q 2916 -91 2278 -91 
Q 1894 -91 1617 61 
Q 1341 213 1159 525 
L 1159 0 
L 581 0 
L 581 4863 
L 1159 4863 
L 1159 2969 
z
" transform="scale(0.015625)"/>
       </defs>
       <use xlink:href="#DejaVuSans-79"/>
       <use xlink:href="#DejaVuSans-70" x="59.179688"/>
       <use xlink:href="#DejaVuSans-63" x="122.65625"/>
       <use xlink:href="#DejaVuSans-5f" x="177.636719"/>
       <use xlink:href="#DejaVuSans-70" x="227.636719"/>
       <use xlink:href="#DejaVuSans-72" x="291.113281"/>
       <use xlink:href="#DejaVuSans-65" x="329.976562"/>
       <use xlink:href="#DejaVuSans-64" x="391.5"/>
       <use xlink:href="#DejaVuSans-5f" x="454.976562"/>
       <use xlink:href="#DejaVuSans-78" x="504.976562"/>
       <use xlink:href="#DejaVuSans-67" x="564.15625"/>
       <use xlink:href="#DejaVuSans-62" x="627.632812"/>
      </g>
     </g>
    </g>
    <g id="ytick_2">
     <g id="line2d_5">
      <g>
       <use xlink:href="#m110ab03824" x="102.952813" y="27.702353" style="stroke: #000000; stroke-width: 0.8"/>
      </g>
     </g>
     <g id="text_6">
      <!-- yke_pred_rf -->
      <g transform="translate(38.085625 31.501572) scale(0.1 -0.1)">
       <defs>
        <path id="DejaVuSans-6b" d="M 581 4863 
L 1159 4863 
L 1159 1991 
L 2875 3500 
L 3609 3500 
L 1753 1863 
L 3688 0 
L 2938 0 
L 1159 1709 
L 1159 0 
L 581 0 
L 581 4863 
z
" transform="scale(0.015625)"/>
        <path id="DejaVuSans-66" d="M 2375 4863 
L 2375 4384 
L 1825 4384 
Q 1516 4384 1395 4259 
Q 1275 4134 1275 3809 
L 1275 3500 
L 2222 3500 
L 2222 3053 
L 1275 3053 
L 1275 0 
L 697 0 
L 697 3053 
L 147 3053 
L 147 3500 
L 697 3500 
L 697 3744 
Q 697 4328 969 4595 
Q 1241 4863 1831 4863 
L 2375 4863 
z
" transform="scale(0.015625)"/>
       </defs>
       <use xlink:href="#DejaVuSans-79"/>
       <use xlink:href="#DejaVuSans-6b" x="59.179688"/>
       <use xlink:href="#DejaVuSans-65" x="113.464844"/>
       <use xlink:href="#DejaVuSans-5f" x="174.988281"/>
       <use xlink:href="#DejaVuSans-70" x="224.988281"/>
       <use xlink:href="#DejaVuSans-72" x="288.464844"/>
       <use xlink:href="#DejaVuSans-65" x="327.328125"/>
       <use xlink:href="#DejaVuSans-64" x="388.851562"/>
       <use xlink:href="#DejaVuSans-5f" x="452.328125"/>
       <use xlink:href="#DejaVuSans-72" x="502.328125"/>
       <use xlink:href="#DejaVuSans-66" x="543.441406"/>
      </g>
     </g>
    </g>
    <g id="ytick_3">
     <g id="line2d_6">
      <g>
       <use xlink:href="#m110ab03824" x="102.952813" y="41.370588" style="stroke: #000000; stroke-width: 0.8"/>
      </g>
     </g>
     <g id="text_7">
      <!-- yes_pred_xgb -->
      <g transform="translate(27.32 45.169807) scale(0.1 -0.1)">
       <defs>
        <path id="DejaVuSans-73" d="M 2834 3397 
L 2834 2853 
Q 2591 2978 2328 3040 
Q 2066 3103 1784 3103 
Q 1356 3103 1142 2972 
Q 928 2841 928 2578 
Q 928 2378 1081 2264 
Q 1234 2150 1697 2047 
L 1894 2003 
Q 2506 1872 2764 1633 
Q 3022 1394 3022 966 
Q 3022 478 2636 193 
Q 2250 -91 1575 -91 
Q 1294 -91 989 -36 
Q 684 19 347 128 
L 347 722 
Q 666 556 975 473 
Q 1284 391 1588 391 
Q 1994 391 2212 530 
Q 2431 669 2431 922 
Q 2431 1156 2273 1281 
Q 2116 1406 1581 1522 
L 1381 1569 
Q 847 1681 609 1914 
Q 372 2147 372 2553 
Q 372 3047 722 3315 
Q 1072 3584 1716 3584 
Q 2034 3584 2315 3537 
Q 2597 3491 2834 3397 
z
" transform="scale(0.015625)"/>
       </defs>
       <use xlink:href="#DejaVuSans-79"/>
       <use xlink:href="#DejaVuSans-65" x="59.179688"/>
       <use xlink:href="#DejaVuSans-73" x="120.703125"/>
       <use xlink:href="#DejaVuSans-5f" x="172.802734"/>
       <use xlink:href="#DejaVuSans-70" x="222.802734"/>
       <use xlink:href="#DejaVuSans-72" x="286.279297"/>
       <use xlink:href="#DejaVuSans-65" x="325.142578"/>
       <use xlink:href="#DejaVuSans-64" x="386.666016"/>
       <use xlink:href="#DejaVuSans-5f" x="450.142578"/>
       <use xlink:href="#DejaVuSans-78" x="500.142578"/>
       <use xlink:href="#DejaVuSans-67" x="559.322266"/>
       <use xlink:href="#DejaVuSans-62" x="622.798828"/>
      </g>
     </g>
    </g>
    <g id="ytick_4">
     <g id="line2d_7">
      <g>
       <use xlink:href="#m110ab03824" x="102.952813" y="55.038824" style="stroke: #000000; stroke-width: 0.8"/>
      </g>
     </g>
     <g id="text_8">
      <!-- ykc_pred_xgb -->
      <g transform="translate(27.393438 58.838042) scale(0.1 -0.1)">
       <use xlink:href="#DejaVuSans-79"/>
       <use xlink:href="#DejaVuSans-6b" x="59.179688"/>
       <use xlink:href="#DejaVuSans-63" x="117.089844"/>
       <use xlink:href="#DejaVuSans-5f" x="172.070312"/>
       <use xlink:href="#DejaVuSans-70" x="222.070312"/>
       <use xlink:href="#DejaVuSans-72" x="285.546875"/>
       <use xlink:href="#DejaVuSans-65" x="324.410156"/>
       <use xlink:href="#DejaVuSans-64" x="385.933594"/>
       <use xlink:href="#DejaVuSans-5f" x="449.410156"/>
       <use xlink:href="#DejaVuSans-78" x="499.410156"/>
       <use xlink:href="#DejaVuSans-67" x="558.589844"/>
       <use xlink:href="#DejaVuSans-62" x="622.066406"/>
      </g>
     </g>
    </g>
    <g id="ytick_5">
     <g id="line2d_8">
      <g>
       <use xlink:href="#m110ab03824" x="102.952813" y="68.707059" style="stroke: #000000; stroke-width: 0.8"/>
      </g>
     </g>
     <g id="text_9">
      <!-- ycd_pred_xgb -->
      <g transform="translate(26.835625 72.506278) scale(0.1 -0.1)">
       <use xlink:href="#DejaVuSans-79"/>
       <use xlink:href="#DejaVuSans-63" x="59.179688"/>
       <use xlink:href="#DejaVuSans-64" x="114.160156"/>
       <use xlink:href="#DejaVuSans-5f" x="177.636719"/>
       <use xlink:href="#DejaVuSans-70" x="227.636719"/>
       <use xlink:href="#DejaVuSans-72" x="291.113281"/>
       <use xlink:href="#DejaVuSans-65" x="329.976562"/>
       <use xlink:href="#DejaVuSans-64" x="391.5"/>
       <use xlink:href="#DejaVuSans-5f" x="454.976562"/>
       <use xlink:href="#DejaVuSans-78" x="504.976562"/>
       <use xlink:href="#DejaVuSans-67" x="564.15625"/>
       <use xlink:href="#DejaVuSans-62" x="627.632812"/>
      </g>
     </g>
    </g>
    <g id="ytick_6">
     <g id="line2d_9">
      <g>
       <use xlink:href="#m110ab03824" x="102.952813" y="82.375294" style="stroke: #000000; stroke-width: 0.8"/>
      </g>
     </g>
     <g id="text_10">
      <!-- yss_pred_svc -->
      <g transform="translate(30.252813 86.174513) scale(0.1 -0.1)">
       <defs>
        <path id="DejaVuSans-76" d="M 191 3500 
L 800 3500 
L 1894 563 
L 2988 3500 
L 3597 3500 
L 2284 0 
L 1503 0 
L 191 3500 
z
" transform="scale(0.015625)"/>
       </defs>
       <use xlink:href="#DejaVuSans-79"/>
       <use xlink:href="#DejaVuSans-73" x="59.179688"/>
       <use xlink:href="#DejaVuSans-73" x="111.279297"/>
       <use xlink:href="#DejaVuSans-5f" x="163.378906"/>
       <use xlink:href="#DejaVuSans-70" x="213.378906"/>
       <use xlink:href="#DejaVuSans-72" x="276.855469"/>
       <use xlink:href="#DejaVuSans-65" x="315.71875"/>
       <use xlink:href="#DejaVuSans-64" x="377.242188"/>
       <use xlink:href="#DejaVuSans-5f" x="440.71875"/>
       <use xlink:href="#DejaVuSans-73" x="490.71875"/>
       <use xlink:href="#DejaVuSans-76" x="542.818359"/>
       <use xlink:href="#DejaVuSans-63" x="601.998047"/>
      </g>
     </g>
    </g>
    <g id="ytick_7">
     <g id="line2d_10">
      <g>
       <use xlink:href="#m110ab03824" x="102.952813" y="96.043529" style="stroke: #000000; stroke-width: 0.8"/>
      </g>
     </g>
     <g id="text_11">
      <!-- yac_pred_rf -->
      <g transform="translate(38.040313 99.842748) scale(0.1 -0.1)">
       <defs>
        <path id="DejaVuSans-61" d="M 2194 1759 
Q 1497 1759 1228 1600 
Q 959 1441 959 1056 
Q 959 750 1161 570 
Q 1363 391 1709 391 
Q 2188 391 2477 730 
Q 2766 1069 2766 1631 
L 2766 1759 
L 2194 1759 
z
M 3341 1997 
L 3341 0 
L 2766 0 
L 2766 531 
Q 2569 213 2275 61 
Q 1981 -91 1556 -91 
Q 1019 -91 701 211 
Q 384 513 384 1019 
Q 384 1609 779 1909 
Q 1175 2209 1959 2209 
L 2766 2209 
L 2766 2266 
Q 2766 2663 2505 2880 
Q 2244 3097 1772 3097 
Q 1472 3097 1187 3025 
Q 903 2953 641 2809 
L 641 3341 
Q 956 3463 1253 3523 
Q 1550 3584 1831 3584 
Q 2591 3584 2966 3190 
Q 3341 2797 3341 1997 
z
" transform="scale(0.015625)"/>
       </defs>
       <use xlink:href="#DejaVuSans-79"/>
       <use xlink:href="#DejaVuSans-61" x="59.179688"/>
       <use xlink:href="#DejaVuSans-63" x="120.458984"/>
       <use xlink:href="#DejaVuSans-5f" x="175.439453"/>
       <use xlink:href="#DejaVuSans-70" x="225.439453"/>
       <use xlink:href="#DejaVuSans-72" x="288.916016"/>
       <use xlink:href="#DejaVuSans-65" x="327.779297"/>
       <use xlink:href="#DejaVuSans-64" x="389.302734"/>
       <use xlink:href="#DejaVuSans-5f" x="452.779297"/>
       <use xlink:href="#DejaVuSans-72" x="502.779297"/>
       <use xlink:href="#DejaVuSans-66" x="543.892578"/>
      </g>
     </g>
    </g>
    <g id="ytick_8">
     <g id="line2d_11">
      <g>
       <use xlink:href="#m110ab03824" x="102.952813" y="109.711765" style="stroke: #000000; stroke-width: 0.8"/>
      </g>
     </g>
     <g id="text_12">
      <!-- yes_pred_svc -->
      <g transform="translate(29.309063 113.510983) scale(0.1 -0.1)">
       <use xlink:href="#DejaVuSans-79"/>
       <use xlink:href="#DejaVuSans-65" x="59.179688"/>
       <use xlink:href="#DejaVuSans-73" x="120.703125"/>
       <use xlink:href="#DejaVuSans-5f" x="172.802734"/>
       <use xlink:href="#DejaVuSans-70" x="222.802734"/>
       <use xlink:href="#DejaVuSans-72" x="286.279297"/>
       <use xlink:href="#DejaVuSans-65" x="325.142578"/>
       <use xlink:href="#DejaVuSans-64" x="386.666016"/>
       <use xlink:href="#DejaVuSans-5f" x="450.142578"/>
       <use xlink:href="#DejaVuSans-73" x="500.142578"/>
       <use xlink:href="#DejaVuSans-76" x="552.242188"/>
       <use xlink:href="#DejaVuSans-63" x="611.421875"/>
      </g>
     </g>
    </g>
    <g id="ytick_9">
     <g id="line2d_12">
      <g>
       <use xlink:href="#m110ab03824" x="102.952813" y="123.38" style="stroke: #000000; stroke-width: 0.8"/>
      </g>
     </g>
     <g id="text_13">
      <!-- yat_pred_xgb -->
      <g transform="translate(28.634062 127.179219) scale(0.1 -0.1)">
       <defs>
        <path id="DejaVuSans-74" d="M 1172 4494 
L 1172 3500 
L 2356 3500 
L 2356 3053 
L 1172 3053 
L 1172 1153 
Q 1172 725 1289 603 
Q 1406 481 1766 481 
L 2356 481 
L 2356 0 
L 1766 0 
Q 1100 0 847 248 
Q 594 497 594 1153 
L 594 3053 
L 172 3053 
L 172 3500 
L 594 3500 
L 594 4494 
L 1172 4494 
z
" transform="scale(0.015625)"/>
       </defs>
       <use xlink:href="#DejaVuSans-79"/>
       <use xlink:href="#DejaVuSans-61" x="59.179688"/>
       <use xlink:href="#DejaVuSans-74" x="120.458984"/>
       <use xlink:href="#DejaVuSans-5f" x="159.667969"/>
       <use xlink:href="#DejaVuSans-70" x="209.667969"/>
       <use xlink:href="#DejaVuSans-72" x="273.144531"/>
       <use xlink:href="#DejaVuSans-65" x="312.007812"/>
       <use xlink:href="#DejaVuSans-64" x="373.53125"/>
       <use xlink:href="#DejaVuSans-5f" x="437.007812"/>
       <use xlink:href="#DejaVuSans-78" x="487.007812"/>
       <use xlink:href="#DejaVuSans-67" x="546.1875"/>
       <use xlink:href="#DejaVuSans-62" x="609.664062"/>
      </g>
     </g>
    </g>
    <g id="ytick_10">
     <g id="line2d_13">
      <g>
       <use xlink:href="#m110ab03824" x="102.952813" y="137.048235" style="stroke: #000000; stroke-width: 0.8"/>
      </g>
     </g>
     <g id="text_14">
      <!-- yac_pred_xgb -->
      <g transform="translate(27.055937 140.847454) scale(0.1 -0.1)">
       <use xlink:href="#DejaVuSans-79"/>
       <use xlink:href="#DejaVuSans-61" x="59.179688"/>
       <use xlink:href="#DejaVuSans-63" x="120.458984"/>
       <use xlink:href="#DejaVuSans-5f" x="175.439453"/>
       <use xlink:href="#DejaVuSans-70" x="225.439453"/>
       <use xlink:href="#DejaVuSans-72" x="288.916016"/>
       <use xlink:href="#DejaVuSans-65" x="327.779297"/>
       <use xlink:href="#DejaVuSans-64" x="389.302734"/>
       <use xlink:href="#DejaVuSans-5f" x="452.779297"/>
       <use xlink:href="#DejaVuSans-78" x="502.779297"/>
       <use xlink:href="#DejaVuSans-67" x="561.958984"/>
       <use xlink:href="#DejaVuSans-62" x="625.435547"/>
      </g>
     </g>
    </g>
    <g id="ytick_11">
     <g id="line2d_14">
      <g>
       <use xlink:href="#m110ab03824" x="102.952813" y="150.716471" style="stroke: #000000; stroke-width: 0.8"/>
      </g>
     </g>
     <g id="text_15">
      <!-- yce_pred_xgb -->
      <g transform="translate(27.030938 154.515689) scale(0.1 -0.1)">
       <use xlink:href="#DejaVuSans-79"/>
       <use xlink:href="#DejaVuSans-63" x="59.179688"/>
       <use xlink:href="#DejaVuSans-65" x="114.160156"/>
       <use xlink:href="#DejaVuSans-5f" x="175.683594"/>
       <use xlink:href="#DejaVuSans-70" x="225.683594"/>
       <use xlink:href="#DejaVuSans-72" x="289.160156"/>
       <use xlink:href="#DejaVuSans-65" x="328.023438"/>
       <use xlink:href="#DejaVuSans-64" x="389.546875"/>
       <use xlink:href="#DejaVuSans-5f" x="453.023438"/>
       <use xlink:href="#DejaVuSans-78" x="503.023438"/>
       <use xlink:href="#DejaVuSans-67" x="562.203125"/>
       <use xlink:href="#DejaVuSans-62" x="625.679688"/>
      </g>
     </g>
    </g>
    <g id="ytick_12">
     <g id="line2d_15">
      <g>
       <use xlink:href="#m110ab03824" x="102.952813" y="164.384706" style="stroke: #000000; stroke-width: 0.8"/>
      </g>
     </g>
     <g id="text_16">
      <!-- ysc_pred_xgb -->
      <g transform="translate(27.974688 168.183925) scale(0.1 -0.1)">
       <use xlink:href="#DejaVuSans-79"/>
       <use xlink:href="#DejaVuSans-73" x="59.179688"/>
       <use xlink:href="#DejaVuSans-63" x="111.279297"/>
       <use xlink:href="#DejaVuSans-5f" x="166.259766"/>
       <use xlink:href="#DejaVuSans-70" x="216.259766"/>
       <use xlink:href="#DejaVuSans-72" x="279.736328"/>
       <use xlink:href="#DejaVuSans-65" x="318.599609"/>
       <use xlink:href="#DejaVuSans-64" x="380.123047"/>
       <use xlink:href="#DejaVuSans-5f" x="443.599609"/>
       <use xlink:href="#DejaVuSans-78" x="493.599609"/>
       <use xlink:href="#DejaVuSans-67" x="552.779297"/>
       <use xlink:href="#DejaVuSans-62" x="616.255859"/>
      </g>
     </g>
    </g>
    <g id="ytick_13">
     <g id="line2d_16">
      <g>
       <use xlink:href="#m110ab03824" x="102.952813" y="178.052941" style="stroke: #000000; stroke-width: 0.8"/>
      </g>
     </g>
     <g id="text_17">
      <!-- ykc_pred_rf -->
      <g transform="translate(38.377813 181.85216) scale(0.1 -0.1)">
       <use xlink:href="#DejaVuSans-79"/>
       <use xlink:href="#DejaVuSans-6b" x="59.179688"/>
       <use xlink:href="#DejaVuSans-63" x="117.089844"/>
       <use xlink:href="#DejaVuSans-5f" x="172.070312"/>
       <use xlink:href="#DejaVuSans-70" x="222.070312"/>
       <use xlink:href="#DejaVuSans-72" x="285.546875"/>
       <use xlink:href="#DejaVuSans-65" x="324.410156"/>
       <use xlink:href="#DejaVuSans-64" x="385.933594"/>
       <use xlink:href="#DejaVuSans-5f" x="449.410156"/>
       <use xlink:href="#DejaVuSans-72" x="499.410156"/>
       <use xlink:href="#DejaVuSans-66" x="540.523438"/>
      </g>
     </g>
    </g>
    <g id="ytick_14">
     <g id="line2d_17">
      <g>
       <use xlink:href="#m110ab03824" x="102.952813" y="191.721176" style="stroke: #000000; stroke-width: 0.8"/>
      </g>
     </g>
     <g id="text_18">
      <!-- yat_pred_rf -->
      <g transform="translate(39.618438 195.520395) scale(0.1 -0.1)">
       <use xlink:href="#DejaVuSans-79"/>
       <use xlink:href="#DejaVuSans-61" x="59.179688"/>
       <use xlink:href="#DejaVuSans-74" x="120.458984"/>
       <use xlink:href="#DejaVuSans-5f" x="159.667969"/>
       <use xlink:href="#DejaVuSans-70" x="209.667969"/>
       <use xlink:href="#DejaVuSans-72" x="273.144531"/>
       <use xlink:href="#DejaVuSans-65" x="312.007812"/>
       <use xlink:href="#DejaVuSans-64" x="373.53125"/>
       <use xlink:href="#DejaVuSans-5f" x="437.007812"/>
       <use xlink:href="#DejaVuSans-72" x="487.007812"/>
       <use xlink:href="#DejaVuSans-66" x="528.121094"/>
      </g>
     </g>
    </g>
    <g id="ytick_15">
     <g id="line2d_18">
      <g>
       <use xlink:href="#m110ab03824" x="102.952813" y="205.389412" style="stroke: #000000; stroke-width: 0.8"/>
      </g>
     </g>
     <g id="text_19">
      <!-- yma_pred_xgb -->
      <g transform="translate(22.81375 209.188631) scale(0.1 -0.1)">
       <defs>
        <path id="DejaVuSans-6d" d="M 3328 2828 
Q 3544 3216 3844 3400 
Q 4144 3584 4550 3584 
Q 5097 3584 5394 3201 
Q 5691 2819 5691 2113 
L 5691 0 
L 5113 0 
L 5113 2094 
Q 5113 2597 4934 2840 
Q 4756 3084 4391 3084 
Q 3944 3084 3684 2787 
Q 3425 2491 3425 1978 
L 3425 0 
L 2847 0 
L 2847 2094 
Q 2847 2600 2669 2842 
Q 2491 3084 2119 3084 
Q 1678 3084 1418 2786 
Q 1159 2488 1159 1978 
L 1159 0 
L 581 0 
L 581 3500 
L 1159 3500 
L 1159 2956 
Q 1356 3278 1631 3431 
Q 1906 3584 2284 3584 
Q 2666 3584 2933 3390 
Q 3200 3197 3328 2828 
z
" transform="scale(0.015625)"/>
       </defs>
       <use xlink:href="#DejaVuSans-79"/>
       <use xlink:href="#DejaVuSans-6d" x="59.179688"/>
       <use xlink:href="#DejaVuSans-61" x="156.591797"/>
       <use xlink:href="#DejaVuSans-5f" x="217.871094"/>
       <use xlink:href="#DejaVuSans-70" x="267.871094"/>
       <use xlink:href="#DejaVuSans-72" x="331.347656"/>
       <use xlink:href="#DejaVuSans-65" x="370.210938"/>
       <use xlink:href="#DejaVuSans-64" x="431.734375"/>
       <use xlink:href="#DejaVuSans-5f" x="495.210938"/>
       <use xlink:href="#DejaVuSans-78" x="545.210938"/>
       <use xlink:href="#DejaVuSans-67" x="604.390625"/>
       <use xlink:href="#DejaVuSans-62" x="667.867188"/>
      </g>
     </g>
    </g>
    <g id="ytick_16">
     <g id="line2d_19">
      <g>
       <use xlink:href="#m110ab03824" x="102.952813" y="219.057647" style="stroke: #000000; stroke-width: 0.8"/>
      </g>
     </g>
     <g id="text_20">
      <!-- yes_pred_rf -->
      <g transform="translate(38.304375 222.856866) scale(0.1 -0.1)">
       <use xlink:href="#DejaVuSans-79"/>
       <use xlink:href="#DejaVuSans-65" x="59.179688"/>
       <use xlink:href="#DejaVuSans-73" x="120.703125"/>
       <use xlink:href="#DejaVuSans-5f" x="172.802734"/>
       <use xlink:href="#DejaVuSans-70" x="222.802734"/>
       <use xlink:href="#DejaVuSans-72" x="286.279297"/>
       <use xlink:href="#DejaVuSans-65" x="325.142578"/>
       <use xlink:href="#DejaVuSans-64" x="386.666016"/>
       <use xlink:href="#DejaVuSans-5f" x="450.142578"/>
       <use xlink:href="#DejaVuSans-72" x="500.142578"/>
       <use xlink:href="#DejaVuSans-66" x="541.255859"/>
      </g>
     </g>
    </g>
    <g id="ytick_17">
     <g id="line2d_20">
      <g>
       <use xlink:href="#m110ab03824" x="102.952813" y="232.725882" style="stroke: #000000; stroke-width: 0.8"/>
      </g>
     </g>
     <g id="text_21">
      <!-- ycd_pred_rf -->
      <g transform="translate(37.82 236.525101) scale(0.1 -0.1)">
       <use xlink:href="#DejaVuSans-79"/>
       <use xlink:href="#DejaVuSans-63" x="59.179688"/>
       <use xlink:href="#DejaVuSans-64" x="114.160156"/>
       <use xlink:href="#DejaVuSans-5f" x="177.636719"/>
       <use xlink:href="#DejaVuSans-70" x="227.636719"/>
       <use xlink:href="#DejaVuSans-72" x="291.113281"/>
       <use xlink:href="#DejaVuSans-65" x="329.976562"/>
       <use xlink:href="#DejaVuSans-64" x="391.5"/>
       <use xlink:href="#DejaVuSans-5f" x="454.976562"/>
       <use xlink:href="#DejaVuSans-72" x="504.976562"/>
       <use xlink:href="#DejaVuSans-66" x="546.089844"/>
      </g>
     </g>
    </g>
    <g id="text_22">
     <!-- Features -->
     <g transform="translate(16.318125 152.870937) rotate(-90) scale(0.12 -0.12)">
      <defs>
       <path id="DejaVuSans-BoldOblique-46" d="M 1044 4666 
L 4288 4666 
L 4109 3756 
L 2069 3756 
L 1900 2888 
L 3822 2888 
L 3641 1978 
L 1722 1978 
L 1338 0 
L 134 0 
L 1044 4666 
z
" transform="scale(0.015625)"/>
       <path id="DejaVuSans-BoldOblique-75" d="M 434 1363 
L 844 3500 
L 1966 3500 
L 1613 1678 
Q 1575 1500 1556 1375 
Q 1538 1250 1538 1178 
Q 1538 981 1647 872 
Q 1756 763 1959 763 
Q 2306 763 2556 1031 
Q 2806 1300 2900 1778 
L 3238 3500 
L 4359 3500 
L 3681 0 
L 2553 0 
L 2656 513 
Q 2369 209 2053 59 
Q 1738 -91 1388 -91 
Q 909 -91 646 162 
Q 384 416 384 878 
Q 384 988 396 1109 
Q 409 1231 434 1363 
z
" transform="scale(0.015625)"/>
      </defs>
      <use xlink:href="#DejaVuSans-BoldOblique-46"/>
      <use xlink:href="#DejaVuSans-BoldOblique-65" x="60.560547"/>
      <use xlink:href="#DejaVuSans-BoldOblique-61" x="128.382812"/>
      <use xlink:href="#DejaVuSans-BoldOblique-74" x="195.863281"/>
      <use xlink:href="#DejaVuSans-BoldOblique-75" x="243.666016"/>
      <use xlink:href="#DejaVuSans-BoldOblique-72" x="314.857422"/>
      <use xlink:href="#DejaVuSans-BoldOblique-65" x="364.173828"/>
      <use xlink:href="#DejaVuSans-BoldOblique-73" x="431.996094"/>
     </g>
    </g>
   </g>
   <g id="line2d_21">
    <path clip-path="url(#pb9b1089829)" style="fill: none; stroke: #424242; stroke-width: 2.25; stroke-linecap: square"/>
   </g>
   <g id="line2d_22">
    <path clip-path="url(#pb9b1089829)" style="fill: none; stroke: #424242; stroke-width: 2.25; stroke-linecap: square"/>
   </g>
   <g id="line2d_23">
    <path clip-path="url(#pb9b1089829)" style="fill: none; stroke: #424242; stroke-width: 2.25; stroke-linecap: square"/>
   </g>
   <g id="line2d_24">
    <path clip-path="url(#pb9b1089829)" style="fill: none; stroke: #424242; stroke-width: 2.25; stroke-linecap: square"/>
   </g>
   <g id="line2d_25">
    <path clip-path="url(#pb9b1089829)" style="fill: none; stroke: #424242; stroke-width: 2.25; stroke-linecap: square"/>
   </g>
   <g id="line2d_26">
    <path clip-path="url(#pb9b1089829)" style="fill: none; stroke: #424242; stroke-width: 2.25; stroke-linecap: square"/>
   </g>
   <g id="line2d_27">
    <path clip-path="url(#pb9b1089829)" style="fill: none; stroke: #424242; stroke-width: 2.25; stroke-linecap: square"/>
   </g>
   <g id="line2d_28">
    <path clip-path="url(#pb9b1089829)" style="fill: none; stroke: #424242; stroke-width: 2.25; stroke-linecap: square"/>
   </g>
   <g id="line2d_29">
    <path clip-path="url(#pb9b1089829)" style="fill: none; stroke: #424242; stroke-width: 2.25; stroke-linecap: square"/>
   </g>
   <g id="line2d_30">
    <path clip-path="url(#pb9b1089829)" style="fill: none; stroke: #424242; stroke-width: 2.25; stroke-linecap: square"/>
   </g>
   <g id="line2d_31">
    <path clip-path="url(#pb9b1089829)" style="fill: none; stroke: #424242; stroke-width: 2.25; stroke-linecap: square"/>
   </g>
   <g id="line2d_32">
    <path clip-path="url(#pb9b1089829)" style="fill: none; stroke: #424242; stroke-width: 2.25; stroke-linecap: square"/>
   </g>
   <g id="line2d_33">
    <path clip-path="url(#pb9b1089829)" style="fill: none; stroke: #424242; stroke-width: 2.25; stroke-linecap: square"/>
   </g>
   <g id="line2d_34">
    <path clip-path="url(#pb9b1089829)" style="fill: none; stroke: #424242; stroke-width: 2.25; stroke-linecap: square"/>
   </g>
   <g id="line2d_35">
    <path clip-path="url(#pb9b1089829)" style="fill: none; stroke: #424242; stroke-width: 2.25; stroke-linecap: square"/>
   </g>
   <g id="line2d_36">
    <path clip-path="url(#pb9b1089829)" style="fill: none; stroke: #424242; stroke-width: 2.25; stroke-linecap: square"/>
   </g>
   <g id="line2d_37">
    <path clip-path="url(#pb9b1089829)" style="fill: none; stroke: #424242; stroke-width: 2.25; stroke-linecap: square"/>
   </g>
   <g id="patch_20">
    <path d="M 102.952813 239.56 
L 102.952813 7.2 
" style="fill: none; stroke: #000000; stroke-width: 0.8; stroke-linejoin: miter; stroke-linecap: square"/>
   </g>
   <g id="patch_21">
    <path d="M 271.862813 239.56 
L 271.862813 7.2 
" style="fill: none; stroke: #000000; stroke-width: 0.8; stroke-linejoin: miter; stroke-linecap: square"/>
   </g>
   <g id="patch_22">
    <path d="M 102.952813 239.56 
L 271.862813 239.56 
" style="fill: none; stroke: #000000; stroke-width: 0.8; stroke-linejoin: miter; stroke-linecap: square"/>
   </g>
   <g id="patch_23">
    <path d="M 102.952813 7.2 
L 271.862813 7.2 
" style="fill: none; stroke: #000000; stroke-width: 0.8; stroke-linejoin: miter; stroke-linecap: square"/>
   </g>
  </g>
 </g>
 <defs>
  <clipPath id="pb9b1089829">
   <rect x="102.952813" y="7.2" width="168.91" height="232.36"/>
  </clipPath>
 </defs>
</svg>
