<svg width="900" height="900" viewBox="-450,-450,900,900"><g font-size="10" font-family="sans-serif"><g><path fill="#98df8a" fill-opacity="0.8" d="M1.8982025386783973e-14,-310A310,310,0,0,1,60.081234751439716,-304.1220893502187L58.14313040461908,-294.3116993711794A300,300,0,0,0,1.8369701987210297e-14,-300Z"></path><text dy="0.35em" transform="
        rotate(-84.41237956192158)
        translate(315)
        
      ">10-nitrooleic acid</text><title>10-nitrooleic acid
        0 outgoing →
        1.1428571428571428 incoming ←</title></g><g><path fill="#ff7f0e" fill-opacity="0.8" d="M70.18338516395727,-301.950811303642A310,310,0,0,1,87.23798002824427,-297.4719059686001L84.42385164023638,-287.8760380341291A300,300,0,0,0,67.919404997378,-292.21046255191163Z"></path><text dy="0.35em" transform="
        rotate(-75.28517717896756)
        translate(315)
        
      ">Acetaminophen</text><title>Acetaminophen
        0.3333333333333333 outgoing →
        0 incoming ←</title></g><g><path fill="#aec7e8" fill-opacity="0.8" d="M97.10341302579954,-294.39926490862877A310,310,0,0,1,173.8549777354728,-256.66017750441586L168.24675264723174,-248.3808169397573A300,300,0,0,0,93.97104486367697,-284.9025144277053Z"></path><text dy="0.35em" transform="
        rotate(-63.81644821155119)
        translate(315)
        
      ">Aramchol</text><title>Aramchol
        0 outgoing →
        1.6217784317847381 incoming ←</title></g><g><path fill="#ff9896" fill-opacity="0.8" d="M182.31215559563634,-250.72350891384815A310,310,0,0,1,196.27271118465868,-239.9521261506627L189.9413334045084,-232.2117349845123A300,300,0,0,0,176.43111831835773,-242.63565378759498Z"></path><text dy="0.35em" transform="
        rotate(-52.34771924413481)
        translate(315)
        
      ">Aroclor 1260</text><title>Aroclor 1260
        0 outgoing →
        0.3333333333333333 incoming ←</title></g><g><path fill="#ffbb78" fill-opacity="0.8" d="M204.16060398685917,-233.27761954315474A310,310,0,0,1,236.5947468646918,-200.30707864684265L228.96265825615336,-193.8455599808155A300,300,0,0,0,197.5747780517992,-225.75253504176266Z"></path><text dy="0.35em" transform="
        rotate(-44.53011540135542)
        translate(315)
        
      ">BPA</text><title>BPA
        0 outgoing →
        0.875 incoming ←</title></g><g><path fill="#17becf" fill-opacity="0.8" d="M243.13898373552038,-192.31077605807317A310,310,0,0,1,256.6154565464381,-173.92098050972206L248.33753859332722,-168.310626299731A300,300,0,0,0,235.2957907117939,-186.10720263684502Z"></path><text dy="0.35em" transform="
        rotate(-36.23483423664259)
        translate(315)
        
      ">Bavachinin</text><title>Bavachinin
        0.43103448275862066 outgoing →
        0 incoming ←</title></g><g><path fill="#dbdb8d" fill-opacity="0.8" d="M262.2691980941404,-165.27210209547326A310,310,0,0,1,270.6509183931358,-151.15581488302772L261.92024360626044,-146.27982085454295A300,300,0,0,0,253.8089013814262,-159.94074396336123Z"></path><text dy="0.35em" transform="
        rotate(-30.70024700604501)
        translate(315)
        
      ">Chlorogenic acid</text><title>Chlorogenic acid
        0 outgoing →
        0.3103448275862069 incoming ←</title></g><g><path fill="#1f77b4" fill-opacity="0.8" d="M275.53816484768026,-142.05182051762867A310,310,0,0,1,307.1028405419283,-42.282920086944756L297.1962972986403,-40.918954922849764A300,300,0,0,0,266.64983694936797,-137.46950372673743Z"></path><text dy="0.35em" transform="
        rotate(-17.556220572025268)
        translate(315)
        
      ">Cholic acid</text><title>Cholic acid
        1.9874218650338054 outgoing →
        0 incoming ←</title></g><g><path fill="#9edae5" fill-opacity="0.8" d="M308.3414133280097,-32.02456599058734A310,310,0,0,1,309.8670536400246,-9.077944065156847L299.87134223228185,-8.785107159829208A300,300,0,0,0,298.39491612388036,-30.99151547476194Z"></path><text dy="0.35em" transform="
        rotate(-3.8037969351338035)
        translate(315)
        
      ">Chrysin</text><title>Chrysin
        0 outgoing →
        0.43478260869565216 incoming ←</title></g><g><path fill="#bcbd22" fill-opacity="0.8" d="M309.9974633178907,1.2540879048185287A310,310,0,0,1,309.4963612960498,17.66358809825988L299.5126077058547,17.093794933799884A300,300,0,0,0,299.99754514634583,1.2136334562759956Z"></path><text dy="0.35em" transform="
        rotate(1.7491155124177453)
        translate(315)
        
      ">Curcumin</text><title>Curcumin
        0.3103448275862069 outgoing →
        0 incoming ←</title></g><g><path fill="#bcbd22" fill-opacity="0.8" d="M308.7357575516078,27.96841091365147A310,310,0,0,1,285.1305685798254,121.65754749026242L275.9328083030569,117.7331104744475A300,300,0,0,0,298.776539566072,27.066204109985296Z"></path><text dy="0.35em" transform="
        rotate(14.141471073543116)
        translate(315)
        
      ">Dihydromyricetin</text><title>Dihydromyricetin
        0 outgoing →
        1.8336797782752374 incoming ←</title></g><g><path fill="#17becf" fill-opacity="0.8" d="M280.91767672284635,131.09255854028626A310,310,0,0,1,262.0468274023854,165.62445546580503L253.59370393779233,160.28173109594036A300,300,0,0,0,271.8558161833997,126.8637663293093Z"></path><text dy="0.35em" transform="
        rotate(28.65554099912748)
        translate(315)
        
      ">Epigallocatechin gallate</text><title>Epigallocatechin gallate
        0.7443070917371504 outgoing →
        0 incoming ←</title></g><g><path fill="#e377c2" fill-opacity="0.8" d="M256.38146644507356,174.2657271624964A310,310,0,0,1,238.04335645521303,198.5833841174442L230.36453850504486,192.17746850075247A300,300,0,0,0,248.1110965597486,168.64425209273847Z"></path><text dy="0.35em" transform="
        rotate(37.02019378146754)
        translate(315)
        
      ">Exendin</text><title>Exendin
        0.5759162303664922 outgoing →
        0 incoming ←</title></g><g><path fill="#8c564b" fill-opacity="0.8" d="M231.2929020086575,206.4063794566766A310,310,0,0,1,220.04140994920246,218.3615760786843L212.9432999508411,211.3176542696945A300,300,0,0,0,223.83184065353953,199.74810915162251Z"></path><text dy="0.35em" transform="
        rotate(43.263132199348576)
        translate(315)
        
      ">Gallic acid</text><title>Gallic acid
        0 outgoing →
        0.3103448275862069 incoming ←</title></g><g><path fill="#9467bd" fill-opacity="0.8" d="M212.64180467349493,225.57363078427235A310,310,0,0,1,179.72776871215996,252.58251949362676L173.9300987537032,244.4346962841549A300,300,0,0,0,205.78239161951123,218.29706204929582Z"></path><text dy="0.35em" transform="
        rotate(50.628081721399184)
        translate(315)
        
      ">Glucose</text><title>Glucose
        0 outgoing →
        0.8054054054054054 incoming ←</title></g><g><path fill="#d62728" fill-opacity="0.8" d="M171.210070944961,258.43202511883356A310,310,0,0,1,142.41452063630126,275.35087490678603L137.82050384158185,266.4685886194703A300,300,0,0,0,165.6871654306074,250.09550817951637Z"></path><text dy="0.35em" transform="
        rotate(59.563598784915115)
        translate(315)
        
      ">Lipoic acid</text><title>Lipoic acid
        0 outgoing →
        0.631578947368421 incoming ←</title></g><g><path fill="#e377c2" fill-opacity="0.8" d="M133.15874588918922,279.9441879968547A310,310,0,0,1,105.04512270247142,291.65994273541014L101.6565703572304,282.25155748588077A300,300,0,0,0,128.86330247340894,270.9137303195368Z"></path><text dy="0.35em" transform="
        rotate(67.37710474426149)
        translate(315)
        
      ">Liraglutide</text><title>Liraglutide
        0 outgoing →
        0.5759162303664922 incoming ←</title></g><g><path fill="#c5b0d5" fill-opacity="0.8" d="M95.26657188314428,294.99878013584004A310,310,0,0,1,79.40553840826789,299.65773887903026L76.84406942735602,289.99136020551316A300,300,0,0,0,92.19345666110738,285.48269045403873Z"></path><text dy="0.35em" transform="
        rotate(73.63058016189109)
        translate(315)
        
      ">MSG</text><title>MSG
        0 outgoing →
        0.3125 incoming ←</title></g><g><path fill="#c5b0d5" fill-opacity="0.8" d="M69.37468664515973,302.137638921214A310,310,0,0,1,53.16991430754239,305.40622163362787L51.454755781492636,295.55440803254305A300,300,0,0,0,67.13679352757393,292.39126347214255Z"></path><text dy="0.35em" transform="
        rotate(78.59616940606793)
        translate(315)
        
      ">Methionine</text><title>Methionine
        0.3125 outgoing →
        0 incoming ←</title></g><g><path fill="#c7c7c7" fill-opacity="0.8" d="M42.962055932307926,307.0085695059166A310,310,0,0,1,-53.173011041925236,305.4056824892675L-51.45775262121797,295.5538862799363A300,300,0,0,0,41.576183160297994,297.1050672637903Z"></path><text dy="0.35em" transform="
        rotate(90.95522014046443)
        translate(315)
        rotate(180)
      " text-anchor="end">Naringenin</text><title>Naringenin
        0.4166666666666667 outgoing →
        1.4080459770114941 incoming ←</title></g><g><path fill="#aec7e8" fill-opacity="0.8" d="M-63.32177751614945,303.46392288408066A310,310,0,0,1,-142.33256043623336,275.3932501708529L-137.7411875189355,266.5095969395351A300,300,0,0,0,-61.27913953175754,293.6747640813684Z"></path><text dy="0.35em" transform="
        rotate(109.5589292130098)
        translate(315)
        rotate(180)
      " text-anchor="end">Obeticholic acid</text><title>Obeticholic acid
        0.4 outgoing →
        1.1897435897435897 incoming ←</title></g><g><path fill="#2ca02c" fill-opacity="0.8" d="M-151.43156925470947,270.4967279525875A310,310,0,0,1,-229.2680273984081,208.65323293168214L-221.87228457910462,201.92248348227304A300,300,0,0,0,-146.5466799239124,261.7710270508911Z"></path><text dy="0.35em" transform="
        rotate(128.46823768678325)
        translate(315)
        rotate(180)
      " text-anchor="end">Oleic acid</text><title>Oleic acid
        0.8872180451127819 outgoing →
        1 incoming ←</title></g><g><path fill="#8c564b" fill-opacity="0.8" d="M-236.09448791828441,200.89647277790382A310,310,0,0,1,-246.39886650483993,188.11591794723293L-238.45051597242573,182.04766252958024A300,300,0,0,0,-228.47853669511395,194.41594139797144Z"></path><text dy="0.35em" transform="
        rotate(141.1223508226593)
        translate(315)
        rotate(180)
      " text-anchor="end">Orotic acid</text><title>Orotic acid
        0.3103448275862069 outgoing →
        0 incoming ←</title></g><g><path fill="#d62728" fill-opacity="0.8" d="M-252.5313603734209,179.79964412631472A310,310,0,0,1,-262.34577854013946,165.1505146288321L-253.88301149045756,159.82307867306332A300,300,0,0,0,-244.38518745814926,173.99965560611102Z"></path><text dy="0.35em" transform="
        rotate(146.17926073132344)
        translate(315)
        rotate(180)
      " text-anchor="end">PCB 126</text><title>PCB 126
        0.3333333333333333 outgoing →
        0 incoming ←</title></g><g><path fill="#2ca02c" fill-opacity="0.8" d="M-267.70404214335605,156.31553288175883A310,310,0,0,1,-303.4186443038276,63.538384373757395L-293.63094610047835,61.48875907137812A300,300,0,0,0,-259.0684278806672,151.27309633718596Z"></path><text dy="0.35em" transform="
        rotate(158.9457685311838)
        translate(315)
        rotate(180)
      " text-anchor="end">Palmitoleic acid</text><title>Palmitoleic acid
        1.8872180451127818 outgoing →
        0 incoming ←</title></g><g><path fill="#f7b6d2" fill-opacity="0.8" d="M-305.36764795303407,53.391006580058516A310,310,0,0,1,-308.9182903667856,25.87450244666264L-298.9531842259215,25.039841077415456A300,300,0,0,0,-295.5170786642265,51.66871604521792Z"></path><text dy="0.35em" transform="
        rotate(172.64736308468434)
        translate(315)
        rotate(180)
      " text-anchor="end">Pioglitazone</text><title>Pioglitazone
        0 outgoing →
        0.5245901639344263 incoming ←</title></g><g><path fill="#9edae5" fill-opacity="0.8" d="M-309.6090086892405,15.564759505556006A310,310,0,0,1,-309.9109340603295,-7.430541693179897L-299.9138071551576,-7.1908467998515135A300,300,0,0,0,-299.6216213121682,15.062670489247749Z"></path><text dy="0.35em" transform="
        rotate(179.2477569498604)
        translate(315)
        rotate(180)
      " text-anchor="end">Quercetin</text><title>Quercetin
        0.43478260869565216 outgoing →
        0 incoming ←</title></g><g><path fill="#f7b6d2" fill-opacity="0.8" d="M-309.49113840240216,-17.754865541173928A310,310,0,0,1,-306.66417182495184,-45.355106866993935L-296.77177918543725,-43.89203890354252A300,300,0,0,0,-299.50755329264723,-17.182127943071546Z"></path><text dy="0.35em" transform="
        rotate(185.84815081503643)
        translate(315)
        rotate(180)
      " text-anchor="end">Rosiglitazone</text><title>Rosiglitazone
        0.5245901639344263 outgoing →
        0 incoming ←</title></g><g><path fill="#7f7f7f" fill-opacity="0.8" d="M-304.98226167360184,-55.55015809567636A310,310,0,0,1,-273.2886498478529,-146.3328871591674L-264.4728869495351,-141.61247144435555A300,300,0,0,0,-295.14412420025985,-53.75821751194486Z"></path><text dy="0.35em" transform="
        rotate(199.2448603401732)
        translate(315)
        rotate(180)
      " text-anchor="end">Silibinin</text><title>Silibinin
        1.8248587570621468 outgoing →
        0 incoming ←</title></g><g><path fill="#c7c7c7" fill-opacity="0.8" d="M-268.2599772116371,-155.35953342621735A310,310,0,0,1,-207.74856787678246,-230.0880973565254L-201.04700117107978,-222.66590066760523A300,300,0,0,0,-259.6064295596488,-150.34793557375875Z"></path><text dy="0.35em" transform="
        rotate(218.99880131051782)
        translate(315)
        rotate(180)
      " text-anchor="end">Silymarin</text><title>Silymarin
        0.8248587570621468 outgoing →
        1 incoming ←</title></g><g><path fill="#ff9896" fill-opacity="0.8" d="M-199.96497966477523,-236.88395240637564A310,310,0,0,1,-183.11005976375284,-250.14137205451414L-177.20328364234146,-242.07229553662657A300,300,0,0,0,-193.51449644978248,-229.24253458681514Z"></path><text dy="0.35em" transform="
        rotate(231.81279654207344)
        translate(315)
        rotate(180)
      " text-anchor="end">Streptozotocin</text><title>Streptozotocin
        0.40540540540540543 outgoing →
        0 incoming ←</title></g><g><path fill="#c49c94" fill-opacity="0.8" d="M-174.6718396332789,-256.10495590504706A310,310,0,0,1,-156.7953964790897,-267.42326683174946L-151.7374804636352,-258.7967098371769A300,300,0,0,0,-169.03726416123763,-247.84350571456167Z"></path><text dy="0.35em" transform="
        rotate(237.66041810033545)
        translate(315)
        rotate(180)
      " text-anchor="end">Sucrose</text><title>Sucrose
        0.4 outgoing →
        0 incoming ←</title></g><g><path fill="#ffbb78" fill-opacity="0.8" d="M-147.79583776560656,-272.50025750292883A310,310,0,0,1,-122.00987561528113,-284.9799821958441L-118.07407317607851,-275.78707954436527A300,300,0,0,0,-143.02823009574828,-263.7099266157376Z"></path><text dy="0.35em" transform="
        rotate(244.17424384089657)
        translate(315)
        rotate(180)
      " text-anchor="end">Tyloxapol</text><title>Tyloxapol
        0.5416666666666666 outgoing →
        0 incoming ←</title></g><g><path fill="#1f77b4" fill-opacity="0.8" d="M-112.44452492515009,-288.887917390737A310,310,0,0,1,-10.331419859393916,-309.82779372368924L-9.998148251026372,-299.83334876486055A300,300,0,0,0,-108.81728218562911,-279.5689523136165Z"></path><text dy="0.35em" transform="
        rotate(258.41127155551374)
        translate(315)
        rotate(180)
      " text-anchor="end">Ursodexycholic acid</text><title>Ursodexycholic acid
        1.2018779342723005 outgoing →
        0.7777777777777778 incoming ←</title></g></g><g><path fill="#2ca02c" fill-opacity="0.8" d="M-258.4557891414151,150.3383020367344A299,299,0,0,1,-279.88489576537523,105.19241951017683Q0,0,-177.97513384242728,227.69684172989773L-203.17590620558732,219.363969551835L-213.41247300598522,194.87461703739052Q0,0,-258.4557891414151,150.3383020367344Z" style="mix-blend-mode: multiply;"><title>Palmitoleic acid → Oleic acid 1</title></path><path fill="#7f7f7f" fill-opacity="0.8" d="M-294.07060356595275,-54.069215995391225A299,299,0,0,1,-280.95798589572524,-102.29178931574843Q0,0,-226.9940626483535,-178.8706111198689L-218.5619936940694,-204.0383662757413L-194.03251110976697,-214.1783944109166Q0,0,-294.07060356595275,-54.069215995391225Z" style="mix-blend-mode: multiply;"><title>Silibinin → Silymarin 1</title></path><path fill="#1f77b4" fill-opacity="0.8" d="M265.98898706147725,-136.56814695238887A299,299,0,0,1,281.38837835303303,-101.10183246534324Q0,0,-47.29942498814545,-285.1030767911683L-29.761749610512243,-297.51510593601995L-10.11293498065351,-288.82300556928817Q0,0,265.98898706147725,-136.56814695238887Z" style="mix-blend-mode: multiply;"><title>Cholic acid → Ursodexycholic acid 0.7777777777777778</title></path><path fill="#1f77b4" fill-opacity="0.8" d="M281.72382056984463,-100.16331126480385A299,299,0,0,1,291.27820071803956,-67.51303419682345Q0,0,133.4216696517384,-256.3584562040862L152.9033466889306,-256.9466220274645L161.67869092638855,-239.54331737773302Q0,0,281.72382056984463,-100.16331126480385Z" style="mix-blend-mode: multiply;"><title>Cholic acid → Aramchol 0.6865671641791045</title></path><path fill="#1f77b4" fill-opacity="0.8" d="M-107.99001240236923,-278.8174263229186A299,299,0,0,1,-76.6012657400561,-289.02118622519924Q0,0,-103.13523683803868,269.97059640331514L-121.957445282956,272.9970357715533L-132.26259725146804,256.9583728316631Q0,0,-107.99001240236923,-278.8174263229186Z" style="mix-blend-mode: multiply;"><title>Ursodexycholic acid → Obeticholic acid 0.6666666666666666</title></path><path fill="#e377c2" fill-opacity="0.8" d="M247.00357940992953,168.49401104692902A299,299,0,0,1,229.91556580629748,191.15394999834584Q0,0,123.70317545834732,261.1867614974414L115.01459716083616,275.9939173966169L98.38219711115521,271.7387408736226Q0,0,247.00357940992953,168.49401104692902Z" style="mix-blend-mode: multiply;"><title>Exendin → Liraglutide 0.5759162303664922</title></path><path fill="#2ca02c" fill-opacity="0.8" d="M-146.4928186925717,260.65466439621855A299,299,0,0,1,-170.35801606416442,245.72168476282653Q0,0,28.618651560814357,-287.5795068895569L43.58295805402289,-295.8065681611233L55.538604264554564,-283.61322859899394Q0,0,-146.4928186925717,260.65466439621855Z" style="mix-blend-mode: multiply;"><title>Oleic acid → 10-nitrooleic acid 0.5714285714285714</title></path><path fill="#2ca02c" fill-opacity="0.8" d="M-280.2339815997591,104.25888718351978A299,299,0,0,1,-288.79737299870214,77.44079899541649Q0,0,0.4816664436728993,-288.999598611204L14.573818062109185,-298.64461124736965L27.65989598733551,-287.67330455565354Q0,0,-280.2339815997591,104.25888718351978Z" style="mix-blend-mode: multiply;"><title>Palmitoleic acid → 10-nitrooleic acid 0.5714285714285714</title></path><path fill="#ffbb78" fill-opacity="0.8" d="M-142.11322005424626,-263.06811415641647A299,299,0,0,1,-118.1384422571098,-274.6712734544032Q0,0,202.7310824871298,-205.96385166721993L219.0289314570286,-203.53704130892802L220.2558247716162,-187.10524218785292Q0,0,-142.11322005424626,-263.06811415641647Z" style="mix-blend-mode: multiply;"><title>Tyloxapol → BPA 0.5416666666666666</title></path><path fill="#1f77b4" fill-opacity="0.8" d="M-75.63743800785896,-289.27491763304903A299,299,0,0,1,-49.919037055090925,-294.8034764711781Q0,0,109.48188427139347,-267.4597484041014L125.33315475285033,-271.4638103315027L132.5664018160384,-256.8017700670084Q0,0,-75.63743800785896,-289.27491763304903Z" style="mix-blend-mode: multiply;"><title>Ursodexycholic acid → Aramchol 0.5352112676056338</title></path><path fill="#f7b6d2" fill-opacity="0.8" d="M-298.4802387752387,-17.62234549305204A299,299,0,0,1,-295.85503863225523,-43.25270067760833Q0,0,-284.76401401141237,49.29965845833159L-296.5414101191843,38.26476296183912L-287.9509646454359,24.601665792440567Q0,0,-298.4802387752387,-17.62234549305204Z" style="mix-blend-mode: multiply;"><title>Rosiglitazone → Pioglitazone 0.5245901639344263</title></path><path fill="#1f77b4" fill-opacity="0.8" d="M291.50162553788755,-66.54173358704432A299,299,0,0,1,296.13726067847097,-41.276177607081294Q0,0,-78.65614858392466,278.0902916139712L-93.66150685905826,283.95161935247097L-102.23476354350439,270.31288005421374Q0,0,291.50162553788755,-66.54173358704432Z" style="mix-blend-mode: multiply;"><title>Cholic acid → Obeticholic acid 0.5230769230769231</title></path><path fill="#7f7f7f" fill-opacity="0.8" d="M-280.61545301984904,-103.22774591390092A299,299,0,0,1,-271.39927417319535,-125.47284159634992Q0,0,274.23180315085654,91.20262134735965L279.6913287475279,105.70601034682116L266.00392977290176,112.97304698631956Q0,0,-280.61545301984904,-103.22774591390092Z" style="mix-blend-mode: multiply;"><title>Silibinin → Dihydromyricetin 0.4915254237288136</title></path><path fill="#c7c7c7" fill-opacity="0.8" d="M-258.4909709212376,-150.2778025930506A299,299,0,0,1,-245.56063338878994,-170.59007981033454Q0,0,280.9091412425693,67.9047448000671L287.56467084657896,81.89969524301479L274.5342878170954,90.28801034888423Q0,0,-258.4909709212376,-150.2778025930506Z" style="mix-blend-mode: multiply;"><title>Silymarin → Dihydromyricetin 0.4915254237288136</title></path><path fill="#9edae5" fill-opacity="0.8" d="M-298.64748857828243,14.5147361631088A299,299,0,0,1,-298.92562409625947,-6.6686774297272615Q0,0,287.50312853489356,-29.376029048332217L298.3413251842113,-19.835667050257584L288.86155349603166,-8.944434686398296Q0,0,-298.64748857828243,14.5147361631088Z" style="mix-blend-mode: multiply;"><title>Quercetin → Chrysin 0.43478260869565216</title></path><path fill="#17becf" fill-opacity="0.8" d="M270.7385190963268,126.89229400372543A299,299,0,0,1,261.09419763096207,145.70799553711566Q0,0,285.16363033254027,46.93297279702534L293.12959458353015,58.957957726631484L281.13392936784277,66.96800548169837Q0,0,270.7385190963268,126.89229400372543Z" style="mix-blend-mode: multiply;"><title>Epigallocatechin gallate → Dihydromyricetin 0.4339622641509434</title></path><path fill="#17becf" fill-opacity="0.8" d="M234.82029029815504,-185.09573540276446A299,299,0,0,1,247.22982051253032,-168.16187394692665Q0,0,-28.9906827002648,287.5422409256987L-40.41943066694478,296.2554128190066L-49.0963715454949,284.7991332519583Q0,0,234.82029029815504,-185.09573540276446Z" style="mix-blend-mode: multiply;"><title>Bavachinin → Naringenin 0.43103448275862066</title></path><path fill="#c7c7c7" fill-opacity="0.8" d="M40.94401403097806,296.1833683970642A299,299,0,0,1,20.791033240972286,298.27626948312997Q0,0,287.7775437558732,26.553442523267826L296.633486486467,37.544303094917055L285.31848904456365,45.982168384355546Q0,0,40.94401403097806,296.1833683970642Z" style="mix-blend-mode: multiply;"><title>Naringenin → Dihydromyricetin 0.4166666666666667</title></path><path fill="#ff9896" fill-opacity="0.8" d="M-192.48838310906524,-228.79952440522626A299,299,0,0,1,-177.01446952861755,-240.9706985869903Q0,0,183.05820890316488,223.63070485325858L181.6727407376088,237.47845222858763L167.9448823903225,235.19250940219322Q0,0,-192.48838310906524,-228.79952440522626Z" style="mix-blend-mode: multiply;"><title>Streptozotocin → Glucose 0.40540540540540543</title></path><path fill="#aec7e8" fill-opacity="0.8" d="M-61.56261709494466,292.59365026675005A299,299,0,0,1,-80.41832165883028,287.9824535307263Q0,0,90.98274075865316,-274.30483204647294L103.29348771557969,-280.5912603691558L108.58974519557108,-267.82320145641035Q0,0,-61.56261709494466,292.59365026675005Z" style="mix-blend-mode: multiply;"><title>Obeticholic acid → Aramchol 0.4</title></path><path fill="#c49c94" fill-opacity="0.8" d="M-168.06187721213013,-247.2978071636198A299,299,0,0,1,-151.66136870933252,-257.6816431979816Q0,0,197.88627403250274,210.62293927664487L197.55217028304702,224.44184105566856L183.8026262164656,223.0192695619153Q0,0,-168.06187721213013,-247.2978071636198Z" style="mix-blend-mode: multiply;"><title>Sucrose → Glucose 0.4</title></path><path fill="#ff7f0e" fill-opacity="0.8" d="M68.17830678408507,-291.12320155572485A299,299,0,0,1,83.66412807294928,-287.05629007878076Q0,0,190.69256324457132,-217.1574229060917L203.23558566155012,-219.30867908226233L202.04341130353808,-206.6384764481904Q0,0,68.17830678408507,-291.12320155572485Z" style="mix-blend-mode: multiply;"><title>Acetaminophen → BPA 0.3333333333333333</title></path><path fill="#d62728" fill-opacity="0.8" d="M-243.85926450168716,173.0134651311746A299,299,0,0,1,-252.77089957677472,159.71184153702592Q0,0,170.35130609666447,-233.45541868022795L182.64948756178705,-236.72803951669223L182.60373504336903,-224.00195523300926Q0,0,-243.85926450168716,173.0134651311746Z" style="mix-blend-mode: multiply;"><title>PCB 126 → Aroclor 1260 0.3333333333333333</title></path><path fill="#7f7f7f" fill-opacity="0.8" d="M-270.97952437004824,-126.3768070975938A299,299,0,0,1,-263.82617850162893,-140.7009151968338Q0,0,-12.594888503824055,288.72542108996265L-21.023893987683657,298.25994682758636L-28.032049279597697,287.63727890032993Q0,0,-270.97952437004824,-126.3768070975938Z" style="mix-blend-mode: multiply;"><title>Silibinin → Naringenin 0.3333333333333333</title></path><path fill="#c7c7c7" fill-opacity="0.8" d="M-244.99063661796896,-171.40766601737013A299,299,0,0,1,-235.46408898082734,-184.27605053405347Q0,0,3.841654914280063,288.97446545935435L-4.031606980153988,298.97281840521487L-11.632402244240843,288.7657999452639Q0,0,-244.99063661796896,-171.40766601737013Z" style="mix-blend-mode: multiply;"><title>Silymarin → Naringenin 0.3333333333333333</title></path><path fill="#2ca02c" fill-opacity="0.8" d="M-171.17614039736117,245.1524606416646A299,299,0,0,1,-183.3471693795321,236.18809343511194Q0,0,145.98660023900626,249.41714566295673L144.46695391303493,261.78292386458105L133.19473089347312,256.47643880523464Q0,0,-171.17614039736117,245.1524606416646Z" style="mix-blend-mode: multiply;"><title>Oleic acid → Lipoic acid 0.3157894736842105</title></path><path fill="#2ca02c" fill-opacity="0.8" d="M-289.05390408895977,76.47771264185704A299,299,0,0,1,-292.54963020526657,61.77146482609749Q0,0,159.210205634901,241.19102475360174L158.35888370436655,253.62070883882274L146.81717814902126,248.92913891378518Q0,0,-289.05390408895977,76.47771264185704Z" style="mix-blend-mode: multiply;"><title>Palmitoleic acid → Lipoic acid 0.3157894736842105</title></path><path fill="#c5b0d5" fill-opacity="0.8" d="M66.42721712942186,291.527742804078A299,299,0,0,1,51.77411718601173,294.4833455216256Q0,0,88.35454845799434,275.1626314868789L84.2669927741107,286.87989460540444L74.49194775774478,279.2345783015732Q0,0,66.42721712942186,291.527742804078Z" style="mix-blend-mode: multiply;"><title>Methionine → MSG 0.3125</title></path><path fill="#bcbd22" fill-opacity="0.8" d="M298.99512207582217,1.7079153562794778A299,299,0,0,1,298.5422124233806,16.539268464872414Q0,0,244.75902904175356,-153.66853192029276L257.0951711103748,-152.65344081194863L252.08129063088646,-141.33655901381834Q0,0,298.99512207582217,1.7079153562794778Z" style="mix-blend-mode: multiply;"><title>Curcumin → Chlorogenic acid 0.3103448275862069</title></path><path fill="#17becf" fill-opacity="0.8" d="M260.60705468995945,146.57749842941263A299,299,0,0,1,253.01428619315118,159.3259896632379Q0,0,19.134569514004646,288.36585832846737L12.387716187637269,298.74327521745914L4.804880006178387,288.9600545544768Q0,0,260.60705468995945,146.57749842941263Z" style="mix-blend-mode: multiply;"><title>Epigallocatechin gallate → Naringenin 0.3103448275862069</title></path><path fill="#8c564b" fill-opacity="0.8" d="M-228.03957163026118,193.38809107772636A299,299,0,0,1,-237.3529495869471,181.83667760486648Q0,0,215.30366714638149,192.7831188494474L217.7359581125133,204.91962459663512L205.47437611918556,203.22716540470532Q0,0,-228.03957163026118,193.38809107772636Z" style="mix-blend-mode: multiply;"><title>Orotic acid → Gallic acid 0.3103448275862069</title></path></g></svg>